<?xml version="1.0" encoding="UTF-8" ?>
<!DOCTYPE svg PUBLIC "-//W3C//DTD SVG 1.1//EN" "http://www.w3.org/Graphics/SVG/1.1/DTD/svg11.dtd">
<svg width="1024pt" height="1024pt" viewBox="0 0 1024 1024" version="1.1" xmlns="http://www.w3.org/2000/svg">
<path fill="#95321f" d=" M 0.00 0.00 L 1024.00 0.00 L 1024.00 1024.00 L 0.00 1024.00 L 0.00 0.00 Z" />
<path fill="#ffffff" d=" M 204.57 157.49 C 206.76 157.47 208.96 157.47 211.15 157.46 C 217.13 166.93 219.69 178.31 226.89 187.02 C 230.24 191.19 235.09 193.71 240.14 195.19 C 236.67 191.22 233.24 186.14 234.63 180.59 C 236.33 175.98 233.18 170.65 236.34 166.45 C 239.32 161.75 245.02 159.89 250.35 160.04 C 252.08 162.61 252.43 165.62 251.55 168.58 C 253.86 169.62 256.78 170.44 257.67 173.13 C 257.11 175.41 254.95 176.59 253.29 178.00 C 254.40 180.76 257.29 184.87 254.37 187.29 C 248.78 189.42 243.21 186.16 239.04 182.65 C 240.06 188.67 245.35 193.29 251.08 194.77 C 257.51 194.87 263.44 191.83 268.98 188.89 C 268.03 186.41 266.92 183.71 267.88 181.06 C 269.77 176.00 274.68 172.45 279.98 171.76 C 286.45 170.83 292.79 172.90 299.18 173.59 C 299.37 170.91 300.29 168.39 301.66 166.10 C 300.05 164.88 298.53 163.55 297.11 162.12 C 290.73 166.82 282.76 169.84 274.76 168.61 C 268.66 167.81 263.61 163.15 261.36 157.57 C 263.27 157.50 265.19 157.47 267.11 157.45 C 269.57 160.50 272.84 163.15 276.81 163.81 C 283.19 164.03 289.28 161.26 294.29 157.49 C 296.87 157.46 299.46 157.47 302.05 157.47 C 302.15 158.21 302.34 159.70 302.43 160.44 C 305.40 161.97 308.72 162.47 311.99 162.92 C 312.53 161.09 313.15 159.27 313.69 157.44 C 319.09 157.49 324.48 157.44 329.88 157.49 C 330.54 158.57 331.21 159.65 331.89 160.73 C 333.89 160.61 335.96 160.61 337.88 159.90 C 340.26 159.10 342.28 157.08 344.97 157.46 C 355.72 157.52 366.47 157.37 377.22 157.54 C 369.01 164.22 356.86 163.03 347.96 158.36 C 346.90 159.92 345.84 161.47 344.72 162.98 C 347.08 164.39 349.02 166.34 350.52 168.64 C 358.42 164.81 367.76 161.92 376.49 164.40 C 381.70 166.02 387.64 170.21 386.91 176.38 C 389.47 175.75 392.29 175.12 394.00 172.91 C 397.84 168.71 396.69 162.51 395.45 157.49 C 411.15 157.47 426.86 157.42 442.56 157.52 C 440.93 159.33 439.19 161.03 437.36 162.63 C 439.88 164.15 442.50 166.54 445.70 165.62 C 448.84 164.21 449.60 160.38 450.51 157.42 C 452.10 157.45 453.69 157.48 455.30 157.51 C 455.13 160.36 454.62 163.17 453.68 165.87 C 457.67 170.15 463.70 174.79 469.87 172.62 C 471.30 172.15 472.64 171.46 474.02 170.83 C 473.92 168.81 473.07 167.01 471.92 165.39 C 470.65 167.64 468.50 168.75 466.02 167.83 C 465.26 165.11 464.21 161.00 467.64 159.67 C 473.68 158.08 480.05 164.72 479.18 170.70 C 477.80 175.00 473.31 176.80 469.43 178.18 C 472.35 181.84 475.05 186.88 472.69 191.52 C 471.03 195.81 465.73 198.11 461.77 195.31 C 461.04 192.60 461.01 189.79 461.67 187.07 C 462.24 186.78 463.38 186.21 463.95 185.92 C 464.56 186.18 465.78 186.69 466.39 186.94 C 466.48 188.35 466.59 189.76 466.72 191.16 C 468.00 189.21 469.23 186.63 467.68 184.46 C 463.64 177.49 454.98 175.94 449.96 169.96 C 445.68 171.93 440.84 171.29 436.81 169.05 C 435.43 172.49 432.99 175.31 429.96 177.39 C 430.69 183.29 432.75 189.49 437.59 193.28 C 441.95 196.74 447.32 190.34 446.23 186.01 C 445.78 184.62 444.17 184.42 443.05 183.85 C 443.01 185.70 445.06 188.96 442.35 189.74 C 437.49 190.87 436.72 183.75 438.97 180.85 C 441.96 176.36 448.94 178.78 450.66 183.19 C 452.68 187.76 450.47 192.92 447.61 196.60 C 444.39 200.21 438.66 200.09 434.81 197.58 C 433.82 199.85 433.31 202.87 430.70 203.87 C 427.92 205.28 424.92 203.82 422.41 202.52 C 422.22 201.82 421.83 200.42 421.63 199.71 C 422.36 198.85 423.10 197.99 423.85 197.15 C 425.32 197.97 426.80 198.81 428.28 199.65 C 430.18 196.59 429.91 192.90 428.12 189.88 C 426.37 186.09 425.39 182.02 424.65 177.93 C 421.88 176.97 419.51 175.24 417.90 172.77 C 414.09 176.37 408.83 178.79 403.55 177.24 C 400.81 181.09 395.57 180.80 392.23 183.85 C 393.16 185.61 394.59 188.00 392.67 189.66 C 391.22 191.39 388.94 190.33 387.19 189.85 C 384.54 193.10 380.31 194.17 376.28 193.44 C 376.39 196.36 375.97 199.69 373.19 201.32 C 367.45 204.47 360.29 202.58 355.36 198.75 C 349.75 194.39 346.20 187.63 345.16 180.66 C 343.35 180.85 341.55 181.04 339.74 181.21 C 339.53 184.64 337.73 187.57 335.35 189.93 C 341.33 191.28 347.90 193.10 351.92 198.06 C 356.34 204.10 353.65 213.22 347.06 216.47 C 347.31 218.35 347.58 220.24 347.81 222.13 C 351.34 223.79 355.27 224.00 359.01 222.98 C 357.83 222.01 356.54 221.13 355.58 219.94 C 354.67 217.12 357.43 214.86 359.90 214.27 C 363.26 214.38 366.14 217.66 365.51 221.03 C 365.76 223.52 363.44 225.05 362.09 226.82 C 362.89 229.61 363.56 233.08 361.54 235.52 C 360.28 237.36 357.99 237.87 356.07 238.69 C 353.42 237.77 350.90 236.23 351.02 233.08 C 353.08 231.55 355.58 231.08 358.08 231.56 C 357.89 231.13 357.51 230.27 357.31 229.84 C 353.34 229.27 349.40 228.43 345.59 227.15 C 343.21 228.39 340.84 230.17 337.99 229.88 C 333.71 230.24 330.04 227.46 327.62 224.19 C 324.19 224.46 320.29 224.96 317.66 222.20 C 310.95 215.57 309.57 203.93 315.18 196.18 C 317.06 193.33 319.92 191.37 322.68 189.44 C 321.11 187.47 319.89 185.26 318.93 182.93 C 316.44 184.40 313.72 185.45 310.87 185.94 C 309.77 193.34 308.51 201.49 302.98 207.01 C 298.11 211.72 288.59 212.81 284.87 206.16 C 281.19 206.33 277.15 206.46 274.25 203.79 C 270.76 201.44 271.01 196.89 271.50 193.22 C 268.66 195.19 265.52 196.66 262.31 197.94 C 260.28 200.91 258.36 203.96 256.57 207.08 C 257.10 209.48 256.77 212.42 258.88 214.13 C 260.24 215.52 262.29 215.59 264.06 216.02 C 263.57 214.15 263.55 212.26 264.29 210.46 C 267.65 210.27 270.68 211.91 272.43 214.76 C 272.18 215.54 271.67 217.11 271.42 217.89 C 268.32 220.29 264.20 222.04 260.27 220.76 C 257.39 220.16 255.31 217.95 253.30 215.97 C 253.51 219.96 254.35 224.86 258.48 226.64 C 267.96 231.14 278.79 225.70 288.47 229.40 C 291.26 230.57 294.29 230.96 297.28 230.39 C 296.89 229.07 296.51 227.76 296.14 226.44 C 295.45 227.64 294.67 228.76 293.78 229.81 C 292.68 229.72 291.60 229.59 290.52 229.42 C 289.94 226.77 288.09 222.94 291.24 221.20 C 296.39 219.03 302.19 224.09 302.57 229.27 C 302.24 231.49 300.82 233.31 299.73 235.21 C 301.60 235.51 303.47 235.72 305.36 235.91 C 305.70 236.49 306.37 237.64 306.71 238.22 C 304.89 242.02 300.25 241.63 297.18 239.67 C 296.11 243.24 292.96 246.12 289.15 246.27 C 286.74 246.56 284.50 245.56 282.32 244.72 C 281.85 243.28 281.40 241.83 281.00 240.37 C 282.75 239.04 284.68 237.80 286.94 237.62 C 288.95 237.56 289.83 239.53 290.98 240.81 C 291.29 239.79 291.60 238.76 291.91 237.74 C 288.45 235.90 285.10 233.65 281.21 232.85 C 273.61 231.53 265.71 234.25 258.27 231.72 C 252.61 229.72 247.62 224.28 248.01 217.98 C 247.84 211.51 251.10 205.65 254.23 200.21 C 246.17 201.07 237.28 201.54 230.19 196.89 C 222.52 192.32 218.45 184.05 214.39 176.47 C 210.94 172.12 204.02 172.63 200.17 176.17 C 197.83 177.98 196.80 180.84 195.77 183.50 C 199.03 181.89 202.20 179.47 206.02 179.70 C 210.76 179.12 215.73 182.41 217.06 186.97 C 217.53 188.49 216.00 189.44 215.34 190.60 C 216.80 193.08 219.97 195.59 218.06 198.67 C 215.40 198.83 212.75 199.11 210.11 199.44 C 210.42 204.09 205.14 203.62 201.99 203.49 C 199.02 203.58 196.37 201.71 194.77 199.34 C 192.74 196.04 193.46 192.01 193.70 188.36 C 192.26 186.53 190.73 184.38 191.22 181.90 C 192.03 176.36 196.06 171.56 201.15 169.36 C 204.19 167.98 207.62 168.33 210.87 168.32 C 209.15 164.50 207.24 160.74 204.57 157.49 Z" />
<path fill="#ffffff" d=" M 487.97 157.49 C 492.84 157.71 497.93 156.68 502.60 158.51 C 514.55 162.59 527.80 162.60 539.77 158.57 C 544.22 156.82 549.06 157.60 553.71 157.52 C 552.40 158.42 551.09 159.31 549.80 160.22 C 551.14 160.59 552.48 161.00 553.88 161.20 C 556.28 160.91 557.97 158.92 559.75 157.47 C 561.80 157.47 563.86 157.50 565.92 157.55 C 563.56 160.83 560.91 164.33 556.91 165.64 C 553.88 166.71 550.64 166.04 547.68 165.10 C 546.15 169.64 542.04 173.57 536.95 172.96 C 532.00 173.49 528.05 170.01 524.99 166.60 C 512.11 167.16 499.02 164.23 487.97 157.49 Z" />
<path fill="#ffffff" d=" M 574.81 157.49 C 576.88 157.48 578.96 157.46 581.04 157.42 C 580.07 159.14 578.66 160.95 579.28 163.06 C 579.75 166.26 582.30 168.45 584.65 170.41 C 584.73 166.07 585.21 161.76 585.85 157.47 C 587.49 157.47 589.14 157.47 590.80 157.48 C 589.73 163.81 590.23 170.27 589.22 176.59 C 584.98 176.54 580.52 174.53 576.43 176.41 C 571.06 179.77 569.50 186.37 568.50 192.20 C 574.16 192.67 579.79 195.03 583.40 199.55 C 589.69 207.29 592.10 217.25 597.24 225.69 C 604.91 239.67 618.09 249.36 631.28 257.72 C 639.53 248.86 649.58 241.63 656.49 231.58 C 663.46 221.74 662.28 208.65 668.76 198.58 C 671.70 194.04 676.25 190.99 680.82 188.28 C 679.79 186.83 678.78 185.38 677.71 183.98 C 675.62 180.04 671.94 176.34 667.26 176.12 C 664.00 176.68 661.06 178.35 657.93 179.36 C 656.38 178.93 655.79 177.21 654.94 176.02 C 651.84 170.20 649.99 163.80 648.38 157.43 C 650.67 157.62 653.79 156.63 654.62 159.59 C 656.11 156.74 659.61 157.23 662.28 157.73 C 665.21 158.30 666.75 161.03 667.81 163.56 C 671.75 162.42 676.42 161.54 680.05 164.00 C 682.68 165.81 682.12 169.41 682.28 172.18 C 688.26 172.44 692.26 177.53 693.40 183.02 C 692.75 185.14 691.91 187.21 690.77 189.11 C 692.72 192.89 692.71 197.57 689.85 200.91 C 687.80 204.19 683.76 204.69 680.24 204.35 C 680.23 207.58 681.16 211.32 678.96 214.06 C 677.91 215.65 675.74 215.46 674.13 215.95 C 675.12 219.63 676.40 223.84 674.34 227.41 C 673.27 229.67 670.66 230.23 668.54 231.03 C 669.09 234.23 669.54 237.74 667.71 240.64 C 665.89 244.45 661.51 245.90 657.62 246.42 C 657.96 250.23 656.88 254.35 653.68 256.71 C 651.41 258.92 648.11 258.88 645.17 259.04 C 647.07 264.61 646.68 270.91 643.10 275.72 C 650.06 275.86 657.15 276.17 663.81 278.40 C 670.01 279.98 676.36 281.70 682.82 281.21 C 686.98 280.89 690.61 277.35 690.83 273.14 C 691.07 268.82 689.94 264.20 687.04 260.89 C 685.30 258.97 681.93 260.43 681.98 263.01 C 683.38 263.64 684.86 264.18 686.18 265.01 C 686.27 266.50 686.91 268.44 685.25 269.31 C 679.84 270.45 674.07 264.36 676.32 259.09 C 679.15 253.66 687.62 252.71 691.52 257.52 C 697.15 264.08 698.48 274.93 693.10 282.00 C 689.40 286.66 683.10 287.15 677.62 286.69 C 683.26 293.69 686.97 302.93 684.94 311.99 C 683.99 316.80 680.64 321.30 675.71 322.48 C 671.20 323.31 666.18 323.20 662.22 320.64 C 657.94 317.87 654.61 313.25 654.43 308.03 C 654.78 303.93 656.26 299.15 660.27 297.25 C 666.27 294.00 674.43 299.33 674.48 306.01 C 674.18 309.75 670.36 311.61 666.99 311.46 C 666.49 310.25 666.00 309.04 665.52 307.83 C 666.51 306.84 667.52 305.86 668.54 304.89 C 667.74 303.80 666.97 302.69 666.04 301.70 C 661.88 301.15 660.00 306.14 660.15 309.58 C 661.94 312.81 664.41 315.85 668.01 317.10 C 672.02 318.98 676.86 316.41 678.60 312.59 C 681.26 307.04 679.83 300.34 676.81 295.24 C 671.85 286.63 661.75 282.46 652.17 282.10 C 651.44 283.14 650.74 284.20 650.04 285.26 C 651.71 286.31 655.08 286.33 654.91 288.98 C 655.34 291.69 652.66 293.06 650.79 294.33 C 648.24 293.40 645.51 291.82 644.85 288.97 C 643.90 286.59 644.81 284.08 645.27 281.72 C 642.93 281.71 640.61 281.70 638.29 281.65 C 636.44 284.37 635.72 287.59 634.63 290.63 C 633.68 292.01 631.73 291.03 630.81 290.18 C 629.66 287.19 628.72 284.12 627.23 281.27 C 624.26 281.26 621.29 281.26 618.33 281.32 C 616.24 282.46 614.09 283.47 611.96 284.51 C 613.49 285.21 615.46 285.38 616.61 286.78 C 617.71 290.81 612.47 293.77 609.11 292.19 C 606.23 291.49 605.31 288.43 604.52 285.97 C 605.32 283.43 606.56 280.97 608.98 279.63 C 605.60 278.74 602.40 277.32 599.12 276.15 C 596.30 275.10 593.38 276.27 590.65 277.04 C 591.63 278.12 592.61 279.19 593.61 280.27 C 593.39 282.21 593.43 284.46 591.63 285.69 C 587.87 286.50 583.52 283.86 583.07 279.92 C 583.24 275.63 586.94 272.42 590.74 271.04 C 587.21 268.68 584.01 265.87 581.32 262.59 C 579.42 259.72 576.19 262.45 573.81 263.09 C 576.40 264.13 578.11 267.04 576.72 269.72 C 576.19 271.75 573.86 271.61 572.24 271.95 C 570.44 270.46 568.79 268.80 567.34 266.96 C 566.74 261.36 571.24 257.22 576.25 255.84 C 574.52 252.76 573.48 249.36 571.76 246.29 C 569.49 244.18 566.27 243.96 563.34 243.78 C 563.53 247.03 564.41 251.19 560.93 253.05 C 558.08 251.74 555.26 249.40 555.22 246.00 C 554.73 243.32 556.82 241.20 558.88 239.88 C 562.36 237.92 566.47 238.38 570.27 238.83 C 570.23 234.85 570.12 230.86 570.63 226.91 C 568.50 224.00 565.36 222.13 561.76 221.82 C 561.59 223.60 561.73 225.46 561.19 227.20 C 560.23 227.99 559.15 228.64 558.13 229.34 C 556.14 227.84 554.08 225.93 554.17 223.21 C 553.46 218.91 558.09 216.08 561.87 216.14 C 565.77 215.90 569.24 217.91 572.40 219.93 C 572.75 218.83 573.13 217.73 573.49 216.62 C 572.04 214.35 571.39 211.76 571.48 209.07 C 567.51 208.85 563.20 207.43 561.14 203.77 C 559.52 201.15 560.46 198.05 560.85 195.24 C 554.83 193.34 552.78 185.27 556.46 180.40 C 557.99 177.97 560.79 176.96 563.45 176.29 C 562.60 172.38 562.48 167.60 565.87 164.82 C 568.02 162.60 571.31 163.02 574.11 162.78 C 574.32 161.01 574.55 159.24 574.81 157.49 Z" />
<path fill="#ffffff" d=" M 593.66 157.45 C 595.45 157.46 597.25 157.47 599.07 157.49 C 596.90 165.83 596.02 174.45 596.16 183.05 C 596.32 185.25 593.75 185.71 592.24 186.39 C 589.20 185.41 586.21 184.07 583.00 183.82 C 580.83 183.67 580.10 186.09 578.99 187.49 C 584.60 189.91 590.23 193.08 593.72 198.26 C 597.88 204.28 599.25 211.67 602.87 217.97 C 608.72 228.27 618.04 235.92 627.31 243.03 C 628.33 239.23 628.68 235.30 628.57 231.37 C 624.91 230.68 621.04 230.25 617.93 228.01 C 609.85 222.53 605.70 213.08 603.47 203.88 C 601.25 195.66 601.98 187.01 603.43 178.73 C 604.43 171.56 606.05 164.50 607.89 157.50 C 609.58 157.48 611.27 157.47 612.98 157.47 C 613.34 158.60 613.75 159.73 614.19 160.84 C 614.26 160.00 614.40 158.31 614.47 157.47 C 616.11 157.47 617.76 157.47 619.41 157.47 C 619.43 157.97 619.47 158.97 619.49 159.47 C 619.99 158.96 621.00 157.95 621.50 157.44 C 624.11 157.46 626.72 157.47 629.34 157.48 C 633.06 173.97 644.45 187.49 648.05 204.01 C 649.12 209.91 649.14 216.49 645.72 221.68 C 643.11 226.09 638.47 228.71 633.88 230.65 C 634.01 234.38 634.04 238.14 633.48 241.85 C 641.71 234.52 649.90 226.51 654.18 216.13 C 656.97 209.92 656.49 202.70 659.86 196.70 C 662.10 192.64 665.71 189.60 669.43 186.94 C 664.77 183.12 659.08 187.60 653.86 187.08 C 650.18 185.46 649.67 180.96 648.10 177.72 C 645.03 171.23 642.52 164.50 640.59 157.58 C 642.24 157.51 643.89 157.45 645.55 157.39 C 648.32 165.89 651.37 174.39 655.83 182.17 C 660.46 181.42 665.21 179.93 669.91 180.97 C 673.04 182.05 675.72 185.70 675.20 188.95 C 672.77 191.64 669.11 192.96 666.91 195.93 C 661.91 201.49 661.38 209.25 659.34 216.12 C 657.18 224.26 652.17 231.37 646.07 237.07 C 641.02 241.99 636.08 247.34 630.00 250.93 C 620.06 244.95 611.49 236.79 603.77 228.16 C 597.71 221.57 594.92 212.90 591.19 204.95 C 588.44 199.18 583.14 195.07 577.39 192.56 C 576.15 191.89 574.60 191.51 573.84 190.23 C 573.67 186.22 575.36 181.84 579.05 179.88 C 582.83 177.89 587.22 179.02 591.17 179.80 C 590.96 172.27 592.17 164.80 593.66 157.45 Z" />
<path fill="#ffffff" d=" M 693.59 157.46 C 695.45 157.46 697.32 157.46 699.20 157.46 C 698.38 162.43 697.70 169.08 701.76 172.78 C 705.77 168.71 706.69 162.86 707.38 157.44 C 709.04 157.46 710.70 157.48 712.37 157.51 C 711.68 163.04 710.53 170.06 715.69 173.91 C 718.75 168.76 716.56 162.84 715.36 157.49 C 717.30 157.48 719.26 157.47 721.22 157.47 C 723.01 161.55 724.51 165.99 728.03 168.97 C 729.84 165.38 729.84 161.31 728.64 157.54 C 730.65 157.50 732.68 157.46 734.70 157.43 C 736.05 160.33 737.74 163.11 740.29 165.13 C 741.76 162.84 742.26 160.14 742.15 157.45 C 743.86 157.46 745.58 157.48 747.32 157.50 C 747.13 160.47 747.91 163.74 746.30 166.44 C 745.14 168.89 742.27 169.56 740.00 170.50 C 737.99 169.77 736.04 168.89 734.24 167.76 C 733.36 170.58 732.00 173.93 728.81 174.70 C 726.08 175.34 723.96 173.13 722.52 171.15 C 721.75 174.36 720.12 178.74 716.04 178.45 C 712.41 179.03 709.49 176.50 707.87 173.53 C 706.47 175.64 704.97 178.25 702.14 178.47 C 699.12 178.48 696.84 175.95 695.51 173.48 C 692.99 168.58 692.78 162.82 693.59 157.46 Z" />
<path fill="#ffffff" d=" M 147.50 157.47 C 149.46 157.46 151.42 157.47 153.39 157.46 C 150.76 163.15 150.19 169.96 153.31 175.58 C 154.39 178.20 157.04 179.45 159.30 180.86 C 160.66 177.83 161.37 174.55 162.78 171.55 C 166.59 165.55 173.70 162.96 180.18 160.98 C 182.12 160.02 183.60 162.18 183.80 163.86 C 185.23 170.48 184.10 177.74 180.41 183.47 C 178.12 186.99 174.35 189.97 169.96 189.81 C 165.56 190.00 162.20 186.67 158.08 185.74 C 151.44 184.19 147.46 177.53 146.65 171.15 C 146.30 166.58 146.39 161.94 147.50 157.47 Z" />
<path fill="#ffffff" d=" M 772.08 157.48 C 774.05 157.49 776.04 157.50 778.03 157.57 C 779.93 158.90 784.02 161.01 784.64 157.43 C 786.36 157.47 788.08 157.50 789.81 157.54 C 789.28 159.28 788.77 161.02 788.23 162.76 C 789.93 165.55 791.37 168.81 790.18 172.10 C 788.58 174.25 785.88 174.79 783.38 174.95 C 782.46 179.66 781.13 185.22 776.24 187.32 C 767.20 190.88 756.16 185.71 751.76 177.35 C 748.73 171.98 751.51 164.14 757.71 162.71 C 763.08 161.32 771.49 164.24 770.55 170.96 C 770.71 176.67 762.99 177.85 759.42 174.57 C 757.52 173.39 759.17 171.23 760.25 170.14 C 761.94 170.34 763.57 170.83 765.23 171.23 C 765.03 170.58 764.65 169.30 764.46 168.65 C 762.61 167.87 760.54 166.24 758.62 167.80 C 754.49 169.94 755.68 175.62 758.64 178.28 C 762.67 183.56 771.83 186.08 776.45 180.26 C 780.79 172.78 776.74 163.79 772.08 157.48 Z" />
<path fill="#ffffff" d=" M 802.16 157.53 C 803.83 157.50 805.52 157.47 807.22 157.45 C 809.61 162.07 813.15 167.13 818.80 167.66 C 825.31 168.36 830.30 162.93 832.72 157.46 C 834.50 157.47 836.29 157.49 838.10 157.52 C 836.81 160.11 835.24 162.56 834.08 165.21 C 834.28 167.07 835.86 168.36 836.81 169.87 C 837.20 167.39 839.14 163.05 842.32 164.66 C 846.68 166.92 842.60 172.16 839.92 174.11 C 835.76 175.41 831.66 173.01 829.72 169.36 C 826.58 171.79 822.72 172.78 818.87 173.37 C 819.48 174.88 820.09 176.39 820.72 177.90 C 823.15 176.84 825.73 176.03 828.02 177.87 C 827.68 180.76 828.06 184.52 825.11 186.21 C 822.81 187.38 820.39 185.89 818.83 184.21 C 815.62 181.05 814.33 176.59 813.56 172.28 C 810.19 170.58 807.39 168.02 805.23 164.94 C 804.24 165.81 803.27 166.70 802.33 167.62 C 803.41 168.34 804.49 169.07 805.58 169.80 C 805.54 171.66 805.51 173.51 805.47 175.37 C 798.41 177.99 795.21 166.75 799.36 162.43 C 800.42 161.45 801.73 160.81 802.97 160.08 C 802.77 159.44 802.36 158.17 802.16 157.53 Z" />
<path fill="#ffffff" d=" M 883.96 160.91 C 892.11 160.90 899.75 157.09 907.91 157.48 C 910.49 157.41 912.35 159.29 913.99 161.02 C 916.32 158.54 919.22 156.65 922.79 157.43 C 922.92 160.82 920.03 162.81 918.01 165.06 C 919.51 166.66 921.37 168.04 922.27 170.10 C 923.86 178.92 919.11 187.23 919.35 196.00 C 919.13 197.79 919.91 200.11 918.08 201.27 C 913.86 201.15 911.70 196.75 909.18 193.96 C 906.57 195.46 903.89 196.82 901.15 198.05 C 901.80 201.13 902.09 204.27 902.12 207.42 C 907.71 208.33 914.07 209.52 917.69 214.36 C 920.62 219.10 918.02 227.05 912.11 227.87 C 908.51 228.44 905.15 226.68 902.10 225.03 C 902.91 228.87 904.01 233.68 900.65 236.65 C 896.97 239.45 890.39 239.47 887.78 235.17 C 886.45 233.31 885.86 231.08 885.15 228.95 C 883.53 232.10 881.98 236.21 878.11 237.06 C 874.76 237.95 871.66 235.71 869.99 232.99 C 868.08 230.18 868.17 226.64 867.75 223.41 C 864.28 227.41 858.98 230.19 853.63 228.38 C 852.03 229.96 850.47 231.56 848.92 233.19 C 855.75 239.47 855.82 249.88 853.21 258.14 C 851.97 260.97 850.71 264.42 847.88 265.94 C 841.69 265.52 837.95 259.03 837.63 253.35 C 832.62 257.12 826.31 258.42 821.25 262.05 C 821.44 265.30 823.49 267.93 826.71 268.64 C 828.39 268.21 830.18 267.14 831.97 267.91 C 833.41 268.80 834.02 271.20 832.22 272.08 C 826.93 275.24 819.89 272.62 816.93 267.48 C 813.90 272.33 810.97 277.85 811.53 283.75 C 812.02 286.46 813.19 289.92 816.26 290.58 C 818.44 291.23 820.37 289.54 822.28 288.74 C 820.96 288.32 819.68 287.84 818.43 287.32 C 817.68 284.11 820.03 281.13 823.09 280.35 C 824.64 281.85 826.13 283.41 827.55 285.04 C 827.41 287.39 827.42 289.94 825.87 291.88 C 822.16 296.86 813.55 297.46 809.65 292.39 C 806.18 288.01 806.32 282.01 806.83 276.74 C 800.75 283.07 799.38 292.13 799.39 300.55 C 797.67 300.77 795.96 300.67 794.55 299.59 C 794.44 294.74 794.62 289.85 796.15 285.20 C 791.74 289.24 785.68 292.12 779.62 290.32 C 779.61 289.37 779.58 287.45 779.56 286.49 C 782.60 285.81 785.84 285.63 788.64 284.14 C 792.60 282.10 795.54 278.66 798.98 275.91 C 796.37 275.80 793.54 276.16 791.20 274.78 C 784.57 271.12 782.25 261.24 787.19 255.31 C 790.01 252.40 794.61 250.34 798.60 251.87 C 803.07 254.25 802.90 261.47 798.93 264.19 C 796.19 265.39 793.90 263.35 792.41 261.30 C 792.73 260.59 793.38 259.16 793.71 258.44 C 794.95 258.29 796.21 258.15 797.48 258.00 C 795.82 256.65 793.45 256.01 791.77 257.73 C 787.74 261.84 790.48 271.77 797.10 270.81 C 803.81 270.41 808.79 265.28 813.16 260.70 C 810.22 259.20 806.85 258.04 804.89 255.22 C 802.11 251.96 802.18 247.15 803.57 243.32 C 804.10 241.21 806.87 242.56 808.39 242.12 C 808.43 245.37 807.13 248.91 809.01 251.89 C 810.46 254.64 813.85 255.31 816.69 255.55 C 816.58 249.14 819.77 243.41 823.65 238.55 C 818.59 237.18 812.42 234.82 811.17 229.07 C 810.50 227.01 812.72 225.97 814.15 225.13 C 819.96 221.61 827.15 220.66 833.72 222.32 C 838.22 223.76 842.01 226.69 845.75 229.49 C 847.18 228.01 848.63 226.53 850.07 225.04 C 848.29 220.07 850.86 215.23 854.14 211.61 C 850.62 211.67 846.58 212.82 843.55 210.44 C 840.88 208.73 840.76 205.15 841.22 202.35 C 842.38 198.99 845.27 196.72 847.76 194.35 C 840.49 193.66 837.26 184.07 841.53 178.62 C 844.25 175.93 848.35 176.17 851.88 176.06 C 850.37 173.24 848.35 169.99 849.68 166.69 C 851.15 162.70 855.30 160.71 859.09 159.49 C 867.03 160.95 870.06 169.45 871.28 176.44 C 874.81 175.30 878.59 175.42 882.11 176.54 C 883.31 174.55 884.62 172.63 886.00 170.76 C 883.00 168.74 880.38 166.21 878.46 163.14 C 878.89 162.50 879.74 161.23 880.17 160.59 C 881.42 160.69 882.69 160.79 883.96 160.91 Z" />
<path fill="#ffffff" d=" M 487.89 178.92 C 494.19 168.49 509.97 166.01 519.39 173.63 C 527.70 180.36 532.07 192.35 528.52 202.68 C 526.74 207.88 522.31 211.70 517.44 213.96 C 521.17 206.27 524.10 196.84 520.15 188.67 C 517.36 182.35 509.27 180.16 503.10 182.29 C 498.46 184.07 495.88 189.14 496.05 193.95 C 495.38 201.64 499.19 208.71 503.21 214.97 C 498.57 214.69 494.51 211.89 491.45 208.57 C 484.36 200.72 482.19 188.14 487.89 178.92 Z" />
<path fill="#ffffff" d=" M 733.69 182.69 C 735.01 180.69 737.93 180.74 739.14 182.83 C 739.71 185.26 737.73 186.91 736.36 188.58 C 733.11 192.19 729.84 195.79 726.86 199.62 C 732.98 196.94 738.60 193.22 744.81 190.74 C 747.55 189.31 750.29 194.11 747.61 195.43 C 739.89 199.71 731.92 203.50 724.17 207.71 C 731.15 208.23 738.03 206.59 744.88 205.45 C 746.40 205.20 748.19 204.91 749.27 206.35 C 749.56 207.60 749.67 208.87 749.61 210.17 C 739.69 212.47 729.54 213.63 719.39 214.08 C 718.35 219.30 717.58 224.58 717.36 229.91 C 716.83 250.04 712.36 269.85 711.74 289.97 C 711.44 295.06 714.42 299.45 716.48 303.88 C 721.09 312.11 725.24 320.66 730.35 328.59 C 740.97 330.16 751.65 331.74 761.96 334.91 C 759.67 326.22 757.34 317.48 753.75 309.24 C 752.38 305.73 748.72 302.98 749.18 298.92 C 750.16 293.13 755.07 289.10 756.51 283.47 C 762.93 261.65 769.76 239.95 776.39 218.19 C 775.46 216.90 774.05 215.56 774.69 213.81 C 775.84 212.26 777.28 210.95 778.65 209.60 C 786.88 201.74 793.24 192.22 800.95 183.88 C 801.76 183.87 803.39 183.85 804.20 183.84 C 804.69 184.78 805.18 185.74 805.69 186.69 C 801.75 192.34 796.94 197.31 792.65 202.69 C 798.32 199.72 803.87 196.52 809.55 193.58 C 811.05 192.71 812.81 193.27 814.45 193.34 C 814.63 194.60 814.80 195.86 814.97 197.12 C 806.93 201.75 798.52 205.73 790.67 210.70 C 799.01 210.64 807.05 208.18 815.30 207.34 C 815.72 208.98 817.66 211.25 815.43 212.38 C 805.26 215.53 794.50 216.01 783.98 217.24 C 777.25 239.85 770.97 262.58 763.96 285.09 C 763.03 288.38 761.80 291.67 761.82 295.12 C 762.22 298.20 763.74 300.97 764.98 303.78 C 771.10 316.40 777.00 329.12 783.17 341.71 C 783.86 343.65 785.56 344.81 787.32 345.72 C 794.38 349.59 800.74 354.58 806.71 359.95 C 808.95 356.60 812.46 354.38 816.43 353.74 C 813.55 346.61 818.32 340.12 820.73 333.72 C 818.50 333.63 816.28 333.63 814.07 333.75 C 814.48 336.67 812.42 338.27 810.12 339.49 C 808.88 338.69 807.62 337.94 806.51 337.00 C 806.69 328.10 819.30 325.68 825.21 330.74 C 826.86 327.73 828.58 324.58 828.66 321.06 C 828.80 317.25 829.04 312.83 832.33 310.30 C 834.58 308.58 836.37 306.38 837.37 303.70 C 835.17 303.44 832.98 303.68 830.96 304.58 C 830.91 305.41 830.81 307.06 830.77 307.89 C 830.24 309.76 828.11 309.33 826.66 309.46 C 826.09 307.43 824.87 305.19 825.96 303.12 C 828.83 297.22 838.65 296.28 842.05 302.19 C 843.39 300.36 845.30 297.97 847.85 299.40 C 850.07 302.32 846.23 304.99 844.93 307.42 C 845.62 308.42 846.29 309.42 847.00 310.42 C 847.16 313.71 846.82 317.91 843.23 319.27 C 840.88 320.81 838.38 319.18 836.30 318.03 C 835.96 316.71 835.63 315.40 835.29 314.10 C 832.79 320.78 835.16 329.20 829.71 334.66 C 825.60 338.81 821.89 343.93 821.45 349.94 C 821.29 354.23 824.53 357.61 828.26 359.22 C 828.26 358.59 828.28 357.33 828.29 356.70 C 831.29 352.87 836.37 351.46 841.05 351.44 C 850.38 352.15 858.35 358.11 864.65 364.63 C 866.72 362.82 869.33 361.95 871.94 361.24 C 871.38 359.46 870.85 357.67 870.35 355.89 C 861.84 356.54 852.41 355.20 846.19 348.80 C 842.44 345.11 841.08 339.07 843.31 334.26 C 844.38 331.79 847.24 331.26 849.52 330.44 C 849.23 326.00 851.38 321.19 855.81 319.67 C 859.30 318.03 863.16 319.15 866.62 320.30 C 868.03 318.87 869.27 317.07 871.29 316.46 C 876.99 314.50 883.33 318.09 886.08 323.15 C 889.95 330.26 890.61 339.34 886.57 346.54 C 887.97 347.97 889.36 349.42 890.72 350.92 C 892.28 348.90 894.32 347.35 896.62 346.27 C 894.62 341.11 893.37 335.37 895.06 329.94 C 896.06 325.35 899.27 321.76 902.68 318.73 C 906.12 315.84 904.70 309.09 899.98 308.62 C 898.79 308.63 897.02 307.49 896.33 308.91 C 896.34 310.57 896.53 312.22 896.67 313.88 C 895.21 314.96 893.87 316.75 891.82 316.34 C 888.14 315.82 886.07 311.38 887.69 308.13 C 888.35 305.50 891.14 304.68 893.27 303.57 C 893.29 300.61 893.91 297.32 896.43 295.43 C 899.60 292.54 905.25 292.69 907.61 296.53 C 907.57 297.46 907.50 299.31 907.47 300.24 C 906.24 300.74 904.98 301.14 903.71 301.44 C 902.55 300.63 901.51 299.67 900.46 298.76 C 899.71 299.82 898.99 300.89 898.28 301.96 C 901.88 303.67 906.52 304.68 908.44 308.56 C 909.77 310.68 909.75 313.22 909.86 315.64 C 913.58 315.82 917.20 317.10 919.46 320.22 C 920.22 319.90 921.74 319.25 922.50 318.93 C 922.49 320.65 922.47 322.37 922.47 324.09 C 920.68 326.23 919.18 328.58 917.47 330.77 C 916.68 330.43 915.10 329.75 914.31 329.41 C 914.43 327.56 914.71 325.73 915.16 323.93 C 914.94 323.37 914.48 322.25 914.26 321.68 C 913.64 321.45 912.40 320.97 911.77 320.73 C 906.28 321.55 901.58 325.59 900.21 331.00 C 898.49 335.50 899.97 340.31 901.61 344.59 C 901.91 340.90 902.43 337.21 903.84 333.76 C 904.63 333.70 906.22 333.58 907.01 333.52 C 907.39 334.14 908.15 335.40 908.53 336.02 C 907.93 338.03 907.36 340.04 906.80 342.06 C 910.19 339.47 913.47 336.73 916.37 333.59 C 917.06 333.59 918.45 333.60 919.15 333.60 C 919.50 334.72 919.85 335.85 920.22 336.98 C 918.37 338.93 916.48 340.84 914.53 342.68 C 916.00 342.49 917.49 342.32 918.99 342.16 C 919.53 343.39 920.07 344.62 920.61 345.85 C 921.08 345.57 922.02 345.02 922.49 344.74 C 922.49 346.83 922.50 348.94 922.52 351.04 C 918.44 352.73 914.05 353.23 909.68 353.42 C 909.12 355.99 908.38 358.52 907.25 360.90 C 910.29 360.66 913.36 360.98 916.10 362.42 C 917.92 359.87 920.02 357.52 922.43 355.51 C 922.49 357.91 922.50 360.33 922.51 362.75 C 921.49 364.11 920.50 365.48 919.53 366.88 C 920.27 366.63 921.76 366.12 922.50 365.87 C 922.49 368.44 922.49 371.00 922.53 373.57 L 921.20 373.17 C 923.06 376.45 922.46 380.30 922.46 383.91 C 920.33 381.74 918.39 379.38 916.72 376.85 C 914.98 377.82 913.14 378.59 911.27 379.25 C 911.56 381.98 911.46 384.73 911.27 387.47 C 914.98 387.98 918.68 388.61 922.37 389.33 C 922.46 391.01 922.52 392.70 922.62 394.39 C 917.63 393.35 912.57 392.39 907.45 392.38 C 911.35 393.98 915.56 394.85 919.25 396.95 C 919.61 398.56 918.66 399.95 917.93 401.28 C 915.32 400.68 912.78 399.83 910.23 399.07 C 912.07 401.03 914.33 402.49 916.94 403.23 C 918.67 403.52 918.22 405.63 918.61 406.88 C 917.95 407.27 916.63 408.07 915.97 408.46 C 912.09 407.55 908.58 405.48 906.07 402.38 C 905.51 404.05 905.23 405.91 904.04 407.29 C 902.40 407.76 901.05 407.00 900.19 405.65 C 900.15 402.27 901.72 399.16 902.67 395.98 C 902.25 395.58 901.40 394.79 900.98 394.39 C 899.91 400.77 897.21 407.65 900.04 413.93 C 901.48 417.41 905.15 418.97 908.66 419.44 C 909.05 418.88 909.82 417.76 910.20 417.19 C 909.59 414.94 909.81 412.67 910.72 410.54 C 911.66 410.52 913.54 410.49 914.49 410.48 C 915.27 413.26 914.91 416.74 917.33 418.79 C 918.72 420.25 920.86 419.29 922.55 419.04 C 922.51 420.92 922.49 422.80 922.48 424.69 C 919.16 424.88 915.88 424.24 913.13 422.32 C 909.88 425.37 904.72 425.41 901.12 422.96 C 897.24 420.69 894.90 416.47 894.23 412.11 C 893.16 406.30 894.25 400.38 895.75 394.76 C 893.23 393.27 891.06 391.29 889.20 389.06 C 887.43 390.84 885.48 392.42 883.32 393.69 C 888.15 399.80 890.22 408.44 886.88 415.72 C 884.35 420.83 880.06 425.83 874.15 426.78 C 871.38 427.39 868.93 425.79 866.65 424.50 C 863.24 426.35 859.20 428.33 855.32 426.67 C 852.38 425.92 850.53 423.44 848.89 421.09 C 846.98 420.95 845.08 420.82 843.20 420.67 C 845.41 428.62 846.89 436.77 847.79 444.98 C 850.97 443.40 854.45 442.38 858.04 442.75 C 865.13 442.78 871.38 448.35 873.24 455.01 C 874.13 460.06 872.10 465.86 867.52 468.47 C 861.10 471.64 852.20 465.27 853.88 458.07 C 855.02 455.65 857.88 453.48 860.67 454.39 C 862.18 455.27 861.74 457.24 862.13 458.71 C 861.25 459.25 860.39 459.81 859.54 460.37 C 859.90 461.05 860.62 462.40 860.98 463.08 C 861.47 463.29 862.44 463.72 862.92 463.93 C 863.53 463.75 864.75 463.39 865.36 463.21 C 866.65 461.00 868.51 458.50 867.45 455.81 C 865.84 451.30 861.41 448.69 856.98 447.58 C 852.15 448.51 847.88 452.77 848.29 457.92 C 847.40 465.76 851.83 473.44 858.18 477.79 C 863.45 481.44 869.85 482.95 876.15 483.53 C 876.84 482.23 877.52 480.93 878.20 479.62 C 876.55 479.12 874.54 479.17 873.39 477.72 C 873.01 475.38 873.88 472.64 876.17 471.60 C 879.74 470.73 883.07 474.02 883.52 477.41 C 884.14 479.53 883.27 481.69 882.97 483.80 C 885.31 483.77 887.66 483.75 890.01 483.72 C 891.68 480.67 892.71 477.36 893.59 474.02 C 894.75 474.27 896.05 474.21 897.14 474.82 C 898.51 477.77 899.54 480.87 901.01 483.78 C 904.52 483.52 908.42 484.60 911.62 482.70 C 913.14 481.91 914.66 481.09 916.20 480.31 C 914.61 479.72 913.05 479.12 911.52 478.43 C 911.54 477.61 911.57 475.95 911.59 475.12 C 914.39 471.54 919.67 471.58 922.52 475.09 C 922.50 477.50 922.50 479.91 922.51 482.32 C 921.43 483.25 920.37 484.18 919.29 485.10 C 920.06 485.37 921.60 485.91 922.37 486.18 C 922.57 488.14 922.50 490.12 922.53 492.10 C 916.92 490.20 911.05 489.33 905.15 489.15 C 908.18 493.60 911.59 498.21 911.82 503.81 C 915.36 502.77 919.09 502.69 922.53 504.22 C 922.47 511.72 922.54 519.22 922.50 526.73 C 915.07 519.09 906.32 512.84 897.19 507.43 C 887.93 518.32 874.91 526.46 869.15 540.03 C 865.69 549.40 865.65 560.15 859.58 568.46 C 856.83 572.26 852.91 574.97 848.82 577.15 C 851.41 582.29 854.85 588.05 860.92 589.37 C 864.88 589.65 868.26 587.00 872.01 586.09 C 873.62 587.18 874.51 588.98 875.39 590.67 C 881.58 603.48 884.36 617.83 883.83 632.03 C 884.17 643.17 881.10 653.98 878.06 664.57 C 884.49 652.44 886.64 638.58 887.03 624.99 C 886.76 616.74 884.95 608.57 881.85 600.93 C 879.44 595.07 877.30 589.03 873.94 583.63 C 868.81 583.68 863.56 586.00 858.45 584.23 C 855.47 582.85 854.24 579.37 854.09 576.29 C 858.56 573.54 862.98 570.14 865.37 565.34 C 867.91 559.62 868.41 553.28 870.31 547.36 C 875.01 533.12 887.29 523.50 898.13 513.95 C 907.33 519.01 915.07 526.36 922.53 533.66 C 922.50 536.24 922.48 538.82 922.49 541.42 C 916.62 533.81 909.06 527.78 901.47 522.00 C 900.31 525.92 900.10 530.02 900.22 534.09 C 910.67 533.52 918.60 542.20 922.34 551.08 C 922.74 565.05 922.39 579.05 922.51 593.02 C 922.36 598.39 923.10 603.90 921.47 609.12 C 916.89 625.28 909.81 641.15 898.25 653.56 C 897.33 653.53 895.49 653.48 894.57 653.45 C 894.48 651.96 893.96 650.29 895.17 649.11 C 900.81 642.07 901.76 632.71 902.01 624.03 C 901.56 616.33 901.24 608.49 898.63 601.16 C 893.64 587.35 884.24 575.40 881.06 560.90 C 879.92 554.88 880.07 548.10 883.81 542.95 C 886.21 538.93 890.40 536.45 894.70 534.89 C 894.65 531.21 894.75 527.53 895.24 523.88 C 891.80 526.15 889.03 529.24 886.23 532.22 C 880.98 537.97 876.21 544.45 874.00 552.01 C 872.40 557.02 872.32 562.42 870.27 567.30 C 868.07 572.19 863.78 575.60 859.83 579.04 C 864.90 582.19 870.24 577.87 875.49 578.30 C 879.55 580.03 880.14 585.11 881.95 588.67 C 887.71 600.24 891.56 612.90 891.82 625.89 C 892.06 644.15 887.33 663.44 874.80 677.25 C 895.05 666.64 912.03 649.84 922.56 629.52 C 922.47 633.16 922.50 636.80 922.51 640.44 C 918.15 647.21 912.98 653.38 907.70 659.42 C 913.24 655.16 918.00 650.00 922.50 644.66 C 922.49 647.36 922.49 650.08 922.47 652.79 C 921.25 654.12 920.06 655.48 918.89 656.86 C 920.08 657.10 921.28 657.35 922.49 657.60 C 922.51 662.32 922.50 667.03 922.50 671.75 C 920.94 673.40 919.45 675.29 917.29 676.16 C 914.79 677.29 912.06 676.47 909.51 676.09 C 909.16 678.72 908.70 681.71 906.48 683.47 C 903.12 685.97 898.60 686.15 894.76 684.81 C 891.73 690.37 884.08 691.03 879.26 687.48 C 875.55 694.01 866.05 694.46 860.86 689.48 C 860.41 689.94 859.51 690.86 859.06 691.31 C 856.10 692.18 852.94 693.38 849.89 692.16 C 847.04 691.48 845.22 689.02 843.58 686.81 C 841.76 687.04 839.94 687.24 838.13 687.43 C 838.61 690.19 838.85 693.15 840.34 695.61 C 841.82 696.99 843.61 697.97 845.31 699.07 C 846.05 697.59 846.93 694.98 849.12 695.63 C 852.22 695.85 853.42 700.20 851.30 702.28 C 849.45 704.54 846.31 704.48 843.67 704.69 C 843.99 705.37 844.62 706.73 844.93 707.41 C 847.70 708.64 850.57 709.72 853.60 710.16 C 853.66 709.39 853.79 707.86 853.85 707.09 C 854.62 706.24 855.40 705.39 856.20 704.56 C 856.99 704.52 858.56 704.46 859.34 704.43 C 861.97 707.26 861.43 711.98 858.33 714.24 C 855.93 716.11 852.76 715.56 849.95 715.47 C 851.96 718.23 854.06 720.93 856.25 723.56 C 857.80 723.78 859.35 724.00 860.93 724.23 C 861.09 722.70 861.16 721.17 861.54 719.69 C 864.07 717.01 869.15 719.30 868.82 722.96 C 869.67 726.74 866.10 729.19 862.90 729.95 C 869.19 735.71 876.55 740.32 884.33 743.80 C 888.12 745.14 892.43 746.94 896.41 745.28 C 899.10 744.19 899.71 741.17 900.58 738.73 C 899.47 737.43 898.47 736.00 897.08 735.01 C 895.03 733.99 892.70 733.97 890.48 733.72 C 892.32 735.90 895.58 738.82 892.28 741.41 C 887.37 741.75 881.97 734.49 886.41 730.54 C 890.59 727.47 896.92 727.91 901.12 730.78 C 906.72 734.69 907.03 743.50 902.28 748.22 C 898.62 752.43 892.49 752.43 887.47 751.32 C 883.10 750.11 878.96 748.20 875.05 745.94 C 877.24 751.82 878.79 758.58 876.55 764.66 C 874.86 769.30 869.47 770.88 864.97 770.56 C 859.72 771.11 855.38 767.36 852.25 763.61 C 849.85 760.50 848.22 755.53 851.27 752.30 C 855.06 747.10 864.53 749.71 865.23 756.07 C 865.95 759.12 864.17 761.85 862.08 763.88 C 861.10 763.15 860.19 762.39 859.32 761.58 C 858.87 759.83 859.62 758.04 859.81 756.32 C 858.33 755.94 856.85 755.61 855.38 755.33 C 856.05 760.37 860.34 765.07 865.55 765.47 C 868.53 765.61 871.40 763.60 872.32 760.75 C 873.31 754.31 870.41 748.15 867.38 742.67 C 865.67 739.10 861.92 737.40 859.12 734.86 C 847.05 724.56 838.52 710.46 834.04 695.30 C 832.52 690.53 832.61 685.37 830.61 680.76 C 829.50 678.17 830.37 675.36 831.10 672.82 C 825.05 669.13 824.28 658.11 831.70 655.58 C 831.18 652.89 830.62 649.85 832.51 647.53 C 834.10 644.62 838.32 644.80 839.67 641.68 C 843.33 635.29 848.23 629.26 855.02 626.03 C 859.82 623.62 865.23 622.81 870.56 623.05 C 871.11 621.82 871.70 620.60 872.28 619.39 C 868.14 617.21 866.34 612.54 867.36 608.06 C 864.70 606.86 862.76 604.70 861.98 601.89 C 858.33 603.12 854.19 604.44 850.58 602.35 C 847.20 600.93 847.42 596.80 847.32 593.75 C 842.51 593.01 837.97 589.90 836.83 584.95 C 835.71 582.10 837.07 579.23 838.77 576.96 C 836.96 573.29 836.68 568.67 839.24 565.28 C 841.17 561.76 845.49 560.83 849.18 561.50 C 848.87 558.36 847.90 554.73 850.01 552.00 C 851.15 550.41 853.21 550.06 854.91 549.35 C 853.78 545.84 853.01 541.86 854.52 538.36 C 855.59 536.00 858.26 535.37 860.43 534.45 C 859.24 530.71 859.48 526.28 862.27 523.30 C 864.37 520.61 867.74 519.50 871.00 519.02 C 870.86 515.26 871.63 511.13 874.79 508.72 C 877.14 506.51 880.46 506.43 883.50 506.40 C 881.10 500.74 881.66 494.06 885.59 489.23 C 879.41 489.34 873.13 489.55 867.11 487.92 C 860.83 486.18 854.44 484.81 847.95 484.21 C 847.08 501.79 845.44 519.46 840.83 536.51 C 835.95 554.54 830.60 572.73 821.07 588.94 C 816.63 596.84 811.05 604.21 803.94 609.91 C 800.71 612.48 796.77 613.86 793.05 615.51 C 794.34 617.68 795.61 619.87 796.92 622.04 C 799.63 622.10 803.76 621.94 804.56 625.32 C 806.50 632.24 796.20 637.43 791.43 632.59 C 789.25 629.75 791.10 626.30 792.91 623.85 C 791.79 621.36 790.69 618.86 789.59 616.37 C 787.28 616.71 784.98 617.04 782.68 617.35 C 782.84 620.33 783.17 623.30 783.36 626.29 C 786.07 627.35 788.26 629.31 789.59 631.92 C 788.49 638.95 777.93 640.39 774.42 634.65 C 772.75 630.81 776.33 628.09 779.17 626.32 C 779.19 623.46 779.18 620.61 779.18 617.75 C 776.75 617.48 774.33 617.08 771.93 616.71 C 771.15 619.39 770.31 622.06 769.56 624.76 C 771.33 626.95 773.40 629.71 772.21 632.70 C 769.68 637.56 762.11 636.41 759.35 632.37 C 757.85 630.53 758.34 628.08 758.62 625.93 C 760.63 624.71 762.82 623.89 765.18 623.70 C 766.33 621.17 767.36 618.58 768.47 616.03 C 766.17 614.92 763.93 613.71 761.72 612.44 C 760.18 614.34 758.51 616.16 757.23 618.26 C 757.43 621.10 759.31 624.46 756.74 626.79 C 752.87 629.94 746.61 627.23 745.12 622.76 C 743.60 620.05 744.97 616.12 748.11 615.42 C 749.93 615.17 751.78 615.48 753.61 615.66 C 755.39 613.82 757.08 611.90 758.75 609.96 C 757.21 608.03 755.73 606.07 754.30 604.07 C 752.01 605.38 749.72 606.69 747.45 608.04 C 747.51 611.25 746.90 615.52 743.07 616.24 C 736.73 616.46 732.65 608.23 736.20 603.22 C 738.80 600.03 742.77 602.47 745.43 604.20 C 747.83 603.16 750.20 602.04 752.59 600.96 C 748.77 593.65 746.75 585.57 745.35 577.49 C 745.05 575.96 744.87 574.32 743.80 573.13 C 733.07 559.82 731.58 541.30 734.80 525.06 C 740.99 539.46 750.57 551.93 758.98 565.03 C 769.08 566.61 778.79 571.33 785.54 579.12 C 797.34 571.49 801.29 557.15 805.52 544.59 C 808.75 531.33 806.03 517.38 801.40 504.79 C 795.28 489.25 786.27 474.49 773.47 463.57 C 770.81 461.33 767.61 459.73 764.12 459.45 C 752.43 471.08 737.19 479.03 721.01 482.12 C 716.05 483.14 710.97 482.83 705.95 482.82 C 691.25 481.92 677.81 473.45 668.91 462.00 C 667.67 460.16 667.06 458.02 666.37 455.95 C 664.17 457.09 661.80 457.80 659.41 458.38 C 654.85 457.53 650.67 455.03 648.29 451.00 C 646.84 456.58 641.60 460.01 636.13 460.82 C 639.13 467.56 637.43 475.36 632.89 480.97 C 636.35 483.37 640.04 486.37 640.55 490.87 C 641.85 496.24 639.67 501.88 635.12 504.98 C 640.92 510.40 649.12 513.78 657.08 512.01 C 662.96 510.95 669.18 507.75 671.35 501.84 C 672.95 495.05 669.88 488.24 666.38 482.58 C 664.05 479.18 660.25 475.16 655.71 476.76 C 651.65 478.80 648.86 482.94 647.73 487.28 C 646.54 491.80 650.72 497.29 655.53 496.40 C 657.93 495.25 661.48 493.54 660.74 490.27 C 660.10 489.30 659.24 488.51 658.45 487.70 C 658.36 488.63 658.17 490.50 658.08 491.44 C 656.45 491.57 654.18 492.81 653.21 490.89 C 652.56 487.84 653.34 484.77 655.59 482.60 C 662.86 481.40 669.48 490.08 665.61 496.56 C 662.01 503.04 652.46 503.52 647.37 498.60 C 640.20 491.81 642.12 478.43 650.48 473.40 C 655.54 470.12 662.00 471.54 667.12 473.88 C 675.23 478.89 681.71 487.27 682.91 496.91 C 684.08 504.56 681.28 512.53 675.95 518.07 C 668.39 526.31 657.00 530.34 645.95 530.26 C 629.87 530.33 614.14 523.48 602.46 512.57 C 588.72 498.85 579.87 480.63 576.47 461.60 C 573.17 438.76 578.93 415.24 590.39 395.40 C 586.74 397.46 583.07 399.49 579.31 401.33 C 578.54 399.78 577.78 398.24 577.02 396.69 C 582.17 394.19 587.18 391.41 592.19 388.64 C 588.75 387.70 585.45 386.31 581.98 385.51 C 580.55 385.56 579.31 386.46 578.04 387.01 C 572.56 389.93 566.87 392.44 561.08 394.70 C 560.46 393.14 559.85 391.58 559.24 390.03 C 564.53 387.84 569.79 385.56 574.89 382.96 C 571.19 381.71 567.68 379.95 563.95 378.79 C 562.50 378.35 561.22 379.39 559.90 379.77 C 554.09 382.03 548.21 384.36 542.06 385.46 C 541.38 383.94 540.88 382.35 540.34 380.79 C 546.02 379.29 551.70 377.74 557.12 375.43 C 553.26 373.56 549.38 371.72 545.71 369.49 C 538.87 371.59 531.99 373.62 525.42 376.47 C 525.03 374.91 524.64 373.35 524.25 371.80 C 529.36 369.65 534.55 367.73 539.86 366.17 C 536.54 364.34 533.18 362.59 529.88 360.75 C 523.24 363.24 516.89 366.36 510.57 369.55 C 510.04 368.10 509.51 366.66 509.02 365.21 C 513.61 362.27 518.69 360.25 523.56 357.84 C 520.49 356.55 517.50 354.92 514.25 354.20 C 507.71 356.93 501.88 361.07 495.95 364.88 C 495.32 363.37 494.71 361.88 494.09 360.38 C 498.21 357.18 503.35 355.10 507.03 351.49 C 503.82 350.39 500.53 349.15 497.11 349.11 C 491.26 352.71 485.94 357.14 480.80 361.69 C 479.92 360.34 479.05 359.00 478.17 357.67 C 482.25 353.98 486.53 350.53 490.83 347.10 C 487.04 346.61 483.31 345.65 479.49 345.48 C 473.63 349.46 468.97 355.04 464.29 360.32 C 463.19 359.08 462.16 357.79 461.18 356.47 C 464.78 352.28 468.69 348.38 472.63 344.52 C 468.35 344.49 464.07 344.49 459.80 344.54 C 455.42 350.00 450.87 355.35 447.03 361.23 C 445.89 360.10 444.76 358.97 443.63 357.85 C 446.68 353.22 449.95 348.75 453.43 344.44 C 449.69 344.94 445.92 345.27 442.15 345.53 C 438.06 351.37 434.39 357.49 431.07 363.80 C 429.78 362.90 428.50 362.01 427.22 361.12 C 429.63 356.14 432.45 351.38 435.34 346.67 C 431.96 347.39 428.58 348.09 425.20 348.76 C 421.78 354.98 418.78 361.42 416.05 367.97 C 414.65 367.16 413.25 366.37 411.86 365.58 C 413.98 360.59 416.17 355.64 418.47 350.73 C 415.09 351.58 411.78 352.66 408.47 353.71 C 405.50 360.22 402.99 366.92 400.88 373.76 C 399.38 373.07 397.88 372.39 396.38 371.73 C 398.00 366.44 400.11 361.33 401.86 356.10 C 398.36 357.18 395.18 359.28 391.55 359.89 C 390.70 358.32 390.06 356.66 389.39 355.02 C 392.86 353.76 396.32 352.43 399.55 350.61 C 394.50 348.22 389.34 346.08 384.18 343.95 C 384.77 342.38 385.38 340.82 386.00 339.27 C 393.04 341.97 399.94 345.03 406.65 348.47 C 410.12 347.26 413.62 346.13 417.17 345.17 C 412.18 342.32 407.25 339.34 401.98 337.03 C 402.79 335.46 403.62 333.91 404.50 332.38 C 411.16 335.57 417.42 339.52 423.87 343.11 C 427.43 342.78 430.89 341.86 434.40 341.19 C 429.77 337.79 424.87 334.79 420.05 331.65 C 420.92 330.19 421.83 328.75 422.75 327.32 C 429.21 330.89 434.95 335.58 441.04 339.69 C 444.98 340.27 449.07 339.22 453.06 339.03 C 448.69 335.26 444.39 331.40 439.69 328.05 C 440.51 326.96 441.30 325.84 442.23 324.85 C 444.01 324.54 446.02 324.80 447.52 323.55 C 451.37 320.93 455.23 318.32 459.27 315.99 C 455.02 315.11 450.91 313.40 446.56 313.18 C 440.35 316.84 434.98 321.73 429.06 325.81 C 428.29 324.35 427.52 322.90 426.78 321.43 C 431.31 318.24 435.43 314.49 440.13 311.54 C 436.26 310.79 432.36 310.16 428.46 309.60 C 422.72 314.01 417.60 319.12 412.11 323.83 C 411.17 322.56 410.23 321.29 409.31 320.02 C 413.15 315.70 418.10 312.40 421.78 307.98 C 418.21 308.92 414.47 307.89 410.84 308.03 C 405.65 312.96 400.86 318.28 396.18 323.68 C 395.09 322.50 394.01 321.33 392.93 320.15 C 396.35 315.81 400.13 311.77 403.81 307.65 C 400.22 307.65 396.63 307.64 393.04 307.66 C 388.28 313.11 383.97 318.93 379.97 324.95 C 378.71 323.93 377.46 322.91 376.20 321.90 C 379.28 317.16 382.53 312.52 386.17 308.19 C 382.33 308.62 378.49 309.07 374.66 309.62 C 374.38 307.79 374.13 305.97 373.89 304.15 C 377.66 303.53 381.49 303.27 385.25 302.56 C 380.82 298.83 376.21 295.33 371.57 291.88 C 372.88 290.22 374.07 288.17 376.44 287.98 C 379.13 285.07 381.93 282.26 384.73 279.45 C 380.66 279.33 376.62 279.62 372.58 279.96 C 368.80 284.24 365.30 288.75 361.98 293.39 C 365.29 295.72 367.32 299.27 368.94 302.89 C 361.52 298.51 352.17 295.69 343.80 299.00 C 336.33 301.94 333.52 312.38 338.20 318.80 C 340.72 322.08 345.05 323.11 348.96 323.51 C 355.92 323.64 362.64 321.00 368.43 317.26 C 368.79 317.42 369.51 317.75 369.87 317.91 C 364.97 331.99 346.48 338.82 333.61 331.36 C 323.56 325.70 320.53 311.40 326.56 301.77 C 319.44 302.34 311.73 299.43 307.80 293.25 C 303.37 287.08 302.12 278.53 305.64 271.65 C 311.40 260.13 326.26 254.65 338.28 258.84 C 343.45 260.92 347.42 265.30 349.20 270.57 C 342.58 266.40 334.54 264.19 326.75 265.69 C 322.94 266.68 319.15 268.89 317.59 272.69 C 315.47 277.37 315.48 283.77 319.48 287.47 C 322.07 289.92 325.70 290.76 329.15 291.13 C 336.75 291.58 343.40 287.61 350.07 284.63 C 349.47 286.38 348.79 288.11 348.08 289.82 C 351.22 289.82 354.37 290.13 357.43 290.89 C 359.93 287.34 362.53 283.87 365.26 280.50 C 361.22 280.89 357.23 281.85 353.16 281.85 C 352.70 280.20 352.43 278.49 352.10 276.81 C 355.99 275.78 360.40 276.21 364.04 274.63 C 359.62 270.85 354.47 268.07 349.75 264.70 C 350.81 263.27 351.90 261.85 353.01 260.46 C 358.79 264.08 364.43 267.94 369.67 272.32 C 370.95 273.29 372.25 274.74 374.06 274.34 C 377.62 274.06 381.20 273.85 384.78 274.00 C 380.19 269.93 375.63 265.82 370.86 261.96 C 372.15 260.70 373.46 259.45 374.78 258.21 C 381.13 263.14 386.92 268.69 392.56 274.41 C 396.33 274.39 400.08 274.78 403.84 274.98 C 399.94 270.51 396.13 265.94 391.81 261.86 C 393.21 260.66 394.63 259.49 396.05 258.31 C 401.49 263.86 406.44 269.87 411.46 275.79 C 415.48 277.37 420.02 277.33 424.20 278.54 C 420.93 273.48 417.11 268.82 413.71 263.86 C 415.20 262.91 416.68 261.96 418.16 261.00 C 422.97 267.20 427.46 273.65 431.68 280.26 C 436.19 281.51 440.72 282.70 445.22 283.99 C 442.22 278.76 439.03 273.66 435.92 268.50 C 436.40 268.31 437.35 267.92 437.83 267.73 C 437.22 266.07 436.61 264.42 436.00 262.77 C 441.06 260.45 446.16 258.23 451.30 256.11 C 448.04 254.52 444.73 253.06 441.43 251.58 C 434.85 254.52 428.39 257.73 421.94 260.95 C 421.30 259.45 420.67 257.94 420.04 256.44 C 425.00 254.02 429.95 251.57 434.86 249.04 C 431.46 247.53 427.97 246.24 424.47 245.02 C 425.15 243.27 425.81 241.52 426.46 239.77 C 430.03 241.00 433.54 242.41 437.10 243.69 C 435.03 238.40 432.74 233.21 430.40 228.03 C 431.96 227.31 433.54 226.59 435.12 225.90 C 438.11 232.69 440.99 239.52 443.63 246.45 C 447.08 247.92 450.52 249.43 453.91 251.04 C 452.09 245.62 450.03 240.28 448.08 234.91 C 449.69 234.28 451.30 233.66 452.93 233.06 C 454.88 238.78 457.21 244.37 458.86 250.19 C 459.35 251.54 459.54 253.11 460.50 254.25 C 463.46 256.07 466.70 257.37 469.75 259.04 C 468.15 253.56 466.50 248.09 464.80 242.64 C 466.34 242.10 467.89 241.56 469.45 241.03 C 472.21 247.91 473.45 255.29 475.96 262.23 C 479.08 264.54 482.68 266.12 486.00 268.13 C 484.71 262.60 483.30 257.09 481.96 251.57 C 483.57 251.10 485.19 250.64 486.82 250.18 C 488.63 257.11 490.00 264.16 491.85 271.07 C 494.75 274.28 499.02 275.91 502.59 278.31 C 501.73 272.75 500.49 267.27 499.31 261.77 C 500.97 261.48 502.65 261.20 504.32 260.91 C 504.50 261.83 504.85 263.67 505.03 264.59 C 505.10 263.93 505.23 262.61 505.29 261.95 C 511.07 265.43 517.74 267.10 524.45 267.31 C 521.47 264.32 519.17 260.78 516.54 257.51 C 508.93 254.13 502.11 249.12 496.35 243.13 C 497.26 241.59 498.18 240.06 499.12 238.53 C 503.92 242.51 508.52 246.78 513.85 250.06 C 512.96 246.13 512.10 242.19 511.93 238.15 C 506.41 233.08 500.57 228.35 494.25 224.30 C 495.21 223.07 496.17 221.84 497.13 220.61 C 502.15 223.34 506.73 226.76 511.15 230.36 C 510.58 226.46 510.06 222.54 509.56 218.62 C 511.38 218.20 513.21 217.80 515.05 217.41 C 515.52 221.60 516.20 225.76 516.60 229.95 C 520.51 225.14 524.04 220.04 527.09 214.65 C 528.42 215.76 529.85 216.80 530.93 218.18 C 531.00 219.42 530.05 220.40 529.53 221.44 C 525.96 227.01 521.63 232.03 517.35 237.05 C 517.58 240.85 518.32 244.59 519.10 248.30 C 522.51 243.99 525.61 239.41 529.62 235.61 C 530.96 236.43 532.32 237.24 533.68 238.05 C 529.43 242.79 524.85 247.48 522.46 253.51 C 521.51 254.69 522.47 255.90 523.16 256.92 C 524.65 259.02 526.45 260.88 528.21 262.77 C 528.57 257.84 529.45 252.84 532.28 248.68 C 533.78 248.45 535.28 248.22 536.79 247.96 C 532.33 253.66 533.24 261.16 533.94 267.88 C 537.18 270.49 540.24 273.33 543.47 275.98 C 543.48 270.20 542.46 264.48 542.40 258.70 C 544.06 258.59 545.73 258.48 547.40 258.39 C 547.96 265.99 548.37 273.61 549.39 281.16 C 552.94 283.88 556.27 286.88 559.90 289.50 C 559.41 283.73 558.43 277.99 558.35 272.18 C 560.00 272.18 561.68 272.18 563.36 272.19 C 564.02 279.51 564.38 286.95 565.80 294.15 C 568.93 297.21 572.60 299.66 576.20 302.15 C 575.59 296.41 574.54 290.73 574.20 284.97 C 575.82 284.89 577.46 284.80 579.10 284.72 C 579.97 292.12 580.91 299.52 582.24 306.85 C 585.47 309.12 588.67 311.44 591.94 313.65 C 591.07 307.94 589.78 302.30 589.24 296.54 C 590.87 296.34 592.51 296.17 594.16 295.99 C 595.18 303.29 596.64 310.53 598.20 317.73 C 601.46 319.58 604.69 321.48 607.92 323.39 C 606.57 317.95 604.92 312.56 604.14 307.00 C 605.60 306.28 607.17 305.79 608.70 305.20 C 610.16 312.42 611.88 319.60 614.45 326.51 C 618.41 328.13 622.35 329.78 626.20 331.64 C 624.21 326.03 621.18 320.86 619.34 315.19 C 620.79 314.47 622.25 313.75 623.71 313.03 C 627.37 320.08 630.61 327.37 632.81 335.02 C 636.64 337.18 640.34 339.57 644.35 341.41 C 643.98 335.71 641.55 330.45 640.19 324.96 C 641.91 324.60 643.63 324.24 645.37 323.89 C 646.97 328.51 647.99 333.31 649.47 337.97 C 668.35 329.11 689.56 324.81 710.37 327.34 C 708.05 319.62 706.01 311.82 703.92 304.03 C 703.04 300.59 700.66 297.86 698.90 294.86 C 700.31 291.62 701.88 288.40 702.47 284.88 C 704.31 274.30 706.62 263.80 707.85 253.12 C 709.53 240.62 708.84 227.88 711.37 215.48 C 708.85 214.60 707.69 212.65 708.20 210.04 C 717.83 202.03 725.29 191.89 733.69 182.69 Z" />
<path fill="#ffffff" d=" M 505.24 190.94 C 510.40 190.55 512.74 195.87 513.82 200.05 C 515.40 205.30 513.38 210.71 510.54 215.12 C 507.21 212.99 504.26 210.01 502.83 206.27 C 501.38 201.17 501.30 194.98 505.24 190.94 Z" />
<path fill="#ffffff" d=" M 382.37 218.43 C 388.78 210.58 400.28 209.14 409.57 211.76 C 415.25 213.56 420.75 217.11 423.35 222.66 C 425.40 226.33 425.16 230.63 425.08 234.68 C 420.67 227.74 414.47 220.95 406.04 219.35 C 397.58 217.36 388.98 226.17 390.60 234.53 C 391.77 239.04 395.68 242.23 399.69 244.22 C 405.62 246.84 412.21 247.81 418.66 247.43 C 415.09 252.20 408.82 253.77 403.18 254.33 C 395.27 254.39 386.97 251.40 381.99 245.03 C 375.88 237.54 376.35 225.83 382.37 218.43 Z" />
<path fill="#ffffff" d=" M 401.30 230.50 C 409.80 227.57 420.06 232.79 422.27 241.65 C 417.23 243.12 411.46 244.02 406.61 241.48 C 403.79 239.92 400.78 238.02 399.65 234.82 C 399.32 233.26 399.55 231.10 401.30 230.50 Z" />
<path fill="#ffffff" d=" M 909.70 234.74 C 913.62 232.57 918.22 233.09 922.53 233.07 C 922.51 234.69 922.50 236.32 922.51 237.95 C 918.19 237.36 913.33 237.89 910.14 241.13 C 907.93 244.07 906.17 248.18 907.81 251.79 C 910.09 257.66 916.74 260.15 922.51 261.06 C 922.50 262.78 922.48 264.49 922.50 266.22 C 918.35 264.51 915.79 269.62 915.66 273.03 C 916.30 277.78 919.04 281.94 922.48 285.17 C 922.49 287.31 922.47 289.45 922.45 291.60 C 916.71 288.44 913.00 282.73 911.06 276.61 C 905.03 283.12 897.35 288.28 888.59 290.18 C 887.49 293.84 885.45 297.67 881.44 298.66 C 877.77 299.30 873.26 299.40 870.52 296.45 C 869.06 295.17 869.36 293.12 869.16 291.40 C 864.04 291.27 858.70 288.91 856.88 283.80 C 854.55 278.99 857.51 273.66 861.53 270.86 C 860.46 267.96 859.46 264.71 860.77 261.72 C 862.26 257.45 866.74 253.38 871.53 254.60 C 874.71 255.29 876.78 257.95 878.53 260.49 C 883.53 259.24 889.89 258.02 893.99 262.01 C 897.05 264.56 898.65 269.03 896.72 272.74 C 895.21 276.34 891.31 277.94 887.71 278.53 C 886.06 278.09 884.42 277.69 882.79 277.29 C 880.68 274.15 879.90 270.11 882.70 267.11 C 885.36 267.50 886.51 269.53 886.31 272.09 C 886.74 272.44 887.59 273.15 888.02 273.50 C 889.18 272.85 890.41 272.28 891.50 271.49 C 893.19 268.74 890.85 265.07 887.91 264.52 C 881.99 263.64 875.20 266.79 873.47 272.82 C 871.54 277.52 874.73 283.01 879.31 284.68 C 884.14 286.80 889.57 285.34 894.08 283.11 C 902.17 278.90 909.13 272.24 913.03 263.92 C 908.93 261.45 904.52 258.51 903.05 253.69 C 900.66 246.97 902.99 238.04 909.70 234.74 Z" />
<path fill="#ffffff" d=" M 913.43 251.89 C 911.66 246.35 917.15 241.46 922.48 241.89 C 922.48 243.48 922.49 245.07 922.50 246.66 C 920.16 247.21 918.13 248.55 918.27 251.17 C 919.69 251.60 921.12 252.02 922.57 252.43 C 922.51 254.25 922.46 256.08 922.42 257.91 C 918.92 257.07 914.25 256.05 913.43 251.89 Z" />
<path fill="#ffffff" d=" M 332.17 274.18 C 338.24 271.84 345.22 273.19 350.21 277.30 C 346.84 281.94 341.61 285.47 335.67 285.19 C 332.21 284.90 327.50 284.85 325.85 281.13 C 325.38 277.46 329.17 275.20 332.17 274.18 Z" />
<path fill="#ffffff" d=" M 345.35 312.96 C 345.83 308.68 350.40 306.81 354.05 305.89 C 359.63 304.26 365.57 306.19 369.92 309.82 C 366.68 313.83 362.31 317.32 356.94 317.54 C 352.84 317.72 347.09 317.43 345.35 312.96 Z" />
<path fill="#ffffff" d=" M 340.72 356.74 C 344.65 344.52 358.71 337.57 370.97 339.87 C 377.64 341.00 383.02 346.06 385.37 352.29 C 377.90 348.42 368.89 345.35 360.61 348.52 C 353.63 350.98 350.71 359.94 353.51 366.44 C 355.38 370.81 360.36 372.66 364.76 373.12 C 372.42 373.59 379.55 370.16 386.09 366.57 C 385.39 371.66 381.91 375.85 377.89 378.82 C 370.07 384.71 358.81 385.89 350.18 381.06 C 342.05 376.31 338.09 365.72 340.72 356.74 Z" />
<path fill="#ffffff" d=" M 363.76 358.89 C 370.21 353.61 380.03 353.84 386.32 359.30 C 382.98 364.37 377.10 367.74 370.96 367.31 C 367.86 367.02 364.23 366.45 362.29 363.75 C 362.10 362.04 362.08 359.88 363.76 358.89 Z" />
<path fill="#ffffff" d=" M 888.73 437.21 C 890.77 433.72 895.31 432.35 899.15 432.85 C 900.63 433.28 902.52 434.17 902.50 436.01 C 903.00 439.12 900.23 441.16 898.16 442.90 C 897.56 442.42 896.36 441.47 895.76 440.99 C 895.64 440.14 895.40 438.44 895.28 437.60 C 894.48 438.82 893.69 440.06 892.94 441.31 C 895.77 442.71 898.88 443.41 902.05 443.25 C 909.46 443.22 915.76 447.54 922.46 450.09 C 922.47 451.59 922.50 453.10 922.54 454.61 C 917.30 452.98 912.57 449.96 907.16 448.89 C 903.15 448.26 899.10 449.08 895.17 449.85 C 895.26 450.67 895.43 452.32 895.52 453.14 C 896.43 452.38 897.32 451.60 898.24 450.83 C 900.86 451.64 903.72 453.11 904.35 456.06 C 903.82 459.29 899.72 460.32 896.96 459.47 C 892.46 458.68 889.54 454.20 889.49 449.82 C 886.08 450.13 882.61 449.24 880.98 445.98 C 881.65 445.00 882.45 444.16 883.38 443.46 C 885.20 443.73 886.98 444.32 888.83 444.51 C 888.52 442.11 887.54 439.51 888.73 437.21 Z" />
<path fill="#ffffff" d=" M 881.91 761.96 C 884.40 758.59 888.29 755.44 892.76 756.24 C 897.20 756.82 899.65 761.37 900.41 765.37 C 901.40 771.70 899.47 777.96 898.65 784.20 C 900.27 789.54 907.20 787.82 910.57 785.27 C 909.28 784.37 906.05 784.25 906.56 782.02 C 906.92 777.78 912.80 778.80 915.09 780.92 C 917.63 784.24 915.51 789.29 912.11 791.14 C 908.22 793.82 903.27 793.58 898.79 793.15 C 890.60 791.76 882.58 786.57 879.50 778.62 C 877.23 773.15 878.32 766.60 881.91 761.96 Z" />
</svg>
