<?xml version="1.0" encoding="UTF-8" ?>
<!DOCTYPE svg PUBLIC "-//W3C//DTD SVG 1.1//EN" "http://www.w3.org/Graphics/SVG/1.1/DTD/svg11.dtd">
<svg width="682pt" height="682pt" viewBox="0 0 682 682" version="1.1" xmlns="http://www.w3.org/2000/svg">
<path fill="#ffffff" d=" M 0.00 0.00 L 681.93 0.00 C 668.88 12.93 655.95 25.98 642.93 38.95 C 638.33 43.66 633.37 48.05 629.37 53.31 C 516.59 166.53 403.36 279.30 290.54 392.48 C 211.54 471.51 132.48 550.48 53.53 629.54 C 46.82 634.04 41.79 640.48 35.93 645.95 C 23.97 657.96 11.92 669.88 0.00 681.94 L 0.00 0.00 Z" />
<path fill="#95321f" d=" M 681.93 0.00 L 682.00 0.00 L 682.00 682.00 L 0.00 682.00 L 0.00 681.94 C 11.92 669.88 23.97 657.96 35.93 645.95 C 41.79 640.48 46.82 634.04 53.53 629.54 C 132.48 550.48 211.54 471.51 290.54 392.48 C 403.36 279.30 516.59 166.53 629.37 53.31 C 633.37 48.05 638.33 43.66 642.93 38.95 C 655.95 25.98 668.88 12.93 681.93 0.00 Z" />
<path fill="#ffffff" d=" M 609.47 156.56 C 606.57 152.57 610.14 146.71 614.86 146.64 C 620.56 146.38 626.32 148.06 631.37 150.64 C 631.31 153.13 631.30 155.63 631.28 158.12 C 628.96 158.26 626.50 158.17 624.52 159.58 C 624.72 155.08 620.26 150.66 615.73 151.51 C 614.29 154.68 616.59 157.04 619.28 158.44 C 616.08 158.84 611.72 159.52 609.47 156.56 Z" />
<path fill="#ffffff" d=" M 625.94 171.96 C 625.29 169.07 625.46 166.04 626.78 163.36 C 628.27 163.29 629.76 163.23 631.27 163.19 C 631.26 170.91 631.54 178.65 631.10 186.37 C 628.49 181.94 626.98 176.96 625.94 171.96 Z" />
<path fill="#ffffff" d=" M 603.67 180.18 C 601.45 176.03 606.57 173.23 610.00 172.70 C 617.09 173.93 621.30 180.37 624.92 185.96 C 622.59 186.92 620.46 189.72 617.71 188.58 C 612.60 186.79 607.08 184.59 603.67 180.18 Z" />
<path fill="#ffffff" d=" M 621.69 194.49 C 624.18 191.97 627.81 190.81 631.29 190.64 C 631.28 194.79 631.40 198.94 631.30 203.08 C 631.47 205.05 629.92 206.45 628.86 207.89 C 626.44 207.10 623.98 206.37 621.44 206.15 C 620.12 202.46 619.26 197.92 621.69 194.49 Z" />
<path fill="#ffffff" d=" M 597.97 207.73 C 600.39 210.14 600.77 213.80 601.09 217.03 C 601.50 224.47 597.88 231.47 592.77 236.66 C 592.32 236.60 591.42 236.46 590.97 236.39 C 590.35 235.61 589.74 234.84 589.14 234.08 C 588.93 230.94 589.65 227.85 591.07 225.06 C 593.81 219.47 596.27 213.73 597.97 207.73 Z" />
<path fill="#ffffff" d=" M 606.33 213.83 C 611.07 212.22 615.91 210.08 621.04 210.61 C 626.39 210.90 631.29 215.58 631.19 221.07 C 631.27 225.07 631.79 229.65 629.17 233.02 C 627.45 235.57 624.73 237.11 622.14 238.63 C 620.10 237.08 617.62 236.37 615.12 236.05 C 617.32 231.26 621.19 227.29 622.30 221.99 C 622.01 221.37 621.42 220.14 621.12 219.53 C 615.82 219.44 611.05 222.25 605.83 222.83 C 606.01 219.83 606.07 216.83 606.33 213.83 Z" />
<path fill="#ffffff" d=" M 604.46 228.41 C 607.87 227.15 611.77 227.17 615.14 225.52 C 613.80 229.12 611.22 232.03 609.31 235.32 C 606.10 235.25 602.94 235.73 599.85 236.54 C 601.63 233.97 602.90 231.11 604.46 228.41 Z" />
<path fill="#ffffff" d=" M 596.44 243.81 C 605.85 237.88 619.62 239.45 626.70 248.33 C 618.47 247.98 610.25 248.72 602.03 248.56 C 599.05 248.83 597.29 246.28 596.44 243.81 Z" />
<path fill="#ffffff" d=" M 568.50 271.02 C 572.75 261.36 579.28 252.90 586.25 245.06 C 586.79 246.46 588.43 247.83 587.64 249.47 C 583.98 258.65 576.84 265.92 568.50 271.02 Z" />
<path fill="#ffffff" d=" M 577.85 271.12 C 584.59 265.13 590.16 257.76 593.27 249.24 C 594.37 250.29 595.57 251.23 596.85 252.06 C 595.58 256.02 594.18 260.99 597.51 264.37 C 601.40 268.40 609.32 263.93 607.33 258.44 C 604.76 257.84 602.67 259.53 600.25 259.84 C 600.35 257.35 601.81 255.38 604.01 254.28 C 607.91 255.72 610.18 259.89 609.37 263.96 C 608.04 270.62 604.09 277.01 598.14 280.47 C 596.07 280.44 593.99 280.28 592.19 279.21 C 589.33 274.15 583.64 271.04 577.85 271.12 Z" />
<path fill="#ffffff" d=" M 611.89 253.47 C 616.26 253.34 620.64 253.19 625.01 253.51 C 620.68 258.71 617.25 264.56 613.28 270.02 C 614.63 264.51 614.83 258.51 611.89 253.47 Z" />
<path fill="#ffffff" d=" M 627.45 259.69 C 628.69 257.84 630.00 256.04 631.33 254.26 C 631.31 259.47 631.29 264.68 631.34 269.90 C 630.03 266.49 628.62 263.13 627.45 259.69 Z" />
<path fill="#ffffff" d=" M 616.57 274.15 C 618.95 271.13 621.13 267.96 623.51 264.94 C 625.01 268.51 626.53 272.09 628.53 275.43 C 629.69 277.54 631.33 279.60 631.30 282.13 C 631.38 288.11 631.28 294.08 631.30 300.06 C 625.77 291.81 619.94 283.58 616.57 274.15 Z" />
<path fill="#ffffff" d=" M 535.27 271.26 C 537.09 269.49 539.70 269.41 542.00 268.71 C 549.13 269.44 556.87 275.13 555.63 283.09 C 553.81 277.83 549.07 273.86 543.65 272.71 C 539.50 271.99 534.73 274.01 533.07 278.05 C 531.05 283.13 531.98 288.74 533.15 293.91 C 531.54 293.41 529.95 292.87 528.39 292.28 C 527.33 284.77 529.15 276.23 535.27 271.26 Z" />
<path fill="#ffffff" d=" M 541.12 278.26 C 541.30 278.06 541.68 277.66 541.86 277.45 C 546.03 279.13 550.99 281.95 550.98 287.10 C 550.27 285.56 549.82 283.92 548.96 282.47 C 548.12 282.39 546.45 282.24 545.62 282.17 C 544.31 284.95 543.77 288.49 545.90 291.03 C 549.33 295.77 557.71 294.07 559.26 288.45 C 559.73 291.60 561.07 294.55 563.61 296.56 C 566.44 296.55 569.98 297.60 572.14 295.14 C 574.32 293.25 574.74 290.23 574.29 287.52 C 571.88 286.91 569.13 286.99 568.80 290.09 C 567.58 287.18 572.23 286.73 573.91 285.61 C 576.50 285.29 579.23 285.17 581.53 286.63 C 583.61 290.25 581.33 294.24 579.47 297.42 C 576.89 301.37 573.63 304.94 569.87 307.80 C 560.82 313.12 554.29 322.10 550.64 331.82 C 550.72 321.11 548.24 310.09 541.74 301.39 C 538.42 294.56 534.64 285.76 538.92 278.57 C 539.47 278.50 540.57 278.34 541.12 278.26 Z" />
<path fill="#ffffff" d=" M 568.62 279.40 C 574.19 274.47 583.99 275.55 588.03 281.94 C 592.29 288.62 590.72 297.63 586.46 303.93 C 585.22 303.87 582.75 303.74 581.51 303.68 C 585.08 299.33 588.33 293.86 587.42 288.01 C 586.99 284.82 584.76 282.24 582.09 280.62 C 576.19 278.52 569.35 280.75 564.85 284.85 C 565.95 282.93 566.88 280.84 568.62 279.40 Z" />
<path fill="#ffffff" d=" M 608.45 285.55 C 609.88 283.55 611.02 281.23 613.09 279.81 C 617.29 289.14 623.04 297.69 629.19 305.84 C 630.10 307.14 631.23 308.48 631.26 310.17 C 631.44 315.46 631.24 320.76 631.32 326.05 C 623.96 313.53 614.24 302.50 607.66 289.49 C 606.66 288.14 607.64 286.68 608.45 285.55 Z" />
<path fill="#ffffff" d=" M 519.20 280.86 C 520.26 281.76 521.52 282.34 522.87 282.74 C 522.80 284.42 522.69 286.09 522.59 287.78 C 521.28 285.56 519.31 283.56 519.20 280.86 Z" />
<path fill="#ffffff" d=" M 513.17 282.08 C 514.56 285.47 516.60 288.55 518.97 291.34 C 518.44 291.46 517.38 291.69 516.86 291.81 C 515.06 288.81 513.61 285.58 513.17 282.08 Z" />
<path fill="#ffffff" d=" M 595.10 285.60 C 598.03 285.71 600.98 285.19 603.27 283.22 C 601.53 286.25 599.97 289.41 597.87 292.20 C 597.32 292.29 596.22 292.46 595.67 292.55 C 595.51 290.22 595.31 287.91 595.10 285.60 Z" />
<path fill="#ffffff" d=" M 597.24 305.94 C 599.00 301.52 601.31 297.36 603.70 293.26 C 611.27 308.00 622.58 320.40 630.50 334.95 C 629.37 338.29 628.17 341.61 627.12 344.97 C 619.21 330.44 604.76 320.76 597.24 305.94 Z" />
<path fill="#ffffff" d=" M 517.75 296.74 C 525.38 295.58 533.57 298.58 537.99 305.05 C 544.82 315.00 546.38 327.80 544.62 339.53 C 543.80 339.46 542.17 339.30 541.36 339.23 C 544.06 329.60 545.36 318.36 539.42 309.63 C 535.88 304.87 531.40 300.22 525.67 298.29 C 525.65 298.06 525.62 297.61 525.60 297.38 C 522.98 297.26 520.36 297.19 517.74 297.23 C 516.87 297.76 516.01 298.29 515.15 298.82 C 512.59 301.91 510.52 305.81 511.22 309.95 C 511.34 313.40 514.36 315.48 516.42 317.86 C 513.55 315.45 509.87 313.14 509.38 309.08 C 508.30 303.46 512.67 298.43 517.75 296.74 Z" />
<path fill="#ffffff" d=" M 574.94 310.71 C 579.69 309.00 584.87 309.31 589.77 310.11 C 586.43 310.31 583.08 310.25 579.76 310.57 C 574.26 312.69 568.74 315.32 564.87 319.94 C 559.50 325.87 556.98 333.85 556.18 341.69 C 555.12 341.60 554.07 341.50 553.02 341.41 C 555.93 329.00 562.99 316.32 574.94 310.71 Z" />
<path fill="#ffffff" d=" M 594.61 312.11 C 602.67 325.76 616.74 334.92 623.54 349.45 C 626.02 353.15 622.93 357.27 622.22 361.04 C 622.02 362.44 620.76 361.32 620.52 360.59 C 611.71 347.55 598.49 337.80 591.49 323.49 C 591.31 319.57 593.54 315.84 594.61 312.11 Z" />
<path fill="#ffffff" d=" M 562.33 335.94 C 565.27 324.86 575.20 314.27 587.47 315.58 C 586.76 318.45 586.02 321.32 585.30 324.19 C 584.59 322.92 583.88 321.65 583.17 320.39 C 579.73 319.58 578.68 323.36 578.44 325.97 C 577.80 330.19 579.73 334.87 583.68 336.79 C 584.38 340.88 584.61 345.09 586.08 349.02 C 587.01 352.06 589.09 354.66 589.59 357.85 C 589.24 357.36 588.53 356.39 588.18 355.90 C 580.61 351.64 573.80 346.10 566.16 341.97 C 566.20 340.71 566.85 339.78 568.02 339.30 C 568.95 341.05 569.77 343.30 572.26 342.47 C 574.69 340.66 574.85 337.14 573.21 334.75 C 572.00 334.65 570.81 334.32 569.95 333.44 C 567.67 334.83 564.73 334.70 562.33 335.94 Z" />
<path fill="#ffffff" d=" M 530.46 332.07 C 531.88 332.40 532.77 333.50 533.51 334.69 C 533.52 335.20 533.54 336.24 533.55 336.76 C 532.73 335.56 531.71 334.52 530.26 334.15 C 530.31 333.63 530.41 332.59 530.46 332.07 Z" />
<path fill="#ffffff" d=" M 589.57 330.85 C 597.92 344.79 611.63 354.66 619.51 368.98 C 619.06 370.57 618.62 372.15 618.18 373.74 C 609.24 368.45 600.08 362.60 594.50 353.56 C 590.19 346.86 588.89 338.68 589.57 330.85 Z" />
<path fill="#ffffff" d=" M 478.91 335.73 C 484.80 333.76 492.04 333.72 496.95 338.01 C 499.81 340.43 500.66 344.23 501.66 347.67 C 502.56 347.66 504.35 347.63 505.24 347.62 C 506.72 342.74 509.79 338.24 514.81 336.55 C 519.16 336.20 523.81 335.89 527.79 338.04 C 532.07 340.10 535.79 344.05 536.23 348.96 C 536.62 353.44 533.89 357.26 531.54 360.79 C 531.80 361.53 532.31 363.00 532.57 363.74 C 534.47 363.64 536.37 363.54 538.29 363.45 C 543.66 366.77 546.17 373.01 547.17 379.00 C 547.86 383.31 547.74 388.34 544.28 391.50 C 543.18 391.59 542.07 391.68 540.98 391.79 C 540.64 392.35 539.95 393.46 539.60 394.02 C 539.84 394.56 540.31 395.65 540.55 396.20 C 545.08 399.83 548.93 405.04 549.46 410.96 C 549.85 415.08 546.21 417.69 543.05 419.44 C 538.52 420.49 535.68 416.69 533.27 413.58 C 529.78 412.34 529.08 416.07 529.86 418.56 C 528.00 418.56 526.15 418.58 524.31 418.62 C 524.29 417.97 524.26 416.65 524.25 415.99 C 523.78 415.63 522.83 414.91 522.35 414.54 C 521.53 414.62 519.90 414.77 519.08 414.85 C 518.82 413.08 517.30 410.64 519.62 409.65 C 521.90 408.22 523.64 406.19 525.12 403.97 C 525.87 402.40 527.55 403.56 528.51 404.21 C 530.63 406.09 533.57 405.58 536.15 405.42 C 537.34 403.34 537.63 400.99 536.54 398.80 C 536.14 398.46 535.36 397.77 534.96 397.43 C 533.76 398.11 532.63 398.91 531.77 400.01 C 530.21 399.30 528.22 398.01 528.58 396.03 C 528.98 392.90 529.50 389.79 529.42 386.64 C 537.01 387.78 541.82 378.22 539.39 371.88 C 538.88 371.56 537.86 370.93 537.36 370.61 C 537.00 370.63 536.27 370.65 535.91 370.67 C 533.99 371.68 531.17 373.56 532.92 376.04 C 533.39 376.28 534.33 376.74 534.80 376.98 C 534.30 379.80 531.15 383.75 528.65 380.28 C 527.00 375.35 524.49 370.77 520.95 366.93 C 530.22 362.55 534.22 347.76 526.12 340.53 C 520.15 338.19 514.92 346.71 518.80 351.34 C 520.05 351.45 521.30 351.55 522.57 351.67 C 523.46 350.14 523.37 348.41 522.63 346.86 C 522.85 346.41 523.30 345.51 523.53 345.06 C 527.04 350.72 524.69 358.95 519.13 362.42 C 515.63 362.90 512.18 362.20 509.01 360.71 C 504.81 360.24 500.57 360.40 496.38 360.83 C 497.91 356.32 498.86 350.90 496.25 346.61 C 495.15 344.64 493.10 343.56 491.17 342.60 C 490.12 342.63 489.08 342.65 488.04 342.67 C 484.15 344.14 480.78 348.69 483.10 352.80 C 483.84 355.13 486.38 354.60 488.25 354.45 C 488.94 352.16 488.83 349.79 488.56 347.45 C 490.25 347.74 491.86 348.63 492.38 350.39 C 493.54 355.12 491.90 360.34 488.78 363.99 C 484.25 366.93 479.45 369.65 475.92 373.85 C 474.63 368.31 471.50 362.77 465.95 360.64 C 459.83 359.51 453.65 363.79 451.58 369.44 C 450.76 371.83 452.35 373.88 453.88 375.52 C 455.29 375.50 456.71 375.49 458.14 375.48 C 459.70 373.13 460.32 370.04 458.24 367.77 C 459.46 367.05 460.70 366.34 461.88 365.55 C 464.74 365.25 467.43 366.78 468.73 369.35 C 470.63 372.67 472.65 377.42 469.80 380.79 C 466.47 385.33 463.76 390.33 461.94 395.66 C 460.52 392.48 458.57 389.26 455.33 387.69 C 452.86 387.27 449.69 386.72 447.84 388.84 C 443.33 393.07 444.08 401.97 449.94 404.67 C 450.65 404.11 451.37 403.57 452.11 403.05 C 453.62 400.20 452.57 397.02 450.28 394.96 C 450.53 394.31 451.03 393.02 451.28 392.37 C 451.84 392.39 452.98 392.41 453.55 392.42 C 461.59 399.67 457.63 411.38 458.40 420.75 C 456.06 419.61 453.55 418.86 450.96 418.65 C 442.64 420.96 438.28 433.12 444.42 439.56 C 446.07 439.60 447.73 439.64 449.39 439.68 C 451.28 437.24 451.02 433.96 449.28 431.54 C 448.58 431.52 447.16 431.47 446.46 431.45 C 447.05 428.86 448.14 426.44 449.67 424.28 C 453.58 423.50 457.33 425.40 458.90 429.06 C 461.06 434.95 463.72 440.65 466.73 446.15 C 465.30 447.75 462.74 447.65 461.28 449.30 C 457.04 452.58 456.12 458.14 455.70 463.15 C 452.55 464.98 450.11 467.79 448.63 471.11 C 445.50 467.65 446.70 462.25 448.06 458.22 C 448.78 455.23 452.17 453.00 451.28 449.72 C 448.15 448.51 445.07 450.33 441.92 450.39 C 431.87 447.88 427.17 435.74 429.71 426.37 C 430.81 422.36 434.03 419.20 437.87 417.74 C 440.46 417.81 442.44 416.30 443.54 414.03 C 443.24 413.45 442.65 412.29 442.35 411.71 C 438.73 410.92 435.19 409.11 433.23 405.85 C 428.34 398.38 431.61 387.06 439.94 383.63 C 442.33 383.36 444.75 383.20 447.16 383.22 C 447.87 382.05 449.12 380.69 448.14 379.28 C 445.46 375.14 441.60 371.27 441.31 366.06 C 440.81 360.51 445.12 356.04 449.43 353.24 C 453.08 350.73 457.89 350.90 461.99 352.10 C 464.01 353.04 465.97 354.13 467.80 355.42 C 468.60 355.35 469.40 355.29 470.21 355.25 C 472.06 351.69 468.19 348.45 469.34 344.80 C 470.30 340.11 474.78 337.38 478.91 335.73 Z" />
<path fill="#ffffff" d=" M 540.59 345.26 C 543.29 345.40 545.99 345.55 548.70 345.70 C 548.86 350.79 548.16 355.87 548.35 360.97 C 548.19 362.36 548.79 364.28 547.17 364.97 C 545.25 362.21 542.79 359.49 539.28 358.98 C 540.44 354.50 542.08 349.91 540.59 345.26 Z" />
<path fill="#ffffff" d=" M 554.30 347.21 C 558.03 347.46 561.53 348.78 565.10 349.75 C 566.76 350.41 568.45 351.06 570.14 351.68 C 571.60 352.39 573.08 353.08 574.59 353.69 L 574.17 354.62 C 575.60 354.54 576.89 355.11 577.96 356.05 C 580.43 357.99 583.40 359.28 585.56 361.63 C 583.12 363.50 581.45 366.10 580.12 368.83 C 578.86 367.54 577.11 367.03 575.48 366.41 C 574.66 364.62 574.24 362.71 574.04 360.77 C 577.07 360.71 577.01 357.44 576.61 355.27 C 574.95 355.24 573.30 355.22 571.66 355.23 C 569.36 358.77 569.40 363.15 570.46 367.11 C 569.17 367.86 567.97 368.76 566.87 369.75 C 564.44 366.81 561.60 364.17 558.08 362.62 C 556.61 362.51 555.13 362.40 553.67 362.29 C 553.55 357.25 553.80 352.22 554.30 347.21 Z" />
<path fill="#ffffff" d=" M 631.40 348.71 C 631.17 355.40 631.43 362.11 631.29 368.80 C 631.23 372.06 629.77 375.03 628.62 378.00 C 626.68 377.71 624.81 377.09 623.05 376.26 C 625.89 367.10 629.09 358.03 631.40 348.71 Z" />
<path fill="#ffffff" d=" M 499.96 364.71 C 502.61 364.60 505.38 364.21 507.93 365.20 C 508.48 365.31 509.58 365.54 510.13 365.65 C 515.56 367.82 520.38 371.83 522.75 377.26 C 526.97 386.41 525.21 398.70 516.99 405.07 C 514.27 407.55 510.38 408.18 506.87 407.41 C 504.42 405.97 504.19 403.06 504.10 400.53 C 506.35 400.54 508.81 401.08 510.88 399.92 C 516.63 395.57 518.95 386.49 514.29 380.54 C 508.23 372.68 495.65 372.23 488.13 378.23 C 472.55 390.23 467.76 413.97 477.08 431.22 C 478.89 434.85 481.37 438.08 483.74 441.36 C 484.08 441.60 484.76 442.08 485.10 442.32 C 480.66 442.50 475.51 441.56 471.89 444.78 C 465.79 436.16 462.07 425.66 462.64 415.03 C 463.23 400.69 470.32 387.34 479.98 377.01 C 483.92 372.73 488.64 369.21 493.87 366.66 C 495.90 366.00 497.93 365.37 499.96 364.71 Z" />
<path fill="#ffffff" d=" M 588.52 364.56 C 589.92 363.74 591.44 364.90 592.57 365.68 C 596.00 368.24 599.93 370.09 603.01 373.13 C 596.93 373.04 591.03 374.57 584.98 374.75 C 582.09 370.98 585.49 366.89 588.52 364.56 Z" />
<path fill="#ffffff" d=" M 554.78 365.89 C 554.98 366.22 555.37 366.89 555.57 367.23 C 559.07 368.04 561.64 370.86 563.54 373.76 C 562.68 378.03 559.03 380.19 556.19 383.04 C 555.31 377.41 553.09 371.54 554.78 365.89 Z" />
<path fill="#ffffff" d=" M 566.31 380.09 C 565.83 376.56 568.20 373.61 570.62 371.35 C 574.43 370.70 578.08 372.11 580.21 375.39 C 577.31 375.57 574.39 375.67 571.58 376.47 C 571.31 377.13 570.77 378.47 570.50 379.13 C 572.47 381.57 574.80 383.74 576.39 386.47 C 575.22 386.42 574.07 386.37 572.92 386.32 C 570.09 385.19 566.78 383.42 566.31 380.09 Z" />
<path fill="#ffffff" d=" M 486.04 387.03 C 489.87 382.59 495.39 380.15 500.95 378.69 C 504.86 378.14 509.55 379.98 510.67 384.08 C 511.36 388.17 510.23 392.36 508.10 395.86 C 505.75 395.69 505.19 393.35 504.21 391.67 C 503.42 389.95 501.90 388.78 500.54 387.55 C 499.60 387.57 498.67 387.59 497.74 387.61 C 491.31 391.76 487.90 399.04 485.53 406.04 C 482.91 413.20 486.72 421.12 492.51 425.48 C 493.69 426.41 495.20 427.04 495.91 428.46 C 491.73 430.50 489.52 434.81 488.20 439.06 C 483.39 432.99 479.08 426.22 477.81 418.44 C 476.00 407.48 478.72 395.53 486.04 387.03 Z" />
<path fill="#ffffff" d=" M 587.05 379.47 C 594.87 377.87 602.94 377.13 610.94 377.62 C 614.57 380.50 618.71 382.68 622.44 385.41 C 623.55 387.97 622.81 391.20 624.70 393.52 C 625.78 395.31 628.59 396.48 627.50 398.94 C 625.47 397.64 623.25 396.74 621.05 395.79 C 619.66 395.24 618.27 394.74 616.88 394.24 C 615.23 393.49 613.56 392.80 611.83 392.27 C 610.59 391.76 609.32 391.32 608.10 390.81 C 606.68 390.28 605.26 389.79 603.86 389.26 C 602.22 388.51 600.55 387.83 598.85 387.28 C 594.84 385.53 591.14 383.19 587.37 381.01 L 587.05 379.47 Z" />
<path fill="#ffffff" d=" M 580.03 383.48 C 580.53 383.51 581.53 383.56 582.03 383.59 C 588.42 387.58 594.93 391.42 602.15 393.73 C 603.37 394.25 604.66 394.68 605.89 395.23 C 607.30 395.75 608.73 396.24 610.16 396.75 C 611.38 397.26 612.64 397.72 613.87 398.25 C 615.59 398.78 617.26 399.48 618.88 400.30 C 620.42 400.83 621.95 401.34 623.46 402.00 C 624.11 404.12 622.30 406.01 621.74 407.95 C 618.18 406.45 614.60 404.90 610.63 405.46 C 608.33 407.17 606.74 409.57 606.58 412.50 C 607.76 412.56 608.96 412.63 610.16 412.67 C 610.69 411.71 611.24 410.75 611.79 409.80 C 612.10 409.75 612.73 409.65 613.04 409.60 C 615.61 410.83 618.25 411.95 620.55 413.68 C 620.68 416.03 621.04 418.37 621.53 420.69 C 620.62 420.58 618.81 420.35 617.90 420.23 C 613.81 419.19 609.72 418.10 605.89 416.28 C 600.30 413.48 595.40 409.34 591.80 404.23 C 587.31 397.64 584.71 389.95 580.03 383.48 Z" />
<path fill="#ffffff" d=" M 559.27 385.83 C 560.17 384.88 561.08 383.93 562.01 383.00 C 563.26 385.45 565.13 387.48 567.35 389.10 C 565.36 392.21 563.48 395.46 562.71 399.12 C 562.98 399.72 563.53 400.93 563.81 401.54 C 565.32 401.58 566.85 401.62 568.38 401.65 C 568.67 400.95 569.27 399.56 569.57 398.87 C 569.16 398.33 568.34 397.26 567.93 396.73 C 568.87 394.60 570.04 392.58 571.29 390.62 C 573.88 390.74 576.48 390.76 579.08 390.65 C 579.61 392.21 582.01 394.70 579.89 395.97 C 574.00 399.04 571.53 405.93 571.47 412.23 C 570.54 412.39 569.61 412.55 568.70 412.73 C 565.08 406.56 561.72 400.18 559.38 393.41 C 558.62 391.84 559.72 390.34 560.22 388.90 C 559.98 388.13 559.51 386.60 559.27 385.83 Z" />
<path fill="#ffffff" d=" M 547.38 395.15 C 550.01 393.61 551.20 390.73 552.13 387.98 C 554.67 397.59 558.85 406.71 563.95 415.23 C 563.87 415.78 563.71 416.87 563.64 417.41 C 561.72 417.51 559.82 417.64 557.92 417.75 C 551.63 418.97 546.29 423.12 543.13 428.63 C 542.19 427.21 541.15 425.89 540.01 424.64 C 540.78 424.53 542.32 424.30 543.09 424.19 C 544.27 423.86 545.45 423.57 546.66 423.30 C 549.80 421.29 552.84 418.71 553.74 414.91 C 555.93 407.65 551.51 400.75 547.38 395.15 Z" />
<path fill="#ffffff" d=" M 492.60 401.61 C 494.27 398.42 495.71 394.55 499.31 393.07 C 501.14 396.28 498.44 399.67 498.84 403.05 C 498.41 405.95 501.83 408.75 499.62 411.39 C 497.90 413.77 498.12 416.96 499.71 419.34 C 500.14 419.35 501.00 419.39 501.43 419.41 C 501.92 419.07 502.90 418.40 503.39 418.06 C 503.43 416.90 503.48 415.75 503.54 414.60 C 503.88 414.07 504.58 413.00 504.93 412.47 C 507.67 413.03 510.50 413.49 513.21 412.49 C 514.08 415.84 515.34 419.71 518.93 421.03 C 517.56 422.65 515.63 424.11 515.37 426.37 C 514.26 423.57 512.68 421.01 511.13 418.45 C 510.08 418.51 509.03 418.57 508.00 418.65 C 507.04 421.03 505.43 423.01 503.39 424.54 C 497.76 424.43 493.14 420.22 490.39 415.63 C 488.40 410.99 490.59 405.88 492.60 401.61 Z" />
<path fill="#ffffff" d=" M 576.62 405.98 C 577.57 402.79 580.10 400.11 583.32 399.14 C 584.14 400.79 584.97 402.44 585.79 404.10 C 581.83 407.71 578.98 412.78 579.47 418.29 C 577.55 418.53 575.68 419.00 573.86 419.63 C 569.69 421.98 568.02 427.59 570.13 431.85 C 571.41 434.34 574.15 435.43 576.78 435.83 C 574.84 438.84 572.88 442.30 573.54 446.03 C 573.92 448.70 576.21 450.60 578.79 451.06 C 577.29 452.65 575.76 454.21 574.24 455.79 C 570.59 455.08 566.81 452.11 567.07 448.07 C 566.63 444.64 570.84 442.34 569.42 438.89 C 566.37 438.30 563.68 436.07 562.81 433.04 C 561.35 427.62 563.80 421.57 568.21 418.24 C 570.53 416.44 573.51 415.93 576.30 415.26 C 576.93 412.18 575.61 409.01 576.62 405.98 Z" />
<path fill="#ffffff" d=" M 625.13 411.86 C 625.48 407.23 628.29 403.34 631.24 399.96 C 631.38 408.01 631.31 416.06 631.29 424.11 C 626.57 422.24 624.47 416.62 625.13 411.86 Z" />
<path fill="#ffffff" d=" M 586.90 408.58 C 587.25 408.47 587.95 408.25 588.30 408.14 C 589.13 409.10 589.97 410.06 590.81 411.03 C 588.70 413.31 586.62 415.62 584.89 418.20 C 584.56 417.41 583.90 415.83 583.57 415.04 C 584.18 412.65 585.33 410.48 586.90 408.58 Z" />
<path fill="#ffffff" d=" M 590.83 439.92 C 584.78 432.49 585.97 419.90 593.98 414.31 C 595.27 415.25 596.59 416.18 597.95 417.03 C 597.41 420.04 596.05 422.87 595.89 425.96 C 595.64 429.03 596.95 431.98 596.75 435.06 C 594.56 436.40 592.67 438.15 590.83 439.92 Z" />
<path fill="#ffffff" d=" M 601.03 431.66 C 599.85 427.54 600.07 423.18 601.88 419.27 C 605.12 421.72 609.15 422.81 613.01 423.89 C 614.71 424.40 616.46 424.77 618.23 425.02 C 616.78 425.27 615.34 425.54 613.92 425.82 C 609.35 427.13 605.08 429.22 601.03 431.66 Z" />
<path fill="#ffffff" d=" M 523.79 422.49 C 531.33 421.13 537.38 427.40 540.43 433.59 C 539.31 433.63 537.09 433.71 535.97 433.75 C 534.91 432.20 533.69 430.77 532.35 429.47 C 530.05 429.48 527.43 428.89 525.51 430.51 C 523.56 431.88 522.94 434.27 522.29 436.43 C 520.49 437.04 518.65 437.55 516.77 437.87 C 517.52 432.24 518.92 426.03 523.79 422.49 Z" />
<path fill="#ffffff" d=" M 558.13 423.16 C 558.45 422.89 559.07 422.33 559.39 422.05 C 559.36 424.47 558.70 426.81 558.10 429.14 C 555.31 429.77 553.37 431.89 552.29 434.45 C 550.32 434.35 548.35 434.25 546.39 434.15 C 547.97 428.88 552.45 423.85 558.13 423.16 Z" />
<path fill="#ffffff" d=" M 573.24 425.94 C 573.70 425.37 574.63 424.25 575.09 423.68 C 577.83 423.28 580.61 423.14 583.38 423.17 C 583.02 425.58 582.78 428.01 582.73 430.46 C 578.88 432.66 573.35 430.85 573.24 425.94 Z" />
<path fill="#ffffff" d=" M 507.14 428.10 C 507.82 427.39 508.50 426.68 509.19 425.97 C 511.14 427.51 512.24 429.74 513.22 431.97 C 511.38 430.40 509.44 428.88 507.14 428.10 Z" />
<path fill="#ffffff" d=" M 630.45 428.14 C 630.66 427.69 631.06 426.79 631.27 426.34 C 631.80 431.91 630.13 437.44 631.03 442.99 C 631.58 447.54 631.24 452.13 631.29 456.70 C 630.44 456.62 628.76 456.48 627.91 456.40 C 623.66 454.56 619.91 450.83 619.70 445.97 C 619.24 438.47 624.60 432.14 630.45 428.14 Z" />
<path fill="#ffffff" d=" M 594.51 441.48 C 602.21 434.85 611.70 429.10 622.21 429.48 C 620.53 431.67 618.94 433.92 617.54 436.31 C 615.38 437.61 613.22 438.93 610.90 439.92 C 609.94 440.16 608.99 440.40 608.04 440.65 C 607.87 438.59 606.28 438.33 604.59 438.34 C 603.19 440.40 601.91 442.71 602.71 445.28 C 605.04 445.33 607.47 445.67 609.73 444.86 C 611.80 444.36 613.78 442.87 615.99 443.56 C 615.53 444.20 614.61 445.48 614.14 446.12 C 609.97 447.85 606.11 450.23 602.07 452.22 C 600.71 452.84 599.37 453.52 598.09 454.27 C 594.69 455.79 591.38 457.53 587.88 458.83 C 582.60 461.13 576.77 461.70 571.42 463.73 C 578.96 456.16 586.41 448.47 594.51 441.48 Z" />
<path fill="#ffffff" d=" M 495.88 434.89 C 500.63 429.17 510.96 433.58 511.97 440.32 C 510.67 440.51 509.39 440.71 508.10 440.89 C 506.70 439.10 504.77 438.14 502.49 438.39 C 499.30 440.46 497.99 444.03 497.63 447.66 C 496.62 448.45 495.61 449.23 494.61 450.03 C 492.66 445.25 492.07 438.94 495.88 434.89 Z" />
<path fill="#ffffff" d=" M 577.36 445.24 C 576.87 440.88 580.45 437.81 583.19 434.99 C 584.03 437.79 585.76 440.21 586.77 442.93 C 586.04 444.82 584.02 445.92 582.75 447.48 C 580.92 446.80 579.10 446.09 577.36 445.24 Z" />
<path fill="#ffffff" d=" M 478.96 476.93 C 489.21 455.53 511.80 441.35 535.16 439.24 C 544.38 437.52 553.80 439.51 562.80 441.60 C 563.60 444.08 562.31 446.45 562.11 448.91 C 561.74 452.51 563.76 455.88 566.38 458.28 C 564.20 455.54 560.60 452.65 556.90 453.97 C 554.66 454.66 552.84 456.26 550.60 456.96 C 548.06 452.03 544.30 447.84 540.10 444.26 C 539.49 444.65 538.28 445.43 537.67 445.82 C 536.49 450.87 534.83 455.79 533.20 460.72 C 529.38 460.46 524.65 459.53 521.90 462.96 C 515.72 468.40 517.70 480.69 526.24 482.44 C 530.30 483.79 534.95 480.27 534.35 475.96 C 534.19 473.08 531.42 471.68 529.12 470.66 C 527.97 470.61 526.83 470.55 525.70 470.50 C 525.42 471.14 524.87 472.41 524.59 473.04 C 525.21 474.27 525.81 475.63 527.38 475.80 C 527.50 476.30 527.76 477.31 527.89 477.81 C 526.98 477.28 526.08 476.75 525.18 476.25 C 523.07 474.16 522.24 470.65 524.15 468.16 C 526.45 464.31 532.33 464.79 535.05 467.92 C 540.19 473.25 541.70 480.87 543.75 487.75 C 536.18 486.01 528.99 490.70 524.92 496.79 C 519.82 494.95 514.07 493.42 508.87 495.84 C 507.73 496.13 506.05 497.54 505.19 496.03 C 502.67 492.73 499.78 489.24 499.36 484.96 C 498.99 482.62 501.17 481.45 502.80 480.38 C 503.37 480.49 504.49 480.71 505.05 480.82 C 505.35 481.66 505.65 482.50 505.96 483.35 C 505.12 483.36 503.45 483.40 502.62 483.41 C 502.36 484.06 501.83 485.36 501.56 486.00 C 503.38 488.93 506.77 490.36 510.12 489.36 C 512.62 484.56 510.94 478.40 506.34 475.57 C 501.83 474.67 497.28 476.73 495.22 480.89 C 490.98 480.22 487.28 477.58 482.97 477.34 C 481.72 477.13 480.91 477.63 480.53 478.84 C 480.33 481.85 480.91 484.84 481.28 487.82 C 479.56 487.28 477.83 486.79 476.12 486.31 C 475.92 482.92 477.58 479.90 478.96 476.93 Z" />
<path fill="#ffffff" d=" M 472.88 458.08 C 471.70 452.76 476.45 446.72 482.06 447.39 C 485.90 447.14 488.57 450.31 490.74 453.02 C 489.86 453.87 489.00 454.74 488.12 455.60 C 485.78 454.16 481.83 453.58 480.28 456.40 C 478.57 458.75 479.69 461.66 480.74 464.02 C 479.86 465.27 478.99 466.55 478.12 467.82 C 476.30 464.62 473.69 461.75 472.88 458.08 Z" />
<path fill="#ffffff" d=" M 573.57 467.09 C 588.94 465.18 602.24 456.83 615.85 450.09 C 616.20 451.42 616.62 452.74 616.96 454.08 C 612.04 455.94 607.94 460.02 606.54 465.14 C 607.66 468.01 609.98 468.82 613.49 467.57 C 609.68 468.19 605.84 468.26 602.12 469.24 C 597.93 469.61 593.73 469.36 589.54 469.45 L 591.81 468.73 C 585.69 468.95 579.59 468.13 573.57 467.09 Z" />
<path fill="#ffffff" d=" M 460.96 460.49 C 461.41 457.25 463.00 454.41 465.23 452.06 C 465.56 454.99 466.27 457.88 467.60 460.54 C 465.38 460.49 463.17 460.48 460.96 460.49 Z" />
<path fill="#ffffff" d=" M 541.03 452.80 C 544.17 454.94 546.03 458.63 547.64 461.94 C 546.54 465.91 545.29 469.86 544.94 473.99 C 543.28 469.91 540.70 466.34 537.55 463.30 C 538.87 459.85 539.95 456.32 541.03 452.80 Z" />
<path fill="#ffffff" d=" M 618.00 458.12 C 620.52 456.54 622.52 459.42 624.81 460.09 C 622.82 462.82 619.37 463.73 616.56 465.34 C 613.93 466.91 610.79 466.71 607.88 467.05 C 609.47 466.50 612.41 466.14 612.46 463.84 C 612.67 460.80 615.60 459.30 618.00 458.12 Z" />
<path fill="#ffffff" d=" M 555.74 459.50 C 557.29 459.49 558.84 459.47 560.40 459.49 C 561.07 461.92 560.96 464.42 560.41 466.86 C 558.90 466.79 557.41 466.75 555.92 466.70 C 555.31 466.97 554.09 467.52 553.48 467.80 C 552.44 471.11 554.19 474.30 556.39 476.67 C 557.79 476.65 559.20 476.64 560.61 476.60 C 561.84 474.99 562.74 472.94 564.70 472.08 C 562.95 477.20 562.15 482.59 562.86 487.98 C 561.95 487.55 561.05 487.11 560.17 486.67 C 556.82 486.41 552.65 485.25 549.90 487.79 C 549.45 478.32 547.90 466.50 555.74 459.50 Z" />
<path fill="#ffffff" d=" M 614.48 477.41 C 617.25 471.90 621.95 467.75 626.93 464.29 C 625.15 469.24 624.39 474.73 626.20 479.80 C 627.74 483.84 623.18 486.65 620.89 489.30 C 620.51 488.79 619.74 487.78 619.35 487.28 C 616.50 487.83 615.35 490.73 614.31 493.07 C 614.72 493.71 615.52 494.97 615.93 495.61 C 621.85 495.54 626.10 490.52 629.23 486.05 C 631.55 487.56 632.03 490.92 630.10 492.95 C 624.37 500.06 619.19 507.61 614.18 515.24 C 612.10 518.23 610.47 521.59 607.71 524.04 C 607.13 519.66 608.33 515.33 608.38 510.96 C 609.14 499.65 609.10 487.72 614.48 477.41 Z" />
<path fill="#ffffff" d=" M 631.28 480.95 C 629.05 475.80 628.80 469.96 631.27 464.84 C 631.35 470.21 631.32 475.58 631.28 480.95 Z" />
<path fill="#ffffff" d=" M 461.55 466.08 C 466.89 464.25 471.86 467.98 474.95 472.00 C 474.88 472.58 474.75 473.75 474.68 474.34 C 472.34 474.48 469.29 473.56 467.68 475.77 C 465.91 477.66 465.89 480.37 465.67 482.79 C 464.83 482.46 463.99 482.14 463.15 481.84 C 459.89 481.06 456.77 479.77 453.46 479.21 C 451.35 473.48 455.70 467.05 461.55 466.08 Z" />
<path fill="#ffffff" d=" M 394.55 475.35 C 395.10 473.80 395.69 471.03 397.97 471.71 C 412.26 474.75 426.86 476.59 440.84 481.03 C 464.31 487.61 489.05 493.45 508.57 508.88 C 508.85 510.51 509.16 512.16 509.46 513.81 C 510.09 513.76 511.34 513.67 511.96 513.62 C 511.71 516.03 511.21 518.40 510.52 520.73 C 494.77 506.34 473.94 500.06 454.14 493.49 C 436.88 488.25 419.45 483.23 401.63 480.32 C 401.02 481.48 400.39 482.65 400.04 483.93 C 393.98 506.63 387.90 529.52 386.32 553.05 C 385.00 552.44 383.69 551.81 382.38 551.21 C 379.09 525.33 386.83 499.76 394.55 475.35 Z" />
<path fill="#ffffff" d=" M 569.11 472.39 C 570.04 472.35 571.91 472.27 572.84 472.24 C 571.46 475.34 570.30 479.01 571.72 482.33 C 573.12 485.20 576.35 486.45 579.36 486.77 C 577.90 489.59 576.79 492.78 577.49 496.00 C 578.04 499.18 580.42 502.78 584.01 502.71 C 586.80 503.12 589.39 501.92 591.90 500.88 C 592.47 503.91 593.35 507.18 595.96 509.13 C 598.20 511.27 601.48 510.27 604.22 510.08 C 604.06 512.17 603.90 514.27 603.72 516.38 C 600.48 517.19 596.55 518.63 593.63 516.27 C 590.75 513.93 590.68 509.96 590.18 506.60 C 589.62 506.52 588.50 506.37 587.93 506.30 C 585.34 508.34 581.81 510.46 578.55 508.55 C 572.23 505.79 570.75 497.12 574.89 491.86 C 574.74 491.33 574.45 490.27 574.31 489.74 C 571.94 489.55 569.16 489.43 567.88 487.07 C 565.24 482.41 567.76 477.04 569.11 472.39 Z" />
<path fill="#ffffff" d=" M 577.59 472.43 C 580.29 472.55 582.96 472.94 585.60 473.51 C 585.39 476.19 585.35 478.89 585.42 481.58 C 582.79 481.50 579.14 482.30 577.68 479.44 C 576.02 477.34 576.93 474.70 577.59 472.43 Z" />
<path fill="#ffffff" d=" M 599.77 474.56 C 604.07 473.83 608.39 473.25 612.59 472.06 C 610.27 475.77 608.36 479.74 607.08 483.94 C 602.89 482.82 599.49 479.06 599.77 474.56 Z" />
<path fill="#ffffff" d=" M 589.77 474.14 C 591.66 474.24 593.55 474.32 595.46 474.43 C 594.36 481.23 599.71 486.81 605.73 488.89 C 605.53 490.52 605.33 492.15 605.12 493.78 C 599.65 492.57 594.21 489.59 591.48 484.52 C 589.61 481.41 589.40 477.67 589.77 474.14 Z" />
<path fill="#ffffff" d=" M 485.64 483.29 C 488.70 484.03 491.66 485.16 494.49 486.55 C 495.25 489.88 496.67 493.01 498.41 495.94 C 494.90 493.43 490.78 492.03 486.91 490.23 C 486.38 487.93 485.97 485.61 485.64 483.29 Z" />
<path fill="#ffffff" d=" M 405.02 486.32 C 407.03 486.49 409.16 486.75 410.68 488.26 C 424.61 499.98 436.18 515.07 441.74 532.57 C 439.41 532.92 437.10 533.50 435.00 534.62 C 427.01 518.51 414.56 505.38 403.60 491.33 C 404.08 489.65 404.56 487.99 405.02 486.32 Z" />
<path fill="#ffffff" d=" M 582.89 497.25 C 579.95 492.91 583.13 488.22 586.23 485.08 C 588.15 487.93 589.74 491.13 592.62 493.18 C 591.32 495.86 588.60 497.27 586.00 498.40 C 584.97 498.00 583.92 497.61 582.89 497.25 Z" />
<path fill="#ffffff" d=" M 420.85 490.15 C 427.67 491.08 434.09 493.76 440.86 494.90 C 439.74 499.96 438.11 504.90 437.10 509.99 C 432.49 502.77 427.00 496.10 420.85 490.15 Z" />
<path fill="#ffffff" d=" M 555.03 490.77 C 560.47 490.54 564.48 494.89 567.51 498.88 C 568.99 506.45 569.54 514.20 568.09 521.83 C 565.31 519.57 561.43 518.65 558.04 519.96 C 554.24 522.14 554.43 526.98 554.56 530.78 C 553.04 528.93 551.20 527.39 549.17 526.15 C 552.12 521.22 556.89 517.41 558.79 511.87 C 560.64 507.26 557.08 500.76 551.72 501.52 C 550.47 502.48 549.24 503.47 548.03 504.47 C 546.96 502.32 544.79 502.33 542.71 502.51 C 540.40 504.47 537.08 506.44 537.31 509.93 C 537.07 515.89 541.96 520.38 542.73 525.99 C 539.82 526.27 537.51 528.02 535.45 529.94 C 531.48 525.00 527.98 519.68 523.50 515.16 C 523.73 508.23 526.91 501.60 531.56 496.54 C 534.02 493.83 537.51 492.16 541.22 492.48 C 543.46 493.96 545.49 495.72 547.52 497.48 C 547.93 497.39 548.73 497.21 549.13 497.12 C 550.56 494.66 551.78 491.17 555.03 490.77 Z" />
<path fill="#ffffff" d=" M 446.95 496.04 C 447.09 496.36 447.39 497.02 447.54 497.34 C 450.96 498.04 454.15 499.61 457.66 499.94 C 457.50 502.78 456.11 505.31 455.14 507.93 C 452.19 515.93 449.77 524.12 447.14 532.23 C 445.78 526.53 443.22 521.26 440.71 516.01 C 442.88 509.38 443.60 502.25 446.95 496.04 Z" />
<path fill="#ffffff" d=" M 595.97 496.04 C 598.83 496.93 601.64 498.03 604.59 498.64 C 604.19 500.84 605.40 503.90 603.18 505.34 C 601.41 505.65 598.80 506.40 597.69 504.53 C 595.94 502.06 596.20 498.89 595.97 496.04 Z" />
<path fill="#ffffff" d=" M 401.98 497.91 C 407.76 505.22 413.99 512.17 419.51 519.69 C 411.95 520.02 404.51 518.30 396.96 518.67 C 398.41 511.70 400.14 504.78 401.98 497.91 Z" />
<path fill="#ffffff" d=" M 614.34 522.42 C 619.77 514.06 625.37 505.80 631.30 497.79 C 631.27 504.13 631.41 510.48 631.28 516.82 C 631.37 519.04 628.60 519.23 627.14 520.09 C 622.39 521.79 618.10 524.77 613.18 525.86 C 613.40 524.66 613.56 523.41 614.34 522.42 Z" />
<path fill="#ffffff" d=" M 509.22 500.86 C 513.33 499.33 517.70 499.39 521.82 500.88 C 520.87 503.94 519.60 506.89 518.84 510.01 C 516.19 508.44 514.20 506.04 511.68 504.30 C 510.65 503.34 508.77 502.67 509.22 500.86 Z" />
<path fill="#ffffff" d=" M 450.85 538.63 C 454.69 526.46 458.18 514.14 463.02 502.31 C 465.01 502.85 466.97 503.52 468.87 504.38 C 469.57 504.48 470.97 504.69 471.67 504.79 C 471.75 513.29 467.88 521.26 466.08 529.47 C 462.49 529.35 458.12 528.44 455.39 531.40 C 452.49 533.89 452.13 537.93 451.03 541.35 C 450.94 540.44 450.63 539.53 450.85 538.63 Z" />
<path fill="#ffffff" d=" M 471.15 531.94 C 473.09 523.66 475.64 515.52 477.50 507.22 C 480.64 508.86 483.97 510.09 487.08 511.81 C 481.83 527.83 477.11 544.02 471.98 560.07 C 470.27 559.23 468.62 558.26 467.00 557.26 C 470.78 551.53 474.54 545.06 473.86 537.92 C 473.87 535.60 472.45 533.71 471.15 531.94 Z" />
<path fill="#ffffff" d=" M 236.27 512.30 C 236.75 512.85 236.75 512.85 236.27 512.30 Z" />
<path fill="#ffffff" d=" M 579.05 519.01 C 582.34 517.64 584.78 514.94 586.83 512.11 C 587.69 515.03 589.15 517.72 590.91 520.20 C 588.85 521.29 587.02 522.77 585.94 524.87 C 584.48 522.15 582.38 519.31 579.05 519.01 Z" />
<path fill="#ffffff" d=" M 476.18 564.19 C 481.91 547.73 486.43 530.88 491.97 514.35 C 494.34 515.87 496.76 517.34 499.10 518.94 C 495.25 529.76 491.83 540.74 487.39 551.35 C 486.87 551.68 485.82 552.34 485.30 552.67 C 484.29 556.93 484.35 561.39 485.37 565.65 C 482.21 565.60 479.17 566.54 476.05 566.80 C 474.90 566.33 476.14 564.97 476.18 564.19 Z" />
<path fill="#ffffff" d=" M 517.31 516.77 C 518.63 518.00 520.78 518.96 520.92 520.99 C 520.76 523.62 519.92 526.14 519.37 528.71 C 518.14 527.39 516.87 526.11 515.54 524.91 C 515.99 522.16 516.57 519.45 517.31 516.77 Z" />
<path fill="#ffffff" d=" M 602.07 522.23 C 602.37 521.95 602.99 521.38 603.29 521.09 C 603.23 523.54 602.61 525.93 601.73 528.21 C 600.96 526.41 600.24 524.58 599.51 522.78 C 600.15 522.64 601.43 522.37 602.07 522.23 Z" />
<path fill="#ffffff" d=" M 503.78 522.18 C 505.63 523.82 507.51 525.43 509.44 526.99 C 509.02 533.03 506.89 538.73 505.29 544.53 C 503.58 550.37 501.88 556.22 500.15 562.05 C 497.53 560.18 494.81 558.39 492.59 556.04 C 491.36 554.81 492.58 553.13 492.95 551.81 C 497.10 542.13 500.07 532.02 503.78 522.18 Z" />
<path fill="#ffffff" d=" M 574.49 528.91 C 574.51 527.08 575.49 525.56 576.84 524.39 C 578.41 525.46 579.97 526.56 581.51 527.70 C 583.64 534.27 582.46 541.22 582.85 547.99 C 580.80 546.53 578.44 545.61 575.91 545.55 C 575.33 540.01 573.32 534.52 574.49 528.91 Z" />
<path fill="#ffffff" d=" M 395.71 524.35 C 404.98 523.81 414.20 525.41 423.45 525.21 C 425.38 528.45 427.64 531.58 428.76 535.25 C 417.20 536.29 405.58 535.12 393.99 535.43 C 394.27 531.70 395.01 528.02 395.71 524.35 Z" />
<path fill="#ffffff" d=" M 559.96 525.31 C 561.75 525.62 564.21 524.88 565.26 526.86 C 568.94 532.40 569.37 539.20 570.69 545.54 C 571.49 548.03 569.14 549.89 568.17 551.94 C 567.40 551.70 566.63 551.46 565.87 551.24 C 562.97 542.88 558.81 534.44 559.96 525.31 Z" />
<path fill="#ffffff" d=" M 590.52 527.27 C 591.07 525.68 592.98 526.31 594.24 526.22 C 598.44 532.65 595.53 540.41 594.04 547.20 C 592.04 547.24 590.05 547.37 588.07 547.58 C 588.34 540.79 586.85 533.42 590.52 527.27 Z" />
<path fill="#ffffff" d=" M 621.50 526.93 C 622.68 526.42 623.86 525.90 625.04 525.37 C 626.23 527.97 627.91 530.29 630.21 532.02 C 632.12 533.26 631.01 535.78 631.28 537.65 C 625.47 537.74 622.04 532.11 621.50 526.93 Z" />
<path fill="#ffffff" d=" M 607.61 529.43 C 608.10 529.35 609.08 529.20 609.58 529.12 C 611.42 537.61 608.10 546.13 605.51 554.12 C 604.17 554.25 602.84 554.41 601.53 554.58 C 600.78 552.67 599.79 550.87 599.11 548.95 C 599.66 541.70 603.25 535.09 607.61 529.43 Z" />
<path fill="#ffffff" d=" M 615.44 529.70 C 615.94 529.57 616.94 529.31 617.45 529.18 C 618.13 531.55 618.18 534.01 615.59 535.09 C 615.51 533.29 615.47 531.49 615.44 529.70 Z" />
<path fill="#ffffff" d=" M 524.32 530.46 C 525.46 531.10 526.67 531.59 527.92 532.02 C 527.36 533.12 527.07 535.02 525.41 534.65 C 523.71 534.08 524.31 531.81 524.32 530.46 Z" />
<path fill="#ffffff" d=" M 542.17 531.10 C 544.15 529.64 547.38 530.08 549.02 531.97 C 553.86 536.46 556.49 542.70 559.42 548.50 C 560.95 550.70 557.71 552.23 555.98 552.68 C 551.21 548.93 546.60 544.87 542.76 540.17 C 540.80 537.66 538.99 533.41 542.17 531.10 Z" />
<path fill="#ffffff" d=" M 504.95 565.18 C 508.14 553.97 511.43 542.79 514.71 531.61 C 517.69 534.72 520.84 537.68 523.75 540.88 C 521.53 544.17 521.50 548.23 523.48 551.64 C 520.41 551.37 516.34 551.95 515.35 555.44 C 513.85 559.57 516.16 563.51 518.06 567.04 C 515.72 567.28 513.68 568.39 512.00 569.99 C 509.61 568.45 507.27 566.82 504.95 565.18 Z" />
<path fill="#ffffff" d=" M 457.49 536.36 C 460.37 530.62 469.60 535.49 469.26 541.00 C 468.89 546.72 465.17 551.50 461.55 555.68 C 460.55 555.67 459.56 555.68 458.58 555.69 C 456.98 549.46 455.33 542.64 457.49 536.36 Z" />
<path fill="#ffffff" d=" M 433.57 544.00 C 434.70 540.36 438.54 538.71 442.08 538.64 C 449.26 541.76 451.76 550.05 453.56 557.00 C 452.90 557.40 451.57 558.20 450.91 558.60 C 444.22 555.17 436.45 551.46 433.57 544.00 Z" />
<path fill="#ffffff" d=" M 426.32 540.49 C 427.81 540.45 429.24 539.96 430.66 539.50 C 429.30 542.75 429.21 546.35 430.55 549.63 C 429.37 549.36 428.21 549.11 427.05 548.83 C 421.06 548.54 414.98 548.24 409.02 549.08 C 403.40 549.65 397.74 549.80 392.12 550.48 C 392.25 547.20 392.57 543.93 392.92 540.67 C 404.05 540.66 415.19 540.89 426.32 540.49 Z" />
<path fill="#ffffff" d=" M 615.50 543.44 C 616.98 540.41 620.47 538.89 623.75 539.27 C 623.36 547.50 616.00 552.64 612.39 559.46 C 611.76 558.30 611.12 557.15 610.46 556.02 C 611.93 551.75 613.57 547.53 615.50 543.44 Z" />
<path fill="#ffffff" d=" M 528.40 544.13 C 528.90 542.21 531.14 542.12 532.77 542.12 C 535.93 542.13 538.57 544.13 540.92 546.04 C 544.86 549.44 548.30 553.39 551.70 557.33 C 553.50 558.99 552.85 561.62 553.10 563.79 C 551.12 563.75 548.84 564.32 547.19 562.87 C 541.70 558.91 535.09 556.61 530.16 551.85 C 528.30 549.86 526.98 546.72 528.40 544.13 Z" />
<path fill="#ffffff" d=" M 617.12 561.94 C 620.10 556.33 624.62 550.74 631.01 549.02 C 631.51 551.46 631.11 553.93 630.07 556.19 C 625.97 557.58 622.61 560.47 619.89 563.76 C 619.19 563.31 617.81 562.39 617.12 561.94 Z" />
<path fill="#ffffff" d=" M 573.26 552.18 C 573.83 550.59 575.68 550.27 576.98 549.52 C 577.98 549.97 578.99 550.42 580.01 550.88 C 581.17 552.97 581.99 555.22 582.64 557.53 C 579.91 558.23 577.09 558.60 574.46 559.64 C 573.52 557.32 571.91 554.66 573.26 552.18 Z" />
<path fill="#ffffff" d=" M 587.23 557.55 C 587.29 554.41 589.61 550.78 593.22 551.72 C 596.69 552.85 596.68 557.11 595.34 559.88 C 595.06 559.60 594.52 559.04 594.25 558.77 C 591.89 558.44 589.56 558.00 587.23 557.55 Z" />
<path fill="#ffffff" d=" M 373.26 553.15 C 379.65 554.44 385.71 558.17 389.19 563.77 C 391.29 567.15 392.08 571.12 392.81 574.98 C 391.76 574.02 390.69 573.08 389.65 572.13 C 389.63 568.07 387.48 564.56 385.09 561.46 C 383.91 561.46 382.74 561.47 381.57 561.50 C 380.15 564.52 382.90 566.84 383.96 569.44 C 382.44 568.95 380.88 568.57 379.31 568.38 C 375.59 564.22 372.67 558.91 373.26 553.15 Z" />
<path fill="#ffffff" d=" M 391.39 555.67 C 399.84 555.61 408.20 554.08 416.66 554.09 C 413.14 557.43 413.18 562.70 415.95 566.46 C 409.71 568.22 403.11 567.81 396.71 568.47 C 395.89 563.76 391.74 560.38 391.39 555.67 Z" />
<path fill="#ffffff" d=" M 562.68 566.50 C 557.36 565.46 556.95 557.64 561.84 555.73 C 565.59 554.96 567.82 558.78 569.89 561.21 C 567.34 562.77 564.90 564.51 562.68 566.50 Z" />
<path fill="#ffffff" d=" M 419.08 559.21 C 420.44 556.92 423.62 556.99 425.95 556.64 C 433.52 556.56 440.71 559.57 447.53 562.58 C 446.57 566.76 448.85 570.58 451.52 573.57 C 447.85 572.97 444.14 573.94 440.49 573.55 C 434.40 570.89 428.32 568.03 422.83 564.23 C 421.18 562.96 418.93 561.60 419.08 559.21 Z" />
<path fill="#ffffff" d=" M 520.19 557.64 C 524.77 557.23 529.51 558.12 533.40 560.65 C 537.01 562.99 540.70 565.20 544.60 567.03 C 543.62 569.18 542.89 571.43 542.38 573.74 C 537.13 570.78 530.76 570.10 526.08 566.09 C 523.57 563.80 519.91 561.47 520.19 557.64 Z" />
<path fill="#ffffff" d=" M 600.13 561.08 C 602.14 559.72 604.75 558.54 607.09 559.87 C 608.57 561.77 607.75 564.24 606.49 566.00 C 604.49 564.19 602.38 562.53 600.13 561.08 Z" />
<path fill="#ffffff" d=" M 489.60 560.17 C 495.37 566.09 503.09 569.44 509.51 574.50 C 511.98 576.19 512.29 579.26 511.36 581.91 C 500.28 581.03 489.84 571.62 489.60 560.17 Z" />
<path fill="#ffffff" d=" M 453.86 561.84 C 460.57 558.46 469.10 562.53 471.81 569.30 C 469.36 571.22 467.12 573.41 465.31 575.96 C 460.28 575.25 456.12 571.64 453.36 567.55 C 452.11 565.88 451.46 562.82 453.86 561.84 Z" />
<path fill="#ffffff" d=" M 571.02 565.98 C 580.71 560.01 594.40 561.51 602.53 569.51 C 606.17 573.01 608.26 577.93 608.70 582.93 C 608.95 584.80 607.79 586.37 607.00 587.96 C 605.25 578.07 597.81 569.44 588.06 566.75 C 582.85 565.99 577.37 566.90 573.17 570.23 C 566.50 574.87 563.38 583.79 565.60 591.60 C 567.68 600.88 575.37 607.90 584.16 610.91 C 582.47 611.71 580.67 612.96 578.72 612.31 C 568.33 607.92 560.20 597.50 560.16 586.00 C 560.05 578.09 564.14 570.03 571.02 565.98 Z" />
<path fill="#ffffff" d=" M 622.00 568.64 C 624.95 565.94 628.37 563.82 631.30 561.09 C 631.31 564.63 631.29 568.18 631.36 571.74 C 628.90 569.15 625.44 568.42 622.00 568.64 Z" />
<path fill="#ffffff" d=" M 611.11 568.25 C 613.75 566.03 617.36 569.14 617.94 571.95 C 618.51 574.91 617.77 580.22 613.64 579.62 C 612.54 576.89 611.68 574.07 610.52 571.37 C 609.90 570.34 610.10 568.95 611.11 568.25 Z" />
<path fill="#ffffff" d=" M 547.66 574.08 C 546.98 570.24 551.64 567.73 554.92 568.99 C 556.29 569.54 558.86 569.26 558.76 571.33 C 557.55 574.12 556.13 576.83 555.36 579.80 C 552.56 578.29 549.07 577.22 547.66 574.08 Z" />
<path fill="#ffffff" d=" M 397.60 573.64 C 405.42 573.00 413.51 573.30 420.97 570.52 C 421.73 571.11 422.50 571.69 423.28 572.27 C 416.81 571.87 408.92 573.54 406.34 580.31 C 403.78 580.21 401.22 580.16 398.66 580.15 C 398.28 577.98 397.93 575.81 397.60 573.64 Z" />
<path fill="#ffffff" d=" M 468.68 589.48 C 466.07 580.97 473.21 571.57 481.83 570.73 C 483.59 570.63 485.37 570.70 487.14 570.75 C 488.52 573.18 490.07 575.51 491.67 577.81 C 486.77 579.62 481.25 580.90 477.58 584.87 C 477.29 586.13 477.38 587.60 478.77 588.18 C 482.74 590.23 487.12 591.28 491.22 593.05 C 489.80 595.76 487.81 598.11 486.15 600.67 C 485.88 600.48 485.34 600.09 485.08 599.90 C 478.63 598.85 471.40 595.87 468.68 589.48 Z" />
<path fill="#ffffff" d=" M 570.16 590.73 C 566.83 580.55 577.59 568.45 588.13 571.74 C 594.83 574.17 599.71 580.26 601.75 586.97 C 595.13 584.02 587.89 582.21 580.63 582.47 C 579.02 584.24 579.79 586.83 579.62 589.00 C 579.53 594.53 581.19 599.83 582.80 605.06 C 577.05 602.02 572.25 596.94 570.16 590.73 Z" />
<path fill="#ffffff" d=" M 515.80 572.71 C 520.50 571.85 525.50 572.21 529.87 574.26 C 535.15 576.65 540.68 578.48 546.32 579.81 C 544.99 581.03 543.69 582.26 542.34 583.45 C 533.62 581.77 524.01 581.11 517.01 574.96 C 516.71 574.40 516.10 573.27 515.80 572.71 Z" />
<path fill="#ffffff" d=" M 365.68 574.12 C 373.82 572.64 384.51 571.90 389.90 579.56 C 382.84 579.11 375.89 577.39 368.80 577.59 C 368.51 578.19 367.93 579.39 367.64 579.99 C 367.94 580.60 368.54 581.80 368.84 582.41 C 375.91 582.86 382.93 583.89 389.96 584.85 C 387.70 587.44 384.37 588.73 380.95 588.55 C 371.81 588.42 362.87 585.42 354.90 581.05 C 355.88 576.28 361.76 575.34 365.68 574.12 Z" />
<path fill="#ffffff" d=" M 631.55 590.99 C 630.93 585.18 629.21 579.60 627.00 574.23 C 628.42 575.63 630.07 576.88 631.17 578.58 C 631.54 582.70 631.13 586.86 631.55 590.99 Z" />
<path fill="#ffffff" d=" M 415.34 578.25 C 422.47 575.38 430.34 577.06 437.60 578.47 C 437.08 581.34 436.85 584.26 436.69 587.18 C 432.14 587.64 427.65 588.75 423.05 588.67 C 419.53 588.62 415.44 588.85 412.72 586.20 C 410.36 583.58 412.43 579.42 415.34 578.25 Z" />
<path fill="#ffffff" d=" M 443.73 578.67 C 450.24 576.17 456.83 579.90 463.25 580.96 C 463.20 583.06 463.17 585.17 463.16 587.28 C 457.57 588.58 451.86 591.11 446.03 589.87 C 441.12 588.83 441.07 581.93 443.73 578.67 Z" />
<path fill="#ffffff" d=" M 619.09 583.40 C 621.10 582.55 621.99 580.42 623.41 578.90 C 627.91 590.09 627.65 602.51 626.23 614.29 C 624.97 605.69 623.88 596.99 621.15 588.71 C 620.31 588.69 618.64 588.66 617.80 588.65 C 617.55 589.20 617.04 590.30 616.78 590.86 C 618.28 596.55 619.49 602.32 620.27 608.16 C 616.67 602.33 611.93 597.35 607.39 592.26 C 611.36 591.31 613.85 587.74 614.44 583.85 C 615.99 583.75 617.56 583.78 619.09 583.40 Z" />
<path fill="#ffffff" d=" M 485.89 585.07 C 489.32 583.93 492.67 582.57 496.06 581.33 C 498.76 583.21 501.64 584.84 504.73 586.00 C 501.54 586.51 498.90 588.37 496.04 589.70 C 492.76 587.97 488.75 587.45 485.89 585.07 Z" />
<path fill="#ffffff" d=" M 547.45 585.72 C 549.67 584.37 552.26 584.27 554.80 584.30 C 555.11 587.36 555.48 590.42 555.80 593.49 C 553.13 593.16 550.14 592.84 548.28 590.65 C 546.81 589.40 547.24 587.38 547.45 585.72 Z" />
<path fill="#ffffff" d=" M 397.61 585.19 C 400.74 585.22 403.88 585.23 407.01 585.38 C 407.86 587.49 409.16 589.36 410.71 591.02 C 405.73 592.17 401.39 596.07 396.14 595.63 C 396.96 592.20 397.89 588.75 397.61 585.19 Z" />
<path fill="#ffffff" d=" M 520.04 588.26 C 520.90 585.75 524.03 586.93 526.03 586.59 C 531.40 586.82 537.11 586.83 542.12 589.01 C 536.85 590.28 531.44 590.78 526.22 592.25 C 522.87 593.21 519.42 592.26 516.25 591.15 C 515.87 588.49 518.02 588.36 520.04 588.26 Z" />
<path fill="#ffffff" d=" M 300.98 596.88 C 318.19 591.85 335.95 587.09 354.06 588.48 C 360.06 588.19 365.30 591.54 371.06 592.67 C 368.78 595.17 367.17 598.17 366.29 601.44 C 351.54 597.21 335.89 598.15 321.05 601.42 C 300.24 605.90 280.33 613.72 259.58 618.44 C 256.69 615.62 253.75 612.77 250.13 610.89 C 267.31 607.07 284.20 602.14 300.98 596.88 Z" />
<path fill="#ffffff" d=" M 584.47 587.45 C 589.56 588.02 594.99 588.75 599.31 591.72 C 608.70 600.14 617.08 610.08 621.84 621.89 C 611.70 613.05 600.79 604.50 594.07 592.58 C 592.93 592.59 591.80 592.61 590.68 592.65 C 590.39 593.89 589.78 595.25 590.63 596.44 C 597.15 607.97 608.04 615.89 617.36 624.97 C 605.71 620.67 596.37 611.97 588.06 603.02 C 585.17 598.42 584.76 592.74 584.47 587.45 Z" />
<path fill="#ffffff" d=" M 501.10 592.85 C 503.87 591.12 507.16 590.78 510.17 589.63 C 510.50 589.89 511.16 590.42 511.49 590.68 C 512.82 596.34 506.63 599.22 502.60 601.49 C 497.65 604.15 492.90 607.19 488.55 610.77 C 489.24 603.12 494.21 596.18 501.10 592.85 Z" />
<path fill="#ffffff" d=" M 387.81 593.62 C 388.76 591.71 390.93 591.05 392.60 589.93 C 389.57 599.21 380.60 605.31 371.47 607.64 C 369.61 601.16 374.52 593.47 381.46 593.40 C 380.71 594.59 378.89 595.42 379.26 597.06 C 379.03 598.89 381.03 599.07 382.24 599.65 C 384.36 597.90 386.51 596.09 387.81 593.62 Z" />
<path fill="#ffffff" d=" M 428.66 596.42 C 431.84 594.25 435.49 592.93 439.08 591.57 C 441.34 593.80 444.43 594.66 447.53 594.81 C 445.51 596.71 444.78 599.36 444.42 602.03 C 438.44 605.24 432.41 608.73 425.67 610.10 C 424.17 610.51 422.73 609.78 421.32 609.38 C 420.46 603.92 424.27 599.14 428.66 596.42 Z" />
<path fill="#ffffff" d=" M 257.09 593.78 C 260.88 592.69 264.81 592.19 268.75 592.14 C 267.35 595.50 266.16 598.97 264.35 602.15 C 259.72 602.82 255.33 604.67 250.62 604.82 C 253.62 601.70 255.59 597.80 257.09 593.78 Z" />
<path fill="#ffffff" d=" M 404.13 599.13 C 408.58 597.59 413.19 596.18 417.08 593.44 C 419.29 593.50 421.51 593.61 423.73 593.74 C 419.37 597.19 415.84 602.18 416.05 607.98 C 412.24 604.80 407.73 602.53 404.13 599.13 Z" />
<path fill="#ffffff" d=" M 451.24 598.40 C 454.87 594.89 459.73 592.43 464.85 592.38 C 465.96 594.48 467.35 596.43 469.06 598.10 C 467.98 601.78 465.93 605.75 462.11 607.14 C 458.47 607.83 454.61 606.43 451.75 604.19 C 449.87 602.92 449.57 599.95 451.24 598.40 Z" />
<path fill="#ffffff" d=" M 524.26 598.06 C 530.63 597.22 536.90 595.86 543.10 594.25 C 545.12 595.40 547.00 596.89 549.42 597.17 C 545.64 598.53 542.13 600.64 538.18 601.51 C 532.68 603.10 526.87 602.92 521.23 602.44 C 521.42 600.56 522.00 598.25 524.26 598.06 Z" />
<path fill="#ffffff" d=" M 205.67 601.92 C 207.97 594.67 218.76 597.94 220.02 604.26 C 215.52 604.41 211.01 604.63 206.60 605.60 C 206.29 604.37 205.98 603.14 205.67 601.92 Z" />
<path fill="#ffffff" d=" M 552.30 604.58 C 551.09 601.03 554.82 598.66 557.77 597.98 C 559.25 601.35 561.36 604.39 563.45 607.41 C 559.74 609.02 554.10 608.76 552.30 604.58 Z" />
<path fill="#ffffff" d=" M 384.13 608.01 C 387.44 605.55 390.62 602.86 393.13 599.56 C 407.79 607.30 421.29 617.73 431.18 631.13 C 426.12 631.17 421.06 631.26 416.01 631.15 C 413.77 631.29 412.68 629.02 411.27 627.70 C 403.56 619.52 394.21 612.93 384.13 608.01 Z" />
<path fill="#ffffff" d=" M 512.03 601.18 C 512.54 600.68 513.57 599.66 514.08 599.15 C 513.71 604.60 518.96 608.26 524.00 608.00 C 522.06 610.28 518.81 612.39 519.39 615.82 C 520.03 619.26 523.35 621.31 526.56 621.96 C 524.95 624.94 525.51 628.26 526.88 631.21 C 524.10 631.18 521.33 631.18 518.56 631.14 C 518.45 625.84 514.53 620.76 508.90 621.05 C 512.50 615.06 513.36 607.99 512.03 601.18 Z" />
<path fill="#ffffff" d=" M 465.88 610.21 C 469.29 608.02 471.55 604.63 473.59 601.23 C 476.96 603.18 480.68 604.49 484.56 604.94 C 483.47 609.36 483.34 613.93 483.86 618.44 C 485.25 618.62 486.64 618.76 488.05 618.85 C 490.17 615.59 493.49 613.49 496.44 611.08 C 496.34 613.21 496.28 615.36 496.30 617.52 C 492.88 617.23 489.71 618.45 486.59 619.65 C 482.86 622.43 480.09 626.42 479.71 631.16 C 477.50 631.17 475.29 631.18 473.08 631.19 C 474.46 623.30 469.80 616.52 465.88 610.21 Z" />
<path fill="#ffffff" d=" M 187.67 609.80 C 187.47 607.41 186.41 604.22 188.85 602.60 C 193.32 601.23 197.57 603.71 201.03 606.30 C 196.60 607.55 192.11 608.58 187.67 609.80 Z" />
<path fill="#ffffff" d=" M 345.73 603.76 C 352.62 604.24 359.61 604.79 366.23 606.92 C 366.37 607.53 366.65 608.76 366.79 609.37 C 363.20 610.96 359.75 613.08 355.90 613.97 C 352.99 610.11 349.90 606.32 345.73 603.76 Z" />
<path fill="#ffffff" d=" M 531.43 610.23 C 536.71 608.32 542.11 606.66 547.07 603.97 C 547.57 605.95 548.40 607.82 549.68 609.44 C 541.97 612.50 534.21 616.76 525.70 616.46 C 525.57 613.08 528.64 611.19 531.43 610.23 Z" />
<path fill="#ffffff" d=" M 170.87 614.96 C 170.36 611.43 170.26 606.70 173.77 604.63 C 177.55 604.75 181.08 608.09 181.99 611.70 C 178.22 612.59 174.72 614.39 170.87 614.96 Z" />
<path fill="#ffffff" d=" M 325.26 606.04 C 328.51 605.61 331.73 604.91 335.01 604.58 C 340.65 606.76 345.95 609.86 349.82 614.61 C 349.03 614.56 347.45 614.45 346.67 614.39 C 344.83 616.77 344.20 619.71 343.94 622.65 C 340.05 614.97 333.19 609.20 325.26 606.04 Z" />
<path fill="#ffffff" d=" M 502.64 620.24 C 499.32 614.69 502.25 607.56 507.31 604.22 C 508.58 609.96 507.02 616.19 502.64 620.24 Z" />
<path fill="#ffffff" d=" M 434.83 620.97 C 436.66 614.62 442.33 610.54 447.07 606.37 C 447.96 607.27 448.87 608.18 449.79 609.09 C 448.33 615.71 446.69 622.85 442.02 628.02 C 437.79 631.18 433.46 624.92 434.83 620.97 Z" />
<path fill="#ffffff" d=" M 173.75 620.00 C 190.78 613.86 208.72 608.55 227.02 609.70 C 236.84 610.67 247.14 613.59 254.15 620.93 C 257.05 623.75 258.97 627.37 260.49 631.09 C 257.01 631.18 253.50 631.42 250.05 630.82 C 245.49 620.53 233.71 615.99 223.09 615.72 C 210.55 615.88 198.31 619.40 186.69 623.92 C 186.21 626.61 187.90 628.88 189.03 631.16 C 186.11 631.02 183.05 631.63 180.21 630.78 C 177.68 627.43 175.93 623.57 173.75 620.00 Z" />
<path fill="#ffffff" d=" M 299.63 612.84 C 305.10 611.48 310.43 608.99 316.21 609.67 C 314.92 614.56 311.42 618.48 308.17 622.22 C 304.84 625.55 301.34 629.10 296.87 630.82 C 292.08 631.28 287.00 631.58 282.30 630.79 C 282.06 630.28 281.60 629.25 281.36 628.74 C 287.51 628.39 294.27 627.36 298.75 622.71 C 301.48 620.19 301.16 615.92 299.63 612.84 Z" />
<path fill="#ffffff" d=" M 358.25 619.02 C 363.89 616.78 369.28 613.92 375.00 611.88 C 378.90 610.07 382.32 613.39 385.74 614.82 C 385.80 615.18 385.94 615.90 386.01 616.27 C 376.94 619.30 367.55 621.90 359.38 627.05 C 358.92 624.38 358.51 621.70 358.25 619.02 Z" />
<path fill="#ffffff" d=" M 562.47 614.94 C 563.13 612.80 565.36 611.07 567.63 611.31 C 569.79 612.84 571.92 614.42 574.26 615.70 C 576.04 616.33 575.94 618.63 575.31 620.07 C 572.87 622.56 569.05 621.47 565.95 621.83 C 564.48 619.73 562.42 617.68 562.47 614.94 Z" />
<path fill="#ffffff" d=" M 324.60 611.97 C 329.96 613.27 333.97 617.48 337.25 621.68 C 331.13 622.36 327.44 616.43 324.60 611.97 Z" />
<path fill="#ffffff" d=" M 454.45 612.22 C 456.53 612.42 458.62 612.53 460.72 612.56 C 464.60 617.89 468.71 623.90 468.36 630.79 C 465.00 631.21 461.50 631.59 458.19 630.70 C 453.77 625.69 454.32 618.45 454.45 612.22 Z" />
<path fill="#ffffff" d=" M 580.50 617.84 C 584.61 617.82 587.39 614.52 588.90 611.05 C 594.25 616.57 600.21 621.55 606.81 625.52 C 600.18 624.56 593.83 622.30 587.79 619.46 C 586.55 620.34 585.29 621.38 585.57 623.11 C 586.49 624.37 587.99 624.99 589.38 625.62 C 594.73 627.86 600.31 629.74 606.14 630.20 C 595.64 631.50 584.76 630.86 574.80 627.10 C 578.65 625.66 580.68 621.85 580.50 617.84 Z" />
<path fill="#ffffff" d=" M 424.80 615.90 C 427.44 614.23 430.82 614.93 433.49 613.28 C 431.90 615.69 430.72 618.34 429.72 621.05 C 428.02 619.38 426.38 617.66 424.80 615.90 Z" />
<path fill="#ffffff" d=" M 551.94 614.79 C 553.71 613.83 555.64 611.93 557.66 613.53 C 557.38 614.28 556.81 615.79 556.53 616.55 C 550.40 618.55 545.10 622.28 539.58 625.49 C 537.78 626.50 535.91 627.63 533.79 627.65 C 531.50 625.81 533.18 622.48 535.42 621.50 C 540.73 618.81 546.82 617.93 551.94 614.79 Z" />
<path fill="#ffffff" d=" M 277.48 618.97 C 282.25 618.22 286.79 616.48 291.45 615.25 C 291.72 615.78 292.26 616.83 292.53 617.36 C 293.17 617.66 294.45 618.27 295.09 618.57 C 291.51 623.32 284.54 622.97 279.17 623.51 C 278.50 622.56 277.84 621.61 277.17 620.68 C 277.25 620.25 277.40 619.40 277.48 618.97 Z" />
<path fill="#ffffff" d=" M 313.11 624.87 C 315.28 622.09 317.33 619.23 319.38 616.38 C 319.39 618.26 319.81 620.23 319.29 622.09 C 317.91 624.11 315.28 624.32 313.11 624.87 Z" />
<path fill="#ffffff" d=" M 143.35 624.00 C 147.89 617.70 156.61 616.04 163.63 618.83 C 159.89 621.72 157.10 626.20 158.31 631.11 C 152.78 631.25 147.24 631.18 141.71 631.13 C 143.55 630.71 146.70 630.56 146.50 627.97 C 147.15 625.66 143.44 625.94 143.35 624.00 Z" />
<path fill="#ffffff" d=" M 363.41 630.33 C 373.00 625.77 383.16 622.70 393.21 619.35 C 395.31 620.82 397.36 622.37 399.27 624.09 C 394.29 625.49 389.51 627.51 384.89 629.84 C 381.88 631.54 378.31 631.14 374.99 631.21 C 371.11 631.27 367.24 630.92 363.41 630.33 Z" />
<path fill="#ffffff" d=" M 262.92 622.92 C 265.59 622.31 268.25 621.67 270.94 621.22 C 273.37 624.22 275.48 627.48 276.75 631.15 C 273.40 631.14 270.05 631.32 266.71 631.10 C 264.87 628.74 264.43 625.52 262.92 622.92 Z" />
<path fill="#ffffff" d=" M 354.74 631.34 C 348.99 631.63 347.77 624.09 349.63 619.95 C 353.08 622.74 354.59 627.01 354.74 631.34 Z" />
<path fill="#ffffff" d=" M 163.39 630.60 C 162.29 626.61 165.63 623.56 168.87 621.96 C 170.47 625.07 172.26 628.08 173.97 631.13 C 170.44 631.24 166.88 631.28 163.39 630.60 Z" />
<path fill="#ffffff" d=" M 193.17 627.00 C 202.85 623.97 212.76 620.85 223.03 621.24 C 228.92 621.18 235.00 622.49 239.68 626.23 C 234.72 627.05 229.85 628.25 224.97 629.42 C 215.91 632.04 206.36 630.96 197.07 631.16 C 194.62 631.46 193.87 628.75 193.17 627.00 Z" />
<path fill="#ffffff" d=" M 324.82 620.97 C 328.61 625.28 334.29 627.70 340.04 626.51 C 340.37 628.05 340.71 629.60 341.04 631.16 C 329.33 631.07 317.60 631.43 305.90 630.99 C 311.33 630.41 317.27 630.19 321.83 626.81 C 323.81 625.53 324.30 623.09 324.82 620.97 Z" />
<path fill="#ffffff" d=" M 541.72 631.14 C 546.89 627.70 552.35 624.65 558.18 622.48 C 555.61 625.19 553.97 628.79 550.96 631.05 C 547.89 631.35 544.80 631.14 541.72 631.14 Z" />
<path fill="#ffffff" d=" M 490.69 623.78 C 493.20 622.79 495.93 623.44 498.50 623.82 C 498.56 624.20 498.67 624.98 498.73 625.37 C 496.45 627.17 494.54 629.46 492.01 630.91 C 489.68 631.39 487.29 631.14 484.95 631.16 C 485.79 628.06 487.70 625.16 490.69 623.78 Z" />
<path fill="#ffffff" d=" M 628.57 629.78 C 629.16 627.27 629.64 624.73 630.23 622.22 C 632.18 624.77 631.07 628.17 631.31 631.15 C 629.79 631.15 628.27 631.17 626.77 631.18 C 627.37 630.71 627.97 630.24 628.57 629.78 Z" />
<path fill="#ffffff" d=" M 446.35 631.12 C 447.91 628.99 449.37 626.77 450.37 624.32 C 451.03 626.64 451.79 628.95 452.66 631.21 C 450.55 631.18 448.45 631.16 446.35 631.12 Z" />
<path fill="#ffffff" d=" M 505.11 626.78 C 507.46 626.57 509.83 626.52 512.20 626.64 C 512.83 628.06 513.22 629.56 513.33 631.13 C 510.88 631.16 508.42 631.32 505.98 631.09 C 504.90 630.02 505.47 628.13 505.11 626.78 Z" />
<path fill="#ffffff" d=" M 394.61 630.20 C 398.00 629.97 401.26 629.02 404.56 628.29 C 405.59 629.27 406.63 630.23 407.69 631.20 C 403.31 631.20 398.87 631.45 394.61 630.20 Z" />
</svg>
