<?xml version="1.0" encoding="UTF-8" ?>
<!DOCTYPE svg PUBLIC "-//W3C//DTD SVG 1.1//EN" "http://www.w3.org/Graphics/SVG/1.1/DTD/svg11.dtd">
<svg width="682pt" height="682pt" viewBox="0 0 682 682" version="1.1" xmlns="http://www.w3.org/2000/svg">
<path fill="#95321f" d=" M 0.00 0.00 L 0.02 0.00 C 16.13 15.89 32.06 31.98 48.08 47.97 C 52.14 52.85 56.51 57.44 61.09 61.83 C 161.96 162.97 263.08 263.87 364.01 364.95 C 451.89 453.08 540.05 540.94 627.96 629.04 C 630.28 631.04 632.94 632.65 635.06 634.90 C 650.65 650.64 666.44 666.19 682.00 681.96 L 682.00 682.00 L 0.00 682.00 L 0.00 0.00 Z" />
<path fill="#ffffff" d=" M 0.02 0.00 L 682.00 0.00 L 682.00 681.96 C 666.44 666.19 650.65 650.64 635.06 634.90 C 632.94 632.65 630.28 631.04 627.96 629.04 C 540.05 540.94 451.89 453.08 364.01 364.95 C 263.08 263.87 161.96 162.97 61.09 61.83 C 56.51 57.44 52.14 52.85 48.08 47.97 C 32.06 31.98 16.13 15.89 0.02 0.00 Z" />
<path fill="#ffffff" d=" M 50.66 150.51 C 56.08 148.14 62.02 145.98 68.02 146.77 C 72.39 147.36 75.21 152.95 72.51 156.60 C 70.18 159.57 65.87 158.68 62.62 158.59 C 63.92 157.60 65.16 156.55 66.36 155.45 C 66.88 154.16 66.37 152.71 66.39 151.37 C 61.80 150.85 57.63 154.79 57.38 159.32 C 55.26 158.46 52.98 158.22 50.71 158.03 C 50.69 155.52 50.68 153.02 50.66 150.51 Z" />
<path fill="#ffffff" d=" M 50.74 163.17 C 52.26 163.22 53.78 163.28 55.31 163.36 C 58.13 171.17 54.27 179.47 50.89 186.47 C 50.49 178.71 50.72 170.93 50.74 163.17 Z" />
<path fill="#ffffff" d=" M 57.07 185.97 C 60.68 180.31 64.96 174.06 72.00 172.60 C 74.73 173.50 78.60 174.62 78.89 178.05 C 78.77 181.16 75.75 182.92 73.44 184.45 C 70.11 186.36 66.62 188.21 62.80 188.86 C 60.68 188.57 58.99 186.85 57.07 185.97 Z" />
<path fill="#ffffff" d=" M 50.77 190.44 C 54.16 191.14 57.88 191.84 60.32 194.51 C 62.77 197.91 61.76 202.35 60.68 206.04 C 58.08 206.44 55.54 207.14 53.03 207.89 C 52.07 206.38 50.59 204.96 50.71 203.03 C 50.59 198.83 50.67 194.64 50.77 190.44 Z" />
<path fill="#ffffff" d=" M 89.23 236.66 C 81.66 229.40 77.76 216.79 83.91 207.50 C 85.68 213.34 87.94 219.02 90.67 224.49 C 92.47 228.16 94.17 232.85 91.29 236.45 C 90.78 236.50 89.75 236.61 89.23 236.66 Z" />
<path fill="#ffffff" d=" M 54.93 212.91 C 61.18 208.25 69.25 211.47 75.73 213.88 C 75.89 216.88 75.96 219.89 76.17 222.90 C 71.03 222.00 66.19 219.78 60.96 219.40 C 60.64 220.06 59.99 221.38 59.66 222.03 C 61.02 227.16 64.37 231.33 66.93 235.87 C 64.40 236.43 61.95 237.32 59.67 238.56 C 55.67 236.29 51.27 233.07 50.92 228.07 C 50.46 222.83 50.10 216.35 54.93 212.91 Z" />
<path fill="#ffffff" d=" M 66.73 225.59 C 70.34 226.74 74.03 227.62 77.73 228.43 C 78.96 231.24 80.45 233.93 82.11 236.51 C 79.04 235.66 75.86 235.33 72.69 235.26 C 70.62 232.09 68.42 228.99 66.73 225.59 Z" />
<path fill="#ffffff" d=" M 55.17 248.32 C 59.43 243.56 65.49 240.29 71.98 240.34 C 76.44 240.03 80.71 241.51 84.86 242.93 C 85.40 245.98 83.14 248.83 79.93 248.56 C 71.68 248.70 63.43 248.01 55.17 248.32 Z" />
<path fill="#ffffff" d=" M 94.13 248.67 C 94.38 247.37 95.11 246.22 95.64 245.03 C 102.76 252.77 109.13 261.35 113.51 270.95 C 104.91 265.82 97.54 258.21 94.13 248.67 Z" />
<path fill="#ffffff" d=" M 85.08 252.05 C 86.36 251.27 87.61 250.46 88.87 249.65 C 92.03 257.97 97.48 265.21 104.12 271.08 C 98.24 271.06 92.61 274.25 89.70 279.36 C 87.82 280.01 85.87 280.40 83.90 280.60 C 77.82 276.78 73.45 270.17 72.54 263.04 C 71.99 259.08 74.63 255.78 78.02 254.16 C 80.09 255.49 81.61 257.43 81.80 259.96 C 79.44 259.19 77.10 258.24 74.57 258.27 C 74.37 260.29 74.32 262.54 76.04 263.97 C 77.74 266.33 80.89 265.61 83.39 265.70 C 84.72 263.94 86.40 262.18 86.54 259.86 C 86.88 257.16 85.79 254.60 85.08 252.05 Z" />
<path fill="#ffffff" d=" M 57.01 253.47 C 61.35 253.23 65.70 253.33 70.05 253.45 C 67.26 258.54 67.33 264.47 68.71 269.97 C 64.73 264.53 61.28 258.71 57.01 253.47 Z" />
<path fill="#ffffff" d=" M 49.54 254.39 C 52.19 254.53 52.94 257.98 54.56 259.66 C 53.38 263.08 52.01 266.44 50.68 269.80 C 50.69 264.89 50.65 259.98 50.72 255.07 L 49.54 254.39 Z" />
<path fill="#ffffff" d=" M 53.46 275.40 C 55.46 272.03 57.01 268.42 58.62 264.85 C 60.78 268.04 63.09 271.12 65.45 274.17 C 62.00 283.55 56.30 291.83 50.68 300.02 C 50.74 294.07 50.59 288.12 50.71 282.17 C 50.71 279.63 52.30 277.53 53.46 275.40 Z" />
<path fill="#ffffff" d=" M 126.17 283.06 C 125.37 275.08 132.80 269.46 140.05 268.67 C 144.91 269.27 149.13 272.35 151.21 276.78 C 153.83 281.48 154.18 287.00 153.65 292.25 C 152.06 292.81 150.48 293.37 148.89 293.93 C 149.96 288.75 150.96 283.18 148.95 278.10 C 147.00 273.33 140.79 271.32 136.20 273.33 C 131.57 274.91 128.14 278.68 126.17 283.06 Z" />
<path fill="#ffffff" d=" M 93.55 282.58 C 97.02 276.33 105.86 274.47 111.78 278.24 C 114.37 279.63 115.70 282.34 117.21 284.73 C 113.49 281.63 108.76 279.79 103.92 279.72 C 99.35 279.93 95.19 283.44 94.57 288.04 C 93.63 293.93 97.06 299.29 100.43 303.79 C 98.66 303.77 96.88 303.74 95.10 303.70 C 91.64 297.37 89.77 289.20 93.55 282.58 Z" />
<path fill="#ffffff" d=" M 140.18 277.37 C 140.31 277.60 140.58 278.06 140.71 278.29 C 141.33 278.35 142.56 278.48 143.18 278.54 C 147.24 286.08 143.58 295.04 139.87 301.98 C 133.63 310.54 131.30 321.29 131.38 331.74 C 127.65 322.08 121.20 313.21 112.23 307.82 C 106.88 303.73 102.11 298.38 99.96 291.91 C 99.15 290.12 99.91 288.27 100.33 286.50 C 102.80 285.47 105.44 285.28 108.08 285.48 C 110.17 286.50 112.22 287.61 114.02 289.10 C 113.81 289.23 113.38 289.51 113.17 289.64 C 112.27 287.06 109.87 287.06 107.59 287.43 C 107.07 291.00 108.36 295.07 111.92 296.53 C 114.08 296.90 116.27 296.66 118.44 296.60 C 120.79 294.54 122.17 291.73 122.73 288.68 C 124.16 291.38 126.58 294.03 129.94 293.71 C 133.51 294.24 136.84 291.45 137.45 288.00 C 137.91 285.95 136.94 283.98 136.40 282.06 C 132.93 281.42 131.98 284.47 130.73 286.95 C 131.40 281.97 135.93 279.13 140.18 277.37 Z" />
<path fill="#ffffff" d=" M 69.12 279.23 C 71.06 282.13 73.40 284.82 74.87 288.01 C 68.67 301.76 58.26 313.05 50.66 326.00 C 50.78 320.73 50.53 315.45 50.75 310.18 C 50.80 308.51 51.88 307.14 52.80 305.84 C 59.06 297.51 64.99 288.82 69.12 279.23 Z" />
<path fill="#ffffff" d=" M 161.07 282.26 C 161.55 281.89 162.51 281.14 162.99 280.77 C 162.40 283.38 160.87 285.59 159.42 287.79 C 159.28 286.06 159.15 284.34 159.04 282.62 C 159.55 282.53 160.56 282.35 161.07 282.26 Z" />
<path fill="#ffffff" d=" M 78.78 283.42 C 81.20 285.03 84.00 285.76 86.91 285.67 C 86.67 288.04 86.47 290.43 86.25 292.81 C 82.01 291.65 81.16 286.58 78.78 283.42 Z" />
<path fill="#ffffff" d=" M 168.95 282.22 C 168.04 285.41 167.36 288.89 165.10 291.44 C 164.56 291.51 163.49 291.66 162.95 291.73 C 165.13 288.68 167.29 285.60 168.95 282.22 Z" />
<path fill="#ffffff" d=" M 51.50 334.96 C 59.45 320.52 70.47 308.04 78.30 293.53 C 80.87 297.42 82.94 301.61 84.78 305.89 C 77.25 320.72 62.88 330.44 54.86 344.91 C 53.80 341.57 52.64 338.27 51.50 334.96 Z" />
<path fill="#ffffff" d=" M 156.45 296.57 C 159.07 296.63 161.69 296.69 164.31 296.69 C 168.94 298.49 173.19 302.71 172.75 308.03 C 172.70 312.55 168.75 315.28 165.64 317.88 C 167.66 315.49 170.59 313.38 170.78 309.99 C 171.53 305.82 169.34 301.98 166.90 298.80 C 166.01 298.25 165.14 297.70 164.26 297.16 C 155.40 295.97 148.09 302.48 143.04 308.97 C 136.63 317.73 137.82 329.37 140.66 339.22 C 139.83 339.30 138.18 339.45 137.36 339.53 C 135.75 328.67 137.00 317.07 142.47 307.41 C 145.46 302.22 150.52 297.65 156.73 297.21 L 156.45 296.57 Z" />
<path fill="#ffffff" d=" M 92.18 310.06 C 97.15 309.35 102.30 309.08 107.13 310.65 C 119.00 316.46 126.02 328.95 129.03 341.38 C 127.97 341.49 126.91 341.59 125.85 341.70 C 124.93 333.16 122.00 324.40 115.62 318.37 C 111.94 314.57 107.00 312.47 102.18 310.54 C 98.85 310.33 95.51 310.27 92.18 310.06 Z" />
<path fill="#ffffff" d=" M 78.67 323.64 C 81.92 320.14 84.63 316.20 87.62 312.49 C 88.55 316.12 90.73 319.74 90.48 323.53 C 83.11 338.51 69.02 348.59 60.11 362.53 C 59.35 359.05 57.84 355.74 57.39 352.20 C 61.51 340.78 70.88 332.55 78.67 323.64 Z" />
<path fill="#ffffff" d=" M 94.52 315.52 C 107.03 314.36 117.77 325.39 119.61 337.18 C 119.29 336.76 118.66 335.93 118.34 335.51 C 115.31 334.04 111.93 334.14 108.68 334.56 C 107.46 337.15 107.18 340.57 109.72 342.49 C 112.23 343.23 113.10 340.81 114.26 339.18 C 114.81 340.06 115.41 340.91 115.99 341.79 C 108.41 346.17 101.37 351.40 93.90 355.96 C 93.33 356.58 92.75 357.19 92.17 357.81 C 95.32 351.21 97.83 344.29 98.31 336.92 C 103.36 334.16 104.94 327.52 102.67 322.43 C 102.24 320.70 100.38 320.46 98.92 320.22 C 98.17 321.53 97.42 322.83 96.70 324.14 C 95.96 321.27 95.22 318.40 94.52 315.52 Z" />
<path fill="#ffffff" d=" M 62.48 369.03 C 70.42 354.85 83.64 344.77 92.46 331.24 C 93.22 339.91 91.24 348.94 85.89 355.93 C 80.24 363.71 71.97 368.91 63.83 373.73 C 63.37 372.16 62.92 370.59 62.48 369.03 Z" />
<path fill="#ffffff" d=" M 147.98 336.62 C 148.64 334.72 149.62 332.95 151.25 331.73 C 151.38 332.29 151.62 333.41 151.74 333.97 C 150.47 334.82 149.24 335.74 147.98 336.62 Z" />
<path fill="#ffffff" d=" M 186.10 337.18 C 191.32 333.47 198.17 334.10 203.96 335.94 C 207.44 337.80 211.31 340.00 212.49 344.06 C 213.87 347.90 210.37 351.39 211.59 355.26 C 212.44 355.30 213.30 355.34 214.17 355.37 C 216.11 354.21 218.07 353.08 220.02 351.94 C 223.85 351.26 228.18 350.58 231.68 352.74 C 236.42 355.46 241.19 360.20 240.69 366.11 C 240.37 371.21 236.63 375.04 233.99 379.10 C 232.82 380.37 234.27 381.93 234.65 383.21 C 237.13 383.24 239.62 383.37 242.10 383.55 C 250.36 387.18 253.56 398.31 248.78 405.85 C 246.83 409.17 243.16 410.77 239.63 411.82 C 239.34 412.37 238.77 413.48 238.48 414.03 C 239.26 415.12 240.05 416.21 240.85 417.31 C 241.97 417.40 243.09 417.49 244.21 417.59 C 247.40 419.30 250.58 421.57 251.84 425.12 C 255.35 434.76 250.48 447.62 240.09 450.48 C 236.98 449.93 233.79 448.77 230.64 449.68 C 230.06 451.89 231.65 453.63 232.58 455.47 C 235.31 460.19 236.46 466.34 233.69 471.31 C 231.89 468.03 229.50 465.08 226.31 463.09 C 225.78 459.03 225.45 454.59 222.69 451.32 C 220.83 448.80 217.89 447.51 215.12 446.28 C 218.56 440.65 220.86 434.44 223.49 428.43 C 225.06 424.95 228.80 423.75 232.38 424.22 C 233.78 426.47 234.84 428.90 235.64 431.42 C 234.88 431.45 233.34 431.51 232.57 431.54 C 231.09 434.09 230.88 437.10 232.46 439.67 C 234.21 439.65 235.95 439.61 237.70 439.57 C 243.75 432.84 239.14 419.72 229.97 418.71 C 227.75 418.97 225.69 419.92 223.62 420.70 C 224.29 411.31 220.53 399.78 228.37 392.40 C 228.97 392.41 230.18 392.43 230.78 392.44 C 231.00 393.03 231.44 394.23 231.67 394.83 C 229.54 397.07 228.52 400.07 229.74 403.04 C 230.57 403.56 231.40 404.09 232.22 404.65 C 235.66 402.72 237.52 398.87 236.96 394.95 C 236.78 391.34 234.13 386.97 230.06 387.35 C 225.03 386.65 222.12 391.57 220.02 395.30 C 218.06 390.13 215.44 385.25 212.21 380.77 C 209.37 377.40 211.35 372.70 213.25 369.37 C 214.52 366.80 217.22 365.47 220.01 365.42 C 221.19 366.19 222.37 366.95 223.56 367.71 C 221.90 370.20 222.35 373.01 223.75 375.49 C 225.24 375.51 226.73 375.53 228.23 375.55 C 229.29 373.92 231.01 372.32 230.55 370.18 C 229.62 365.40 225.15 362.56 221.12 360.52 C 213.05 359.09 207.57 366.76 206.05 373.74 C 203.13 370.69 199.83 368.00 196.16 365.91 C 190.79 363.33 188.62 356.64 189.44 351.06 C 189.66 348.97 191.70 348.13 193.28 347.22 C 193.25 349.66 193.23 352.12 193.62 354.54 C 195.50 354.47 198.06 355.19 198.85 352.85 C 201.80 347.63 196.10 342.07 190.83 342.40 C 188.79 343.77 186.37 344.97 185.33 347.34 C 183.23 351.56 184.26 356.52 185.56 360.82 C 181.39 360.39 177.19 360.29 173.02 360.69 C 169.33 362.27 164.41 363.95 160.96 360.99 C 156.76 356.95 155.61 350.16 158.32 344.98 C 158.55 345.42 159.02 346.30 159.25 346.74 C 158.81 348.35 158.89 349.99 159.18 351.63 C 160.58 351.54 161.97 351.45 163.37 351.36 C 166.83 346.54 161.94 338.26 155.89 340.53 C 147.73 347.81 151.86 362.33 160.93 367.02 C 158.35 370.17 155.83 373.47 154.52 377.38 C 153.84 379.51 152.66 382.40 149.83 381.56 C 148.70 380.32 147.98 378.81 147.21 377.35 C 148.60 376.57 149.44 375.42 149.72 373.92 C 148.90 372.50 147.48 371.61 146.27 370.56 C 145.86 370.59 145.04 370.64 144.62 370.67 C 144.09 370.97 143.02 371.59 142.49 371.90 C 140.37 378.37 144.90 387.59 152.54 386.72 C 152.53 390.21 153.26 393.64 153.44 397.12 C 152.76 398.34 151.60 399.20 150.56 400.11 C 149.36 399.12 148.16 398.15 146.93 397.21 C 144.69 399.52 144.16 402.61 145.74 405.49 C 149.46 406.23 152.82 404.87 155.96 403.03 C 158.23 405.99 160.83 408.64 163.77 410.94 C 163.50 412.41 163.03 413.84 162.61 415.28 C 160.99 415.26 159.38 415.28 157.77 415.37 C 157.75 416.18 157.72 417.80 157.71 418.61 C 155.88 418.57 154.06 418.56 152.24 418.58 C 152.75 416.17 152.27 412.28 148.83 413.62 C 146.25 416.63 143.49 420.38 138.94 419.57 C 135.96 417.55 132.12 415.18 132.53 411.00 C 132.86 404.00 138.52 399.27 142.63 394.24 C 142.23 393.67 141.43 392.54 141.03 391.97 C 137.63 391.99 135.05 389.36 134.76 386.04 C 133.82 377.78 136.53 368.32 143.66 363.44 C 145.58 363.52 147.51 363.63 149.43 363.73 C 149.69 363.02 150.20 361.58 150.45 360.86 C 147.55 356.58 144.22 351.34 146.46 346.02 C 149.84 337.56 160.88 334.15 168.98 337.41 C 173.28 339.17 175.23 343.58 176.79 347.62 C 177.67 347.63 179.43 347.66 180.31 347.67 C 181.42 343.84 182.52 339.49 186.10 337.18 Z" />
<path fill="#ffffff" d=" M 133.23 345.72 C 135.93 345.56 138.64 345.40 141.34 345.25 C 140.15 349.80 141.30 354.37 142.74 358.70 C 139.23 359.78 136.63 362.37 134.45 365.21 C 132.94 358.89 133.78 352.20 133.23 345.72 Z" />
<path fill="#ffffff" d=" M 123.85 347.70 C 125.13 347.54 126.41 347.38 127.69 347.23 C 128.20 352.24 128.42 357.27 128.35 362.31 C 126.84 362.39 125.35 362.49 123.84 362.58 C 120.47 364.30 117.58 366.78 115.15 369.68 C 113.97 368.79 112.80 367.93 111.61 367.07 C 112.76 362.29 113.09 354.08 106.04 354.19 C 108.43 353.24 110.78 352.22 113.13 351.21 C 114.38 350.71 115.63 350.22 116.88 349.72 C 117.43 349.59 118.54 349.34 119.09 349.21 C 120.68 348.69 122.27 348.20 123.85 347.70 Z" />
<path fill="#ffffff" d=" M 50.72 368.83 C 50.55 362.15 50.83 355.48 50.60 348.80 C 52.98 358.09 56.07 367.17 58.99 376.29 C 57.15 376.95 55.32 377.60 53.46 378.18 C 52.26 375.17 50.81 372.13 50.72 368.83 Z" />
<path fill="#ffffff" d=" M 96.46 361.24 C 99.55 359.09 102.79 357.15 105.64 354.66 C 104.83 357.22 104.89 360.29 108.00 361.05 C 107.65 362.81 107.19 364.56 106.65 366.28 C 104.99 366.93 103.46 367.86 101.83 368.56 C 100.35 365.90 98.54 363.45 96.46 361.24 Z" />
<path fill="#ffffff" d=" M 91.54 364.48 C 94.44 363.73 96.21 367.33 97.57 369.37 C 99.05 371.06 97.52 373.00 97.11 374.80 C 91.06 374.32 85.02 373.61 79.06 372.50 C 83.31 369.97 87.24 366.92 91.54 364.48 Z" />
<path fill="#ffffff" d=" M 174.08 365.07 C 176.69 364.47 179.38 364.54 182.04 364.66 C 184.08 365.35 186.13 366.04 188.20 366.67 C 197.08 370.98 204.10 378.30 209.49 386.45 C 215.77 395.68 219.58 406.73 219.40 417.95 C 219.23 427.52 215.72 436.81 210.22 444.59 C 206.29 441.91 201.45 442.30 196.94 442.34 C 197.27 442.10 197.94 441.60 198.27 441.35 C 203.79 434.26 208.43 426.11 209.40 417.02 C 210.99 402.44 205.37 386.54 193.24 377.79 C 189.73 375.13 185.36 374.25 181.09 373.73 C 176.13 374.68 170.78 376.24 167.69 380.56 C 162.91 386.71 165.48 396.53 172.00 400.36 C 173.96 400.81 176.00 400.61 178.00 400.62 C 177.71 403.09 177.54 405.99 175.13 407.41 C 173.05 407.78 170.93 407.59 168.83 407.54 C 156.14 401.56 153.46 383.40 161.92 372.88 C 164.44 369.55 168.06 367.33 171.82 365.65 C 172.38 365.50 173.51 365.21 174.08 365.07 Z" />
<path fill="#ffffff" d=" M 126.45 367.05 C 126.62 366.78 126.94 366.24 127.11 365.97 C 127.38 366.65 127.92 368.00 128.19 368.67 C 127.54 373.50 126.97 378.37 125.66 383.08 C 122.80 380.28 119.50 377.75 118.39 373.70 C 120.41 370.78 123.07 368.29 126.45 367.05 Z" />
<path fill="#ffffff" d=" M 101.71 375.38 C 103.08 374.05 104.46 372.75 105.87 371.47 C 107.71 371.40 109.56 371.36 111.40 371.34 C 113.73 373.65 116.19 376.54 115.70 380.07 C 115.27 383.43 111.86 385.04 109.17 386.39 C 107.95 386.40 106.74 386.41 105.52 386.43 C 107.39 383.80 109.55 381.41 111.67 378.99 C 110.30 374.73 105.08 375.94 101.71 375.38 Z" />
<path fill="#ffffff" d=" M 71.11 377.61 C 78.15 377.04 85.14 377.91 92.10 378.77 C 93.34 379.04 95.82 379.57 97.05 379.84 C 92.30 382.09 87.98 385.16 83.16 387.28 C 81.48 387.89 79.81 388.56 78.14 389.23 C 76.73 389.76 75.32 390.30 73.91 390.84 C 72.22 391.48 70.53 392.10 68.83 392.72 C 67.60 393.21 66.37 393.71 65.14 394.22 C 63.44 394.83 61.76 395.48 60.07 396.14 C 58.10 397.05 56.12 397.96 54.13 398.83 C 54.15 396.54 56.08 395.18 57.26 393.46 C 59.06 391.18 58.65 388.09 59.49 385.46 C 63.25 382.68 67.40 380.47 71.11 377.61 Z" />
<path fill="#ffffff" d=" M 171.33 384.11 C 172.06 381.07 175.03 379.26 177.92 378.69 C 181.15 378.26 184.17 379.72 187.20 380.62 C 193.80 383.71 198.91 389.36 201.58 396.12 C 205.62 405.79 205.97 417.17 201.61 426.80 C 199.73 431.28 196.73 435.14 193.83 438.99 C 192.48 434.62 190.00 430.61 186.03 428.19 C 192.37 423.95 198.42 417.10 197.15 408.90 C 195.25 400.77 191.35 392.52 184.34 387.60 C 183.34 387.58 182.35 387.56 181.36 387.54 C 178.11 389.76 177.44 394.19 174.00 396.12 C 171.93 392.51 170.56 388.30 171.33 384.11 Z" />
<path fill="#ffffff" d=" M 88.79 390.08 C 93.27 387.91 97.20 384.69 101.96 383.08 C 98.35 388.90 95.49 395.12 92.16 401.09 C 88.54 407.67 82.76 412.87 76.13 416.31 C 73.50 417.37 70.85 418.37 68.16 419.25 C 66.80 419.54 65.45 419.87 64.10 420.23 C 63.21 420.35 61.42 420.61 60.53 420.73 C 60.92 418.35 61.26 415.96 61.50 413.56 C 63.89 412.07 66.39 410.77 68.93 409.58 C 69.25 409.63 69.89 409.73 70.21 409.79 C 70.76 410.75 71.32 411.72 71.88 412.70 C 73.09 412.62 74.31 412.55 75.53 412.47 C 75.10 409.63 73.65 407.20 71.43 405.42 C 67.50 405.09 63.65 406.03 60.48 408.42 C 59.64 406.33 58.77 404.25 58.07 402.13 C 59.77 401.52 61.45 400.87 63.13 400.25 C 64.77 399.55 66.41 398.85 68.08 398.22 C 69.33 397.74 70.58 397.23 71.83 396.75 C 73.27 396.26 74.68 395.70 76.12 395.22 C 77.35 394.72 78.60 394.23 79.84 393.75 C 82.85 392.59 85.88 391.47 88.79 390.08 Z" />
<path fill="#ffffff" d=" M 114.74 389.18 C 116.81 387.41 118.66 385.39 120.06 383.06 C 120.95 383.98 121.84 384.91 122.72 385.85 C 122.51 386.59 122.08 388.06 121.87 388.80 C 122.26 390.28 123.26 391.82 122.61 393.39 C 120.28 400.28 116.80 406.73 113.15 413.00 C 111.64 412.51 110.08 411.96 110.32 410.08 C 110.11 403.77 106.45 397.95 100.86 395.03 C 101.54 393.57 102.23 392.12 102.92 390.68 C 105.53 390.74 108.15 390.73 110.76 390.63 C 111.90 392.63 113.05 394.62 114.14 396.66 C 113.71 397.21 112.85 398.32 112.42 398.88 C 112.73 399.57 113.34 400.95 113.65 401.64 C 115.15 401.62 116.65 401.59 118.16 401.56 C 118.45 400.94 119.04 399.69 119.34 399.07 C 118.41 395.52 116.70 392.26 114.74 389.18 Z" />
<path fill="#ffffff" d=" M 129.84 388.10 C 130.80 390.86 132.28 393.41 134.49 395.36 C 131.12 399.98 127.71 405.07 127.67 411.01 C 127.55 414.38 129.07 417.52 131.26 420.02 C 128.86 419.23 126.45 418.51 124.05 417.76 C 122.16 417.65 120.28 417.53 118.40 417.42 C 118.31 416.87 118.14 415.78 118.05 415.23 C 123.13 406.75 127.29 397.67 129.84 388.10 Z" />
<path fill="#ffffff" d=" M 183.15 403.07 C 183.02 399.69 181.81 396.38 182.38 392.97 C 186.64 394.72 188.21 399.31 190.10 403.10 C 191.76 406.97 193.46 411.59 191.57 415.67 C 188.88 420.39 184.15 424.21 178.59 424.66 C 176.65 422.96 175.05 420.94 173.88 418.65 C 172.87 418.56 171.87 418.49 170.87 418.43 C 169.61 420.63 168.39 422.86 167.00 424.98 C 165.43 424.08 164.40 422.52 163.18 421.23 C 166.44 419.47 167.87 416.02 168.84 412.65 C 171.57 413.03 174.33 412.91 177.06 412.52 C 177.41 413.02 178.11 414.04 178.46 414.54 C 178.50 415.71 178.55 416.88 178.60 418.06 C 179.11 418.40 180.11 419.07 180.61 419.40 C 181.07 419.39 181.99 419.36 182.45 419.35 C 183.73 416.83 184.00 413.92 182.42 411.46 C 180.46 408.74 183.32 405.96 183.15 403.07 Z" />
<path fill="#ffffff" d=" M 96.22 404.04 C 97.07 402.35 97.93 400.67 98.82 399.00 C 101.14 400.26 103.58 401.74 104.69 404.27 C 106.53 407.63 105.39 411.52 105.54 415.14 C 109.00 416.03 112.78 416.82 115.31 419.56 C 119.05 423.40 120.99 429.61 118.52 434.62 C 117.35 437.08 114.75 438.20 112.36 439.12 C 111.82 442.79 115.68 445.41 114.88 449.11 C 114.60 452.80 111.01 454.77 107.93 455.91 C 106.40 454.36 104.86 452.82 103.35 451.27 C 105.29 450.33 107.53 449.32 108.20 447.05 C 109.50 443.11 107.33 439.23 105.36 435.95 C 107.82 435.19 110.66 434.38 111.87 431.84 C 113.56 428.31 112.84 423.60 109.89 420.95 C 107.84 419.23 105.13 418.71 102.59 418.19 C 102.92 412.69 100.11 407.71 96.22 404.04 Z" />
<path fill="#ffffff" d=" M 50.76 399.95 C 54.24 403.83 57.28 408.62 56.96 414.05 C 57.00 418.35 54.46 422.29 50.74 424.35 C 50.66 416.21 50.62 408.08 50.76 399.95 Z" />
<path fill="#ffffff" d=" M 91.18 411.08 C 92.14 409.97 93.10 408.86 94.06 407.75 C 96.12 409.75 97.71 412.16 98.47 414.96 C 98.13 415.76 97.46 417.36 97.12 418.16 C 95.32 415.65 93.34 413.28 91.18 411.08 Z" />
<path fill="#ffffff" d=" M 83.88 416.91 C 85.71 416.05 88.05 414.03 89.92 415.94 C 96.28 422.02 96.55 433.05 91.27 439.91 C 89.27 438.14 87.25 436.40 85.09 434.82 C 85.39 432.21 85.98 429.63 86.11 427.01 C 86.17 423.51 84.78 420.23 83.88 416.91 Z" />
<path fill="#ffffff" d=" M 68.98 424.00 C 72.86 422.83 76.62 421.28 80.39 419.81 C 81.92 423.52 82.02 427.58 81.05 431.45 C 76.84 429.33 72.61 427.20 68.12 425.74 C 66.69 425.51 65.27 425.29 63.84 425.07 C 65.56 424.72 67.27 424.37 68.98 424.00 Z" />
<path fill="#ffffff" d=" M 98.62 422.59 C 102.25 422.73 106.36 422.86 108.97 425.79 C 108.46 430.29 103.98 432.56 99.89 431.06 C 98.76 428.41 99.03 425.40 98.62 422.59 Z" />
<path fill="#ffffff" d=" M 122.37 422.38 C 128.55 423.63 133.76 428.11 135.75 434.13 C 133.77 434.23 131.80 434.33 129.83 434.43 C 128.56 431.90 126.55 429.92 123.86 429.00 C 123.36 426.79 122.83 424.59 122.37 422.38 Z" />
<path fill="#ffffff" d=" M 141.53 433.58 C 144.67 427.37 150.67 421.20 158.26 422.42 C 163.00 426.15 164.52 432.24 165.26 437.95 C 163.42 437.50 161.61 437.00 159.80 436.47 C 158.99 434.33 158.47 431.84 156.43 430.51 C 154.55 428.84 151.86 429.55 149.59 429.42 C 148.34 430.83 147.13 432.28 145.97 433.77 C 144.86 433.72 142.64 433.62 141.53 433.58 Z" />
<path fill="#ffffff" d=" M 134.32 423.03 C 135.84 423.40 137.38 423.76 138.90 424.18 C 139.66 424.30 141.18 424.53 141.95 424.65 C 140.91 425.87 139.89 427.12 138.89 428.38 C 137.48 426.50 135.95 424.71 134.32 423.03 Z" />
<path fill="#ffffff" d=" M 172.15 426.13 C 173.07 426.65 173.94 427.25 174.83 427.83 C 172.76 429.07 170.75 430.41 168.78 431.82 C 169.81 429.87 170.86 427.92 172.15 426.13 Z" />
<path fill="#ffffff" d=" M 50.69 426.42 C 50.91 426.84 51.35 427.67 51.58 428.09 C 57.34 432.23 62.81 438.45 62.30 446.02 C 61.95 451.97 56.52 456.53 50.75 456.92 C 50.70 452.30 50.47 447.66 50.97 443.06 C 51.79 437.51 50.31 431.98 50.69 426.42 Z" />
<path fill="#ffffff" d=" M 59.80 429.39 C 72.06 429.15 82.56 436.73 91.14 444.72 C 97.70 450.83 104.25 457.00 110.24 463.68 C 109.78 463.46 108.87 463.03 108.41 462.82 C 99.84 461.25 91.65 458.19 83.90 454.27 C 82.98 453.77 82.06 453.28 81.14 452.79 C 76.65 450.62 72.35 448.07 67.78 446.08 C 67.33 445.34 66.44 443.88 65.99 443.15 C 70.47 444.02 74.78 446.11 79.46 445.31 C 79.85 442.69 78.76 440.31 77.40 438.16 C 75.83 438.42 74.38 438.99 73.64 440.54 C 72.79 440.36 71.94 440.18 71.09 440.02 C 68.87 438.83 66.66 437.62 64.50 436.34 C 63.03 433.96 61.43 431.66 59.80 429.39 Z" />
<path fill="#ffffff" d=" M 169.89 439.95 C 171.63 434.39 178.48 430.50 183.97 433.06 C 189.83 436.59 189.80 444.60 187.33 450.23 C 183.03 448.17 184.57 442.60 181.13 439.89 C 180.72 439.48 179.90 438.68 179.49 438.27 C 176.86 438.14 174.87 439.70 173.17 441.52 C 172.35 441.13 170.71 440.34 169.89 439.95 Z" />
<path fill="#ffffff" d=" M 95.14 443.01 C 96.33 440.31 97.77 437.72 98.87 434.99 C 101.28 437.84 105.50 440.86 104.40 445.11 C 102.92 446.42 100.93 446.76 99.13 447.41 C 97.76 445.98 96.26 444.65 95.14 443.01 Z" />
<path fill="#ffffff" d=" M 118.67 441.87 C 123.39 440.46 128.25 439.66 133.10 438.89 C 137.35 438.55 141.63 438.53 145.88 438.91 C 162.67 440.76 179.13 447.83 191.03 459.99 C 198.23 467.11 203.38 476.09 206.59 485.65 C 204.68 486.48 202.73 487.22 200.79 487.97 C 201.22 484.48 201.56 480.97 201.41 477.45 C 196.26 476.84 191.75 479.75 186.93 480.94 C 185.33 478.77 183.51 476.46 180.79 475.71 C 179.06 475.47 177.31 475.54 175.58 475.51 C 171.04 478.56 169.50 484.54 171.82 489.48 C 175.26 490.31 178.35 488.82 180.51 486.17 C 180.22 485.47 179.63 484.08 179.34 483.39 C 178.52 483.38 176.88 483.36 176.06 483.35 C 176.34 482.50 176.63 481.66 176.92 480.82 C 177.79 480.68 178.65 480.53 179.52 480.37 C 180.88 481.66 182.96 482.77 182.64 484.99 C 182.15 489.22 179.41 492.78 176.80 495.99 C 175.98 497.59 174.32 496.05 173.12 495.85 C 167.95 493.52 162.24 494.87 157.18 496.76 C 152.92 490.78 145.88 486.03 138.23 487.69 C 140.43 480.66 141.87 472.67 147.48 467.44 C 150.49 464.41 156.35 464.73 158.28 468.81 C 159.74 471.35 158.52 474.16 156.92 476.27 C 155.95 476.76 154.99 477.26 154.03 477.78 C 154.20 477.36 154.54 476.53 154.71 476.11 C 155.68 475.19 156.63 474.24 157.56 473.28 C 157.24 472.60 156.59 471.22 156.27 470.53 C 155.11 470.54 153.94 470.57 152.78 470.60 C 150.93 471.77 148.45 472.62 147.84 474.99 C 146.82 478.01 148.86 481.11 151.55 482.38 C 154.81 483.14 158.40 482.17 160.66 479.65 C 166.05 474.21 164.01 463.71 156.91 460.76 C 154.24 460.13 151.48 460.56 148.79 460.69 C 147.15 455.78 145.52 450.86 144.33 445.82 C 143.71 445.43 142.48 444.64 141.86 444.25 C 137.63 447.87 133.99 452.17 131.24 457.03 C 127.56 455.04 123.07 451.89 119.07 455.12 C 120.39 450.72 119.60 446.23 118.67 441.87 Z" />
<path fill="#ffffff" d=" M 191.22 452.99 C 193.47 450.34 196.15 447.11 200.01 447.38 C 205.58 446.77 210.29 452.78 209.13 458.08 C 208.26 461.73 205.76 464.65 203.86 467.80 C 203.01 466.54 202.15 465.28 201.30 464.04 C 202.20 461.64 203.48 458.74 201.72 456.40 C 200.07 453.44 196.31 454.45 193.77 455.48 C 192.92 454.65 192.07 453.81 191.22 452.99 Z" />
<path fill="#ffffff" d=" M 66.24 450.07 C 71.91 452.92 77.47 455.99 83.16 458.80 C 91.10 462.69 99.50 465.91 108.30 467.08 C 97.27 468.56 85.95 470.87 74.88 468.36 C 68.46 466.96 62.19 464.40 56.99 460.32 C 58.60 459.37 60.20 458.41 61.87 457.59 C 64.28 457.81 66.39 459.34 68.21 460.84 C 69.37 462.45 69.79 464.46 70.58 466.26 C 71.76 466.73 72.93 467.22 74.10 467.72 C 74.43 467.04 75.08 465.67 75.41 464.99 C 74.01 459.80 69.76 456.11 65.03 453.93 C 65.41 452.63 65.82 451.34 66.24 450.07 Z" />
<path fill="#ffffff" d=" M 216.86 452.06 C 218.98 454.46 220.48 457.31 221.13 460.46 C 218.92 460.47 216.72 460.50 214.51 460.56 C 215.64 457.83 216.33 454.95 216.86 452.06 Z" />
<path fill="#ffffff" d=" M 134.38 461.93 C 135.73 458.32 138.33 455.31 140.82 452.41 C 141.96 456.06 143.12 459.71 144.42 463.32 C 141.29 466.34 138.77 469.92 137.07 473.93 C 136.67 469.83 135.41 465.90 134.38 461.93 Z" />
<path fill="#ffffff" d=" M 121.49 459.50 C 123.10 459.47 124.72 459.46 126.34 459.48 C 133.79 466.35 132.62 477.64 132.18 486.84 C 127.82 485.96 123.24 485.92 119.14 487.83 C 119.94 482.38 118.80 477.01 117.39 471.78 C 118.88 473.28 120.20 474.93 121.51 476.59 C 122.90 476.63 124.29 476.66 125.68 476.68 C 127.79 474.23 129.33 471.21 128.69 467.89 C 128.04 467.59 126.73 467.00 126.08 466.70 C 124.55 466.74 123.02 466.78 121.49 466.84 C 121.11 464.40 121.07 461.93 121.49 459.50 Z" />
<path fill="#ffffff" d=" M 55.10 464.30 C 60.50 468.03 65.49 472.68 68.21 478.77 C 72.62 488.19 72.86 498.79 73.51 508.99 C 73.65 514.07 74.66 519.10 74.38 524.20 C 71.39 521.19 69.32 517.45 66.97 513.96 C 62.16 506.53 56.95 499.38 51.54 492.39 C 49.74 490.30 51.09 487.79 52.49 485.96 C 55.92 490.35 59.96 495.35 65.99 495.73 C 66.43 495.03 67.31 493.62 67.75 492.92 C 66.65 490.63 65.28 488.38 62.99 487.11 C 62.50 487.63 61.53 488.69 61.04 489.21 C 58.73 486.59 54.30 483.82 55.81 479.78 C 57.57 474.70 56.83 469.27 55.10 464.30 Z" />
<path fill="#ffffff" d=" M 50.75 480.87 C 50.65 475.52 50.63 470.17 50.75 464.82 C 53.15 469.94 52.95 475.73 50.75 480.87 Z" />
<path fill="#ffffff" d=" M 207.04 471.95 C 210.23 467.97 215.23 464.17 220.61 466.11 C 226.42 467.19 230.41 473.39 228.67 479.12 C 224.52 480.08 220.46 481.38 216.43 482.75 C 216.06 479.83 215.82 476.41 213.10 474.64 C 211.20 474.20 209.24 474.29 207.31 474.27 C 207.24 473.69 207.11 472.53 207.04 471.95 Z" />
<path fill="#ffffff" d=" M 69.44 472.05 C 73.69 473.21 78.05 473.86 82.39 474.63 C 82.32 479.16 79.09 482.57 75.01 484.06 C 73.63 479.85 71.74 475.83 69.44 472.05 Z" />
<path fill="#ffffff" d=" M 96.42 473.48 C 99.09 472.99 101.78 472.61 104.48 472.38 C 104.95 474.70 105.98 477.32 104.34 479.44 C 102.81 482.25 99.26 481.50 96.62 481.66 C 96.63 478.93 96.58 476.20 96.42 473.48 Z" />
<path fill="#ffffff" d=" M 109.25 472.05 C 110.06 472.13 111.68 472.29 112.49 472.36 C 114.61 476.59 116.29 481.87 114.46 486.48 C 113.33 489.22 110.25 489.56 107.67 489.82 C 107.54 490.32 107.28 491.32 107.15 491.82 C 108.08 493.83 109.26 495.79 109.53 498.03 C 109.94 503.40 105.83 509.17 100.19 509.34 C 97.25 508.81 94.97 506.39 91.91 506.23 C 91.26 509.70 91.35 513.89 88.33 516.30 C 85.40 518.60 81.52 517.17 78.29 516.45 C 78.08 514.19 77.92 511.93 77.76 509.69 C 80.25 510.32 83.20 511.23 85.49 509.53 C 88.50 507.68 89.42 504.06 90.19 500.86 C 93.74 502.58 98.73 504.14 101.96 501.02 C 105.78 497.25 105.09 491.22 102.78 486.85 C 105.44 486.22 108.45 485.47 109.94 482.92 C 111.95 479.52 110.42 475.46 109.25 472.05 Z" />
<path fill="#ffffff" d=" M 276.76 473.17 C 279.88 472.42 283.09 472.09 286.30 472.10 C 294.65 497.49 302.90 524.13 299.66 551.17 C 298.33 551.80 297.01 552.44 295.69 553.08 C 294.28 532.48 289.48 512.31 284.21 492.41 C 283.08 488.32 282.29 484.11 280.45 480.27 C 252.36 485.34 224.85 493.62 198.29 504.06 C 188.51 508.11 179.46 513.84 171.40 520.69 C 170.83 518.36 170.34 516.01 169.94 513.65 C 170.59 513.69 171.89 513.77 172.54 513.80 C 172.83 512.16 173.13 510.51 173.42 508.88 C 192.91 493.51 217.57 487.63 241.00 481.08 C 252.67 477.41 264.75 475.38 276.76 473.17 Z" />
<path fill="#ffffff" d=" M 86.64 474.41 C 88.52 474.33 90.41 474.22 92.30 474.16 C 92.56 477.92 92.32 481.92 90.16 485.14 C 87.37 489.95 82.06 492.45 76.90 493.87 C 76.69 492.24 76.48 490.61 76.27 488.99 C 82.27 486.71 87.56 481.29 86.64 474.41 Z" />
<path fill="#ffffff" d=" M 187.60 486.47 C 190.45 485.20 193.38 484.09 196.36 483.16 C 196.01 485.51 195.61 487.86 195.14 490.19 C 191.30 491.88 187.42 493.52 183.81 495.68 C 185.41 492.76 186.72 489.68 187.60 486.47 Z" />
<path fill="#ffffff" d=" M 89.32 493.51 C 91.92 491.05 93.95 488.09 95.79 485.04 C 98.86 488.24 101.88 492.76 99.25 497.21 C 98.15 497.59 97.05 498.00 95.96 498.42 C 93.38 497.34 91.10 495.68 89.32 493.51 Z" />
<path fill="#ffffff" d=" M 270.76 488.70 C 272.43 487.09 274.70 486.52 276.94 486.22 C 277.42 487.93 277.90 489.63 278.40 491.34 C 268.07 504.77 256.00 517.08 248.34 532.35 C 246.87 535.52 242.78 532.64 240.25 532.57 C 245.73 515.29 257.11 500.41 270.76 488.70 Z" />
<path fill="#ffffff" d=" M 241.06 494.99 C 247.85 493.69 254.34 491.09 261.20 490.14 C 254.99 496.05 249.58 502.77 244.90 509.95 C 243.79 504.92 242.41 499.96 241.06 494.99 Z" />
<path fill="#ffffff" d=" M 113.74 503.50 C 113.88 496.99 119.81 491.82 125.89 490.68 C 130.13 490.51 131.46 495.25 133.85 497.85 C 136.17 496.05 138.43 494.17 140.79 492.42 C 145.30 492.12 149.33 494.74 151.94 498.24 C 155.72 503.06 158.22 508.94 158.56 515.10 C 154.04 519.63 150.60 525.04 146.46 529.89 C 144.38 527.91 141.91 526.38 139.08 525.77 C 140.53 520.34 144.71 515.77 144.69 509.93 C 144.92 506.42 141.49 504.50 139.27 502.41 C 137.25 502.35 135.24 502.63 133.86 504.26 C 132.04 502.98 130.24 501.03 127.78 501.59 C 123.48 503.12 121.57 508.63 123.48 512.67 C 125.64 517.72 129.89 521.45 132.79 526.05 C 130.89 527.44 129.09 528.96 127.45 530.65 C 127.53 526.91 127.75 522.07 123.94 519.98 C 120.57 518.53 116.76 519.75 113.88 521.74 C 112.99 515.70 112.59 509.53 113.74 503.50 Z" />
<path fill="#ffffff" d=" M 234.46 497.27 C 234.62 496.97 234.93 496.36 235.09 496.05 C 238.29 502.29 239.23 509.32 241.24 515.97 C 238.86 521.28 236.22 526.51 234.83 532.20 C 231.92 523.15 229.28 513.99 225.75 505.14 C 225.11 503.50 224.60 501.81 224.21 500.10 C 227.68 499.35 231.06 498.27 234.46 497.27 Z" />
<path fill="#ffffff" d=" M 77.35 498.73 C 80.30 497.93 83.20 496.96 86.11 496.03 C 85.75 499.23 86.06 503.04 83.51 505.46 C 81.98 505.82 80.33 505.78 78.82 505.34 C 76.69 503.88 77.81 500.89 77.35 498.73 Z" />
<path fill="#ffffff" d=" M 50.69 497.82 C 56.50 505.60 61.96 513.64 67.24 521.79 C 68.07 523.05 68.57 524.50 68.99 525.96 C 62.64 524.08 56.84 520.73 50.74 518.18 C 50.62 511.39 50.70 504.61 50.69 497.82 Z" />
<path fill="#ffffff" d=" M 262.48 519.70 C 268.02 512.19 274.23 505.21 280.03 497.90 C 281.86 504.77 283.55 511.68 285.05 518.64 C 277.50 518.36 270.04 519.96 262.48 519.70 Z" />
<path fill="#ffffff" d=" M 160.14 500.88 C 164.41 499.37 168.94 499.40 173.19 501.01 C 170.83 504.88 166.48 506.92 163.38 510.13 C 162.34 507.03 161.21 503.97 160.14 500.88 Z" />
<path fill="#ffffff" d=" M 210.19 505.03 C 213.16 504.28 216.05 503.27 218.96 502.29 C 222.97 512.14 226.15 522.30 229.21 532.47 C 230.00 535.40 231.52 538.28 231.08 541.40 C 229.78 537.77 229.39 533.36 226.05 530.91 C 223.27 528.48 219.29 529.43 215.93 529.43 C 213.98 521.32 210.56 513.44 210.19 505.03 Z" />
<path fill="#ffffff" d=" M 195.22 511.70 C 198.21 509.93 201.49 508.73 204.65 507.30 C 206.25 515.59 208.92 523.62 210.86 531.82 C 207.38 535.71 207.55 541.34 209.12 546.02 C 210.41 550.08 212.71 553.70 214.99 557.27 C 213.34 558.23 211.69 559.22 210.05 560.20 C 205.17 545.17 200.94 529.92 195.84 514.96 C 195.51 513.89 195.18 512.81 195.22 511.70 Z" />
<path fill="#ffffff" d=" M 95.21 512.20 C 97.20 514.95 99.66 517.36 102.68 518.97 C 99.59 519.59 97.60 522.12 96.09 524.69 C 94.75 522.87 93.09 521.34 91.19 520.14 C 92.83 517.66 94.21 515.01 95.21 512.20 Z" />
<path fill="#ffffff" d=" M 445.23 512.33 C 445.88 512.73 445.88 512.73 445.23 512.33 Z" />
<path fill="#ffffff" d=" M 182.89 518.94 C 185.25 517.39 187.63 515.88 190.02 514.37 C 195.84 531.77 200.66 549.50 206.66 566.85 C 203.33 566.48 200.02 565.90 196.69 565.59 C 197.59 561.34 197.65 556.95 196.76 552.70 C 196.22 552.36 195.15 551.70 194.62 551.36 C 190.17 540.75 186.76 529.76 182.89 518.94 Z" />
<path fill="#ffffff" d=" M 160.70 520.73 C 161.96 519.25 163.26 517.80 164.56 516.35 C 165.28 519.15 165.96 521.98 166.50 524.83 C 165.19 526.08 163.90 527.36 162.63 528.66 C 162.02 526.00 161.39 523.36 160.70 520.73 Z" />
<path fill="#ffffff" d=" M 78.51 521.39 C 79.80 521.91 81.10 522.43 82.40 522.94 C 81.69 524.70 81.00 526.47 80.27 528.23 C 79.51 526.00 78.96 523.70 78.51 521.39 Z" />
<path fill="#ffffff" d=" M 172.53 527.02 C 174.45 525.44 176.35 523.82 178.24 522.18 C 181.90 532.04 184.93 542.14 189.05 551.82 C 189.43 553.20 190.69 554.96 189.28 556.17 C 187.08 558.45 184.41 560.22 181.85 562.06 C 178.78 550.38 174.22 539.02 172.53 527.02 Z" />
<path fill="#ffffff" d=" M 100.47 527.69 C 102.07 526.54 103.68 525.42 105.30 524.31 C 110.17 530.33 106.86 538.55 106.08 545.40 C 103.62 545.80 101.30 546.68 99.10 547.83 C 99.55 541.11 98.40 534.22 100.47 527.69 Z" />
<path fill="#ffffff" d=" M 258.45 525.29 C 267.74 525.28 276.99 523.89 286.30 524.35 C 287.01 528.02 287.64 531.70 288.09 535.42 C 276.43 535.13 264.74 536.31 253.11 535.22 C 254.55 531.74 256.47 528.49 258.45 525.29 Z" />
<path fill="#ffffff" d=" M 116.77 526.85 C 117.86 524.93 120.32 525.62 122.12 525.26 C 123.03 534.41 119.19 542.91 116.05 551.24 C 115.30 551.48 114.55 551.72 113.80 551.97 C 112.86 549.92 110.60 548.05 111.31 545.60 C 112.58 539.23 113.06 532.38 116.77 526.85 Z" />
<path fill="#ffffff" d=" M 57.07 525.65 C 58.26 526.00 59.44 526.39 60.61 526.81 C 59.85 529.70 59.20 532.85 56.99 535.04 C 55.40 536.85 52.90 537.23 50.69 537.80 C 50.64 536.24 50.68 534.69 50.82 533.15 C 53.18 530.88 55.33 528.43 57.07 525.65 Z" />
<path fill="#ffffff" d=" M 87.80 526.04 C 88.89 526.19 90.03 526.16 91.07 526.60 C 95.21 532.81 93.67 540.54 93.94 547.55 C 91.95 547.37 89.95 547.25 87.95 547.17 C 86.38 540.32 83.65 532.55 87.80 526.04 Z" />
<path fill="#ffffff" d=" M 64.65 529.20 C 65.13 529.32 66.08 529.57 66.56 529.70 C 66.52 531.47 66.48 533.26 66.44 535.05 C 65.57 534.42 64.70 533.79 63.84 533.17 C 64.11 531.84 64.38 530.52 64.65 529.20 Z" />
<path fill="#ffffff" d=" M 72.33 529.17 C 72.85 529.23 73.89 529.35 74.41 529.41 C 78.31 534.59 81.64 540.40 82.67 546.89 C 83.46 549.68 81.29 552.05 80.47 554.58 C 79.12 554.40 77.78 554.24 76.43 554.09 C 73.90 546.09 70.69 537.68 72.33 529.17 Z" />
<path fill="#ffffff" d=" M 133.59 531.45 C 135.13 529.90 137.50 530.52 139.46 530.34 C 140.27 531.80 141.80 533.14 141.60 534.96 C 141.11 538.10 139.00 540.67 136.89 542.92 C 133.43 546.41 129.86 549.84 125.89 552.75 C 124.30 551.92 120.97 550.78 122.60 548.47 C 125.61 542.46 128.36 535.92 133.59 531.45 Z" />
<path fill="#ffffff" d=" M 153.97 532.13 C 155.29 531.59 156.63 531.08 157.96 530.56 C 157.77 531.81 157.72 533.11 157.29 534.33 C 155.54 535.55 154.66 533.36 153.97 532.13 Z" />
<path fill="#ffffff" d=" M 158.32 540.79 C 161.23 537.67 164.29 534.67 167.30 531.64 C 170.58 542.82 173.88 554.00 177.05 565.23 C 174.74 566.79 172.44 568.38 170.12 569.93 C 168.29 568.52 166.22 567.48 163.98 566.90 C 166.08 563.29 168.29 558.96 166.40 554.77 C 165.06 551.75 161.44 551.59 158.60 551.59 C 160.35 548.15 160.28 544.14 158.32 540.79 Z" />
<path fill="#ffffff" d=" M 212.74 541.04 C 212.63 536.60 217.20 533.83 221.17 533.62 C 224.09 534.23 225.26 537.37 225.40 540.04 C 225.88 545.33 224.79 550.59 223.45 555.69 C 222.43 555.68 221.42 555.67 220.41 555.67 C 216.86 551.46 213.11 546.75 212.74 541.04 Z" />
<path fill="#ffffff" d=" M 239.90 538.49 C 243.46 538.92 247.09 540.37 248.55 543.93 C 245.50 551.36 237.88 555.17 231.11 558.60 C 230.43 558.18 229.07 557.36 228.39 556.94 C 230.27 549.92 232.85 541.91 239.90 538.49 Z" />
<path fill="#ffffff" d=" M 58.19 539.18 C 61.21 539.07 64.51 540.07 66.12 542.83 C 68.39 547.03 69.89 551.59 71.59 556.04 C 70.84 557.14 70.10 558.26 69.37 559.38 C 65.97 552.45 58.61 547.41 58.19 539.18 Z" />
<path fill="#ffffff" d=" M 251.59 540.08 C 264.05 541.21 276.60 540.54 289.10 540.67 C 289.38 543.73 289.68 546.80 289.97 549.87 C 283.97 549.80 277.95 549.76 272.01 548.91 C 265.30 548.28 258.56 548.62 251.85 548.89 C 252.66 545.96 252.59 542.94 251.59 540.08 Z" />
<path fill="#ffffff" d=" M 142.69 544.78 C 145.44 542.59 149.35 541.16 152.71 542.80 C 155.40 545.58 154.00 550.04 151.36 552.32 C 146.43 556.72 140.15 559.11 134.77 562.87 C 133.09 564.25 130.82 563.74 128.83 563.86 C 129.17 561.67 128.52 559.03 130.30 557.33 C 134.14 552.88 138.00 548.36 142.69 544.78 Z" />
<path fill="#ffffff" d=" M 50.74 548.97 C 57.32 550.57 61.67 556.29 64.96 561.82 C 64.26 562.30 62.86 563.26 62.16 563.74 C 59.33 560.43 55.88 557.61 51.77 556.06 C 50.99 553.77 50.69 551.37 50.74 548.97 Z" />
<path fill="#ffffff" d=" M 101.91 550.89 C 102.93 550.45 103.94 550.03 104.96 549.61 C 106.05 550.05 107.15 550.49 108.26 550.93 C 109.83 553.76 108.91 556.83 107.69 559.59 C 104.92 558.78 102.12 558.15 99.32 557.48 C 100.06 555.23 100.89 553.02 101.91 550.89 Z" />
<path fill="#ffffff" d=" M 86.55 559.87 C 85.49 557.00 85.28 552.91 88.77 551.69 C 92.46 550.77 94.45 554.43 94.91 557.48 C 92.53 557.98 90.15 558.43 87.76 558.80 C 87.45 559.06 86.85 559.60 86.55 559.87 Z" />
<path fill="#ffffff" d=" M 297.50 558.44 C 300.74 555.73 304.72 554.10 308.77 553.07 C 309.33 558.84 306.43 564.07 302.81 568.32 C 301.20 568.63 299.60 568.98 298.01 569.36 C 299.39 566.93 301.41 564.52 300.62 561.52 C 299.37 561.48 298.13 561.44 296.89 561.43 C 294.49 564.57 292.48 568.12 292.28 572.17 C 291.24 573.09 290.20 574.02 289.17 574.97 C 290.13 568.77 292.33 562.38 297.50 558.44 Z" />
<path fill="#ffffff" d=" M 265.49 554.05 C 273.97 554.20 282.36 555.54 290.83 555.73 C 289.82 560.32 286.37 563.89 285.24 568.49 C 278.86 567.93 272.37 568.05 266.11 566.57 C 266.92 564.79 267.82 563.03 268.22 561.12 C 268.38 558.46 266.80 556.19 265.49 554.05 Z" />
<path fill="#ffffff" d=" M 112.10 561.13 C 114.26 558.78 116.42 555.00 120.16 555.69 C 122.99 556.94 124.37 560.44 123.30 563.32 C 122.63 564.95 120.86 565.63 119.48 566.56 C 117.11 564.62 114.66 562.80 112.10 561.13 Z" />
<path fill="#ffffff" d=" M 234.58 562.50 C 241.71 559.48 249.20 556.18 257.11 556.70 C 259.15 557.09 261.65 557.28 262.97 559.11 C 263.01 561.79 260.46 563.23 258.59 564.64 C 253.25 568.17 247.46 571.03 241.55 573.48 C 237.94 573.97 234.25 573.06 230.61 573.51 C 233.23 570.44 235.29 566.69 234.58 562.50 Z" />
<path fill="#ffffff" d=" M 137.47 567.04 C 145.46 563.42 152.51 556.06 162.04 557.66 C 161.61 561.89 157.88 564.53 154.79 566.93 C 150.23 570.16 144.59 571.13 139.66 573.62 C 139.03 571.39 138.30 569.20 137.47 567.04 Z" />
<path fill="#ffffff" d=" M 74.90 559.86 C 77.25 558.53 79.77 559.86 81.89 560.96 C 79.65 562.59 77.46 564.29 75.27 566.00 C 74.44 564.08 73.41 561.75 74.90 559.86 Z" />
<path fill="#ffffff" d=" M 179.04 570.00 C 183.80 567.13 188.38 563.94 192.52 560.21 C 191.98 571.69 181.75 580.97 170.58 582.00 C 170.43 580.08 169.55 577.83 170.97 576.18 C 173.06 573.44 176.18 571.80 179.04 570.00 Z" />
<path fill="#ffffff" d=" M 210.17 569.21 C 213.03 562.57 221.40 558.42 228.12 561.84 C 230.55 562.75 229.88 565.87 228.66 567.52 C 225.95 571.69 221.74 575.06 216.78 576.03 C 214.87 573.49 212.60 571.25 210.17 569.21 Z" />
<path fill="#ffffff" d=" M 50.69 561.13 C 53.70 563.73 56.95 566.03 60.02 568.57 C 56.60 568.45 53.24 569.26 50.62 571.57 C 50.71 568.09 50.69 564.60 50.69 561.13 Z" />
<path fill="#ffffff" d=" M 76.34 573.44 C 83.48 561.95 100.55 559.01 111.64 566.38 C 119.03 571.14 122.87 580.49 121.64 589.12 C 120.25 599.40 112.75 608.29 103.31 612.30 C 101.35 612.92 99.53 611.61 97.76 610.98 C 103.88 608.61 109.73 604.95 113.18 599.20 C 116.69 593.59 118.24 586.43 116.08 580.04 C 113.30 571.52 104.18 565.22 95.15 566.68 C 84.69 568.49 76.90 577.85 74.92 587.99 C 71.86 583.45 73.91 577.77 76.34 573.44 Z" />
<path fill="#ffffff" d=" M 66.37 568.49 C 68.08 566.69 71.62 567.38 71.85 570.06 C 70.82 573.30 69.58 576.49 68.29 579.65 C 62.91 579.75 62.50 571.03 66.37 568.49 Z" />
<path fill="#ffffff" d=" M 123.10 569.96 C 125.90 569.63 128.98 567.79 131.69 569.36 C 133.46 570.16 134.76 572.09 134.34 574.09 C 132.93 577.17 129.46 578.26 126.71 579.80 C 125.62 576.47 123.95 573.36 123.10 569.96 Z" />
<path fill="#ffffff" d=" M 194.89 570.72 C 198.53 570.59 202.38 570.47 205.61 572.46 C 211.60 575.72 215.67 583.39 213.09 590.06 C 210.10 596.12 203.16 598.78 196.90 599.98 C 196.64 600.14 196.12 600.48 195.86 600.64 C 194.11 598.12 192.32 595.62 190.57 593.10 C 194.76 591.39 199.20 590.26 203.21 588.14 C 205.09 587.48 204.93 584.68 203.36 583.78 C 199.60 580.72 194.82 579.44 190.35 577.79 C 191.94 575.47 193.49 573.14 194.89 570.72 Z" />
<path fill="#ffffff" d=" M 258.61 572.07 C 261.49 569.76 264.75 572.05 267.89 572.41 C 273.40 572.86 278.89 573.41 284.41 573.65 C 284.06 575.81 283.71 577.97 283.35 580.14 C 280.81 580.17 278.26 580.21 275.72 580.28 C 274.41 578.31 273.35 575.96 271.17 574.80 C 267.39 572.49 262.88 572.40 258.61 572.07 Z" />
<path fill="#ffffff" d=" M 80.18 587.30 C 82.14 580.46 87.05 574.20 93.88 571.75 C 104.42 568.43 115.19 580.58 111.82 590.75 C 109.76 597.01 104.88 601.99 99.17 605.12 C 100.82 599.86 102.46 594.50 102.39 588.94 C 102.27 586.77 102.83 584.29 101.41 582.45 C 94.12 582.34 86.62 583.73 80.18 587.30 Z" />
<path fill="#ffffff" d=" M 152.75 574.02 C 157.05 572.12 161.88 571.92 166.46 572.73 C 164.56 576.13 160.91 577.86 157.54 579.47 C 151.80 581.71 145.61 582.26 139.61 583.42 C 138.29 582.23 136.97 581.04 135.64 579.88 C 141.50 578.43 147.23 576.47 152.75 574.02 Z" />
<path fill="#ffffff" d=" M 50.88 578.57 C 51.97 576.87 53.58 575.60 55.00 574.19 C 52.84 579.54 51.11 585.07 50.45 590.82 C 50.83 586.74 50.43 582.63 50.88 578.57 Z" />
<path fill="#ffffff" d=" M 292.02 579.55 C 294.49 576.47 297.92 574.10 301.91 573.61 C 310.36 572.53 319.63 573.48 326.63 578.75 C 326.70 579.35 326.84 580.54 326.92 581.14 C 318.68 585.59 309.41 588.76 299.96 588.52 C 296.85 588.61 294.14 586.88 291.92 584.87 C 298.98 583.86 306.05 582.92 313.16 582.39 C 313.46 581.79 314.06 580.60 314.35 580.00 C 314.06 579.38 313.48 578.16 313.19 577.54 C 306.07 577.45 299.10 579.12 292.02 579.55 Z" />
<path fill="#ffffff" d=" M 244.46 578.39 C 251.49 577.20 258.95 575.45 265.90 577.94 C 268.55 578.74 270.54 581.36 270.32 584.18 C 269.74 586.68 267.18 587.88 264.88 588.33 C 258.34 589.33 251.78 588.06 245.31 587.14 C 245.10 584.21 244.86 581.29 244.46 578.39 Z" />
<path fill="#ffffff" d=" M 218.76 580.99 C 225.21 579.76 231.78 576.34 238.40 578.61 C 240.07 581.27 240.45 584.60 239.27 587.55 C 238.05 589.68 235.32 590.25 233.04 590.26 C 228.17 590.11 223.50 588.53 218.84 587.24 C 218.83 585.15 218.80 583.07 218.76 580.99 Z" />
<path fill="#ffffff" d=" M 55.75 614.26 C 54.22 602.29 54.31 589.82 58.62 578.39 C 59.54 579.79 60.23 581.42 61.53 582.54 C 63.17 583.98 65.51 583.62 67.52 583.93 C 68.16 587.92 70.84 591.05 74.56 592.50 C 69.85 597.32 65.42 602.44 61.72 608.08 C 62.53 602.27 63.73 596.52 65.21 590.84 C 64.96 590.30 64.45 589.20 64.19 588.65 C 63.35 588.66 61.65 588.69 60.81 588.70 C 58.17 597.01 57.02 605.67 55.75 614.26 Z" />
<path fill="#ffffff" d=" M 177.64 585.94 C 180.55 584.62 183.35 583.09 186.02 581.34 C 189.47 582.66 192.92 583.95 196.37 585.25 C 192.97 586.84 189.54 588.38 186.00 589.64 C 183.23 588.37 180.53 586.92 177.64 585.94 Z" />
<path fill="#ffffff" d=" M 127.24 584.21 C 129.78 584.28 132.33 584.61 134.69 585.63 C 134.61 587.30 135.18 589.36 133.74 590.63 C 131.89 592.86 128.83 593.03 126.20 593.58 C 126.50 590.45 126.88 587.33 127.24 584.21 Z" />
<path fill="#ffffff" d=" M 271.43 591.04 C 272.80 589.24 274.04 587.34 275.12 585.36 C 278.18 585.25 281.25 585.22 284.31 585.17 C 284.22 588.76 285.04 592.26 285.86 595.74 C 280.66 595.83 276.30 592.40 271.43 591.04 Z" />
<path fill="#ffffff" d=" M 139.76 588.97 C 145.92 586.85 152.63 586.34 159.11 586.74 C 161.65 587.61 165.22 588.02 166.02 591.07 C 162.80 592.13 159.34 593.25 155.94 592.25 C 150.59 590.93 145.12 590.23 139.76 588.97 Z" />
<path fill="#ffffff" d=" M 82.20 592.14 C 86.54 588.76 92.27 588.12 97.55 587.40 C 97.20 592.70 96.87 598.40 93.93 603.01 C 85.61 612.12 76.09 620.67 64.42 625.16 C 73.69 616.17 84.43 608.28 91.09 596.96 C 92.08 595.71 91.55 594.09 91.53 592.65 C 90.34 592.61 89.15 592.59 87.96 592.57 C 81.19 604.45 70.35 613.06 60.17 621.87 C 64.85 610.27 73.04 600.49 82.20 592.14 Z" />
<path fill="#ffffff" d=" M 171.34 589.54 C 177.86 591.12 184.59 593.67 188.78 599.20 C 191.49 602.48 192.85 606.60 193.55 610.74 C 189.10 607.31 184.43 604.15 179.46 601.53 C 176.18 599.67 172.48 597.86 170.61 594.41 C 169.85 592.76 170.83 591.08 171.34 589.54 Z" />
<path fill="#ffffff" d=" M 311.04 592.63 C 316.74 591.36 322.06 588.38 328.02 588.46 C 347.95 587.01 367.37 592.80 386.24 598.46 C 401.11 603.23 416.20 607.27 431.39 610.84 C 428.23 613.14 425.21 615.63 422.44 618.41 C 399.40 613.30 377.44 604.05 354.11 600.14 C 341.43 597.80 328.24 598.02 315.77 601.39 C 314.76 598.19 313.16 595.23 311.04 592.63 Z" />
<path fill="#ffffff" d=" M 289.37 589.91 C 293.97 591.75 295.59 596.78 299.53 599.48 C 300.47 599.34 301.42 599.22 302.37 599.11 C 303.12 596.81 302.20 594.85 300.63 593.19 C 307.53 593.87 312.30 600.99 310.62 607.67 C 301.43 605.33 292.46 599.23 289.37 589.91 Z" />
<path fill="#ffffff" d=" M 243.06 591.64 C 249.21 593.88 255.93 596.62 259.39 602.55 C 260.75 604.58 260.69 607.09 260.76 609.45 C 259.20 609.75 257.60 610.49 255.98 610.04 C 249.39 608.59 243.44 605.24 237.60 601.99 C 237.19 599.42 236.30 596.98 234.80 594.85 C 237.82 594.61 240.66 593.49 243.06 591.64 Z" />
<path fill="#ffffff" d=" M 217.44 592.23 C 222.60 592.79 227.76 595.00 231.21 598.96 C 232.88 601.23 231.14 604.06 228.94 605.15 C 225.84 606.82 221.76 608.38 218.43 606.47 C 215.51 604.65 214.07 601.36 212.89 598.27 C 214.54 596.36 216.04 594.32 217.44 592.23 Z" />
<path fill="#ffffff" d=" M 258.66 593.72 C 260.71 593.60 262.77 593.51 264.83 593.45 C 268.87 596.08 273.47 597.61 277.96 599.27 C 274.09 602.31 269.89 604.92 265.99 607.94 C 266.16 602.17 262.53 597.54 258.66 593.72 Z" />
<path fill="#ffffff" d=" M 413.25 592.09 C 417.17 592.22 421.07 592.75 424.87 593.73 C 426.37 597.80 428.52 601.61 431.30 604.96 C 426.63 604.42 422.15 602.99 417.55 602.09 C 415.90 598.85 414.56 595.47 413.25 592.09 Z" />
<path fill="#ffffff" d=" M 133.65 597.36 C 135.51 596.42 137.12 594.90 139.14 594.32 C 142.48 594.86 145.67 596.11 149.03 596.63 C 152.43 597.39 156.01 597.39 159.29 598.65 C 160.39 599.56 160.41 601.16 160.92 602.42 C 151.56 603.64 141.84 602.17 133.65 597.36 Z" />
<path fill="#ffffff" d=" M 124.41 597.82 C 127.11 598.99 130.96 600.95 129.71 604.57 C 127.89 608.82 122.30 608.88 118.54 607.48 C 120.68 604.38 122.71 601.19 124.41 597.82 Z" />
<path fill="#ffffff" d=" M 461.80 604.20 C 463.41 600.12 467.62 597.08 472.10 597.80 C 474.22 598.21 475.33 600.11 476.41 601.78 C 476.06 603.04 475.71 604.30 475.38 605.58 C 470.91 604.65 466.34 604.42 461.80 604.20 Z" />
<path fill="#ffffff" d=" M 168.02 599.25 C 168.50 599.73 169.48 600.70 169.97 601.19 C 168.76 607.98 169.23 615.32 173.42 621.06 C 171.26 621.39 168.84 621.43 167.12 622.98 C 164.60 624.94 163.98 628.21 163.36 631.15 C 160.64 631.17 157.92 631.18 155.20 631.21 C 156.41 628.26 156.91 625.08 155.60 622.06 C 158.64 621.06 162.04 619.28 162.61 615.79 C 163.13 612.42 160.00 610.29 158.05 608.08 C 163.08 608.13 168.11 604.66 168.02 599.25 Z" />
<path fill="#ffffff" d=" M 250.74 631.14 C 260.73 617.81 274.13 607.33 288.80 599.59 C 291.43 602.78 294.52 605.55 297.84 608.01 C 286.41 613.48 276.30 621.41 267.75 630.71 C 262.22 631.81 256.38 630.90 250.74 631.14 Z" />
<path fill="#ffffff" d=" M 197.48 605.01 C 201.31 604.40 205.01 603.13 208.43 601.29 C 210.45 604.76 212.92 607.99 216.20 610.38 C 212.02 616.46 207.51 623.41 209.06 631.18 C 206.82 631.17 204.58 631.17 202.35 631.17 C 201.85 626.45 199.15 622.49 195.47 619.63 C 192.35 618.43 189.12 617.41 185.74 617.44 C 185.71 615.31 185.65 613.19 185.58 611.08 C 188.62 613.43 191.71 615.80 194.11 618.86 C 195.45 618.75 196.78 618.63 198.12 618.51 C 198.67 614.00 198.49 609.44 197.48 605.01 Z" />
<path fill="#ffffff" d=" M 480.94 606.30 C 484.45 603.79 488.71 601.13 493.19 602.64 C 495.59 604.27 494.44 607.43 494.40 609.81 C 489.91 608.65 485.41 607.53 480.94 606.30 Z" />
<path fill="#ffffff" d=" M 135.04 604.04 C 140.64 607.13 146.94 608.58 152.74 611.22 C 155.01 612.07 156.06 614.28 156.29 616.58 C 147.83 616.66 140.17 612.56 132.48 609.56 C 133.43 607.76 134.28 605.92 135.04 604.04 Z" />
<path fill="#ffffff" d=" M 174.67 604.10 C 179.75 607.66 182.57 614.59 179.42 620.35 C 175.01 616.21 173.42 609.95 174.67 604.10 Z" />
<path fill="#ffffff" d=" M 315.78 606.94 C 322.28 604.80 329.17 604.15 335.99 604.04 C 331.84 606.49 328.97 610.30 326.05 614.00 C 322.24 612.96 318.70 611.07 315.19 609.30 C 315.34 608.71 315.63 607.53 315.78 606.94 Z" />
<path fill="#ffffff" d=" M 332.17 614.61 C 336.08 609.87 341.40 606.75 347.06 604.55 C 350.26 605.01 353.45 605.59 356.66 606.02 C 348.82 609.26 342.00 614.93 338.10 622.55 C 337.79 619.67 336.97 616.88 335.47 614.41 C 334.65 614.46 333.00 614.56 332.17 614.61 Z" />
<path fill="#ffffff" d=" M 499.70 611.44 C 501.52 608.26 504.20 604.65 508.22 604.60 C 511.76 606.71 511.55 611.43 511.23 615.01 C 507.27 614.21 503.51 612.73 499.70 611.44 Z" />
<path fill="#ffffff" d=" M 232.18 609.12 C 233.10 608.20 234.02 607.28 234.94 606.37 C 239.68 610.56 245.35 614.64 247.19 621.01 C 248.31 624.74 244.83 630.58 240.50 628.41 C 235.28 623.44 233.83 615.85 232.18 609.12 Z" />
<path fill="#ffffff" d=" M 365.22 609.68 C 371.12 608.98 376.64 611.30 382.20 612.80 C 381.21 615.78 380.42 619.56 382.75 622.15 C 387.21 627.39 394.49 628.29 400.93 628.86 C 400.48 629.41 399.59 630.51 399.14 631.06 C 394.21 631.17 389.14 631.66 384.30 630.55 C 375.89 625.94 369.50 618.17 365.22 609.68 Z" />
<path fill="#ffffff" d=" M 438.76 613.57 C 453.12 607.55 469.24 609.15 484.04 612.57 C 492.24 614.50 500.27 617.09 508.19 619.97 C 506.12 623.61 504.32 627.43 501.78 630.78 C 498.94 631.57 495.91 631.05 493.01 631.18 C 494.18 628.91 495.40 626.59 495.50 623.98 C 484.13 619.57 472.21 616.12 459.94 615.72 C 448.87 615.65 436.68 620.34 431.78 630.95 C 428.34 631.26 424.90 631.22 421.46 631.13 C 424.39 623.12 430.88 616.72 438.76 613.57 Z" />
<path fill="#ffffff" d=" M 106.62 616.57 C 109.40 614.73 112.07 612.63 115.08 611.19 C 117.06 611.62 118.94 612.93 119.55 614.95 C 119.50 617.66 117.51 619.72 116.10 621.85 C 113.00 621.47 109.20 622.54 106.73 620.11 C 106.14 619.02 106.17 617.69 106.62 616.57 Z" />
<path fill="#ffffff" d=" M 75.21 625.60 C 81.69 621.47 87.73 616.65 93.05 611.11 C 94.66 614.54 97.40 617.59 101.39 618.00 C 101.50 621.92 103.38 625.54 107.09 627.15 C 97.18 630.89 86.39 631.40 75.95 630.29 C 82.65 629.38 89.35 627.52 95.28 624.20 C 97.75 623.12 95.67 620.57 94.41 619.40 C 88.30 622.27 81.88 624.46 75.21 625.60 Z" />
<path fill="#ffffff" d=" M 221.22 612.59 C 223.34 612.52 225.46 612.41 227.58 612.27 C 227.87 618.60 227.83 625.40 224.08 630.84 C 220.60 631.25 217.08 631.29 213.59 630.86 C 213.32 623.94 217.37 617.96 221.22 612.59 Z" />
<path fill="#ffffff" d=" M 294.82 615.89 C 297.72 614.09 300.66 612.21 303.96 611.25 C 310.99 612.59 317.17 616.53 323.79 619.10 C 323.44 621.74 323.05 624.37 322.66 627.02 C 314.07 621.76 304.30 619.04 294.82 615.89 Z" />
<path fill="#ffffff" d=" M 344.67 621.81 C 347.92 617.42 352.10 613.46 357.44 611.83 C 354.65 616.49 350.85 622.21 344.67 621.81 Z" />
<path fill="#ffffff" d=" M 124.41 613.03 C 126.44 613.07 128.39 613.61 130.08 614.77 C 135.19 617.92 141.26 618.81 146.57 621.51 C 148.86 622.49 150.45 625.82 148.21 627.71 C 145.38 627.43 142.98 625.79 140.58 624.42 C 135.72 621.42 130.84 618.36 125.40 616.51 C 125.16 615.64 124.66 613.90 124.41 613.03 Z" />
<path fill="#ffffff" d=" M 248.60 613.42 C 251.45 614.37 254.38 615.09 257.33 615.71 C 255.70 617.49 254.09 619.30 252.52 621.15 C 251.34 618.51 250.08 615.90 248.60 613.42 Z" />
<path fill="#ffffff" d=" M 389.48 617.36 C 389.75 616.83 390.29 615.77 390.56 615.24 C 395.19 616.58 399.79 618.10 404.53 619.05 C 404.60 619.46 404.75 620.27 404.83 620.68 C 404.15 621.62 403.48 622.57 402.81 623.53 C 397.27 623.14 390.87 623.01 386.70 618.79 C 387.39 618.43 388.78 617.72 389.48 617.36 Z" />
<path fill="#ffffff" d=" M 362.56 616.36 C 364.68 619.22 366.78 622.10 368.89 624.99 C 366.77 624.24 364.13 624.07 362.71 622.11 C 362.28 620.22 362.55 618.26 362.56 616.36 Z" />
<path fill="#ffffff" d=" M 518.48 618.74 C 525.59 616.09 534.18 617.80 538.79 624.09 C 537.48 625.65 534.76 626.57 535.54 629.09 C 536.67 630.51 538.52 630.73 540.16 631.21 C 534.70 631.13 529.25 631.21 523.80 631.18 C 524.81 626.19 522.08 621.87 518.48 618.74 Z" />
<path fill="#ffffff" d=" M 282.72 624.05 C 284.68 622.39 286.72 620.84 288.80 619.33 C 298.78 622.80 309.04 625.60 318.50 630.41 C 310.53 631.00 301.66 632.90 294.39 628.55 C 290.64 626.71 286.70 625.29 282.72 624.05 Z" />
<path fill="#ffffff" d=" M 327.22 631.45 C 327.40 627.03 328.99 622.74 332.44 619.83 C 334.06 624.15 333.11 631.50 327.22 631.45 Z" />
<path fill="#ffffff" d=" M 411.09 621.18 C 413.75 621.70 416.40 622.33 419.05 622.91 C 417.77 625.61 416.99 628.58 415.34 631.10 C 411.96 631.31 408.57 631.16 405.19 631.14 C 406.60 627.52 408.63 624.19 411.09 621.18 Z" />
<path fill="#ffffff" d=" M 123.87 622.46 C 129.65 624.72 135.13 627.69 140.29 631.14 C 137.19 631.15 134.08 631.37 130.99 631.02 C 128.07 628.70 126.28 625.27 123.87 622.46 Z" />
<path fill="#ffffff" d=" M 342.03 626.51 C 347.72 627.69 353.26 625.26 357.11 621.11 C 358.55 629.97 369.24 630.27 376.28 631.02 C 364.49 631.37 352.69 631.10 340.90 631.16 C 341.27 629.60 341.64 628.05 342.03 626.51 Z" />
<path fill="#ffffff" d=" M 442.25 626.18 C 447.61 622.12 454.46 620.96 461.04 621.23 C 470.65 621.24 479.90 624.18 488.96 627.09 C 487.89 628.58 487.47 631.40 485.09 631.13 C 477.29 631.14 469.43 631.55 461.69 630.50 C 455.21 629.07 448.79 627.33 442.25 626.18 Z" />
<path fill="#ffffff" d=" M 513.41 622.35 C 516.60 623.21 519.51 627.00 518.70 630.63 C 515.16 631.19 511.58 631.24 508.01 631.16 C 509.86 628.29 511.09 624.78 513.41 622.35 Z" />
<path fill="#ffffff" d=" M 50.67 631.16 C 50.65 628.09 50.60 625.00 51.14 621.97 C 52.33 624.43 52.84 627.12 53.46 629.76 C 54.04 630.23 54.63 630.70 55.22 631.18 C 53.70 631.16 52.18 631.17 50.67 631.16 Z" />
<path fill="#ffffff" d=" M 182.86 623.94 C 185.99 623.48 189.59 622.45 192.42 624.42 C 194.93 625.88 196.11 628.62 197.18 631.18 C 194.79 631.13 192.37 631.37 190.01 630.90 C 187.15 629.17 184.53 626.87 182.86 623.94 Z" />
<path fill="#ffffff" d=" M 231.59 624.43 C 232.75 626.76 234.13 628.98 235.60 631.15 C 233.52 631.17 231.45 631.18 229.37 631.21 C 230.17 628.96 230.90 626.70 231.59 624.43 Z" />
<path fill="#ffffff" d=" M 168.56 631.13 C 168.91 629.60 169.30 628.10 169.70 626.61 C 172.10 626.54 174.51 626.61 176.91 626.76 C 176.74 628.22 176.57 629.71 176.38 631.19 C 173.77 631.19 171.17 631.17 168.56 631.13 Z" />
<path fill="#ffffff" d=" M 277.46 628.28 C 280.68 629.06 283.91 629.82 287.18 630.36 C 282.95 631.21 278.64 631.30 274.35 631.20 C 275.39 630.22 276.43 629.25 277.46 628.28 Z" />
</svg>
