<?xml version="1.0" encoding="UTF-8" ?>
<!DOCTYPE svg PUBLIC "-//W3C//DTD SVG 1.1//EN" "http://www.w3.org/Graphics/SVG/1.1/DTD/svg11.dtd">
<svg width="1024pt" height="1024pt" viewBox="0 0 1024 1024" version="1.1" xmlns="http://www.w3.org/2000/svg">
<path fill="#95321f" d=" M 0.00 0.00 L 1024.00 0.00 L 1024.00 1024.00 L 0.00 1024.00 L 0.00 0.00 Z" />
<path fill="#ffffff" d=" M 356.13 163.50 C 357.49 158.04 365.38 154.96 369.33 159.36 C 370.51 156.83 373.38 157.59 375.62 157.36 C 373.56 165.10 371.60 173.25 366.49 179.62 C 362.21 178.26 357.53 174.50 353.00 177.10 C 349.96 178.45 347.94 181.18 346.27 183.94 C 345.20 185.36 344.20 186.83 343.21 188.30 C 348.01 191.11 352.78 194.41 355.68 199.29 C 360.02 206.70 360.87 215.42 363.43 223.48 C 366.66 232.73 373.87 239.71 380.86 246.24 C 385.00 249.87 388.76 253.89 392.71 257.72 C 403.29 250.95 413.84 243.58 421.58 233.53 C 427.33 226.14 430.98 217.46 434.82 209.00 C 437.40 203.61 440.63 198.06 445.97 195.02 C 448.86 193.27 452.22 192.64 455.51 192.15 C 454.48 186.52 453.06 180.26 448.09 176.73 C 444.15 174.39 439.45 176.31 435.27 176.74 C 433.76 173.62 434.28 170.11 434.08 166.77 C 433.89 163.67 433.53 160.58 433.19 157.49 C 434.84 157.48 436.50 157.47 438.16 157.46 C 438.78 161.77 439.24 166.10 439.39 170.45 C 441.69 168.40 444.31 166.20 444.74 162.94 C 445.20 160.91 443.88 159.15 443.10 157.40 C 445.14 157.45 447.19 157.48 449.24 157.50 C 449.48 159.36 449.69 161.23 449.90 163.10 C 452.66 163.08 455.98 162.53 458.10 164.80 C 461.55 167.55 461.26 172.30 460.64 176.22 C 465.26 177.13 469.59 180.94 469.29 185.97 C 469.80 190.18 466.80 193.68 463.19 195.37 C 463.53 198.10 464.43 201.10 462.92 203.65 C 460.91 207.41 456.54 208.75 452.58 209.15 C 452.52 211.82 451.83 214.39 450.55 216.72 C 450.88 217.79 451.22 218.85 451.58 219.91 C 455.85 216.99 461.70 214.52 466.64 217.36 C 470.93 219.28 470.77 225.77 467.23 228.32 C 465.76 229.64 464.04 228.20 462.78 227.33 C 462.34 225.48 462.35 223.57 462.18 221.69 C 458.68 222.23 455.58 223.99 453.40 226.80 C 453.84 230.77 453.77 234.77 453.72 238.76 C 458.11 238.33 463.34 237.78 466.78 241.18 C 470.97 244.48 468.17 251.76 463.28 252.65 C 459.19 251.91 460.75 246.72 460.60 243.71 C 457.73 244.06 454.50 244.15 452.29 246.28 C 450.51 249.31 449.46 252.71 447.79 255.80 C 451.61 257.26 455.97 259.67 456.48 264.20 C 457.22 267.72 454.04 270.01 451.72 272.01 C 450.10 271.49 447.63 271.77 447.26 269.61 C 445.82 266.91 447.77 264.30 450.10 263.01 C 448.18 262.35 446.33 261.35 444.28 261.21 C 440.71 264.53 437.57 268.36 433.39 270.99 C 437.02 272.56 440.75 275.59 440.93 279.86 C 440.51 283.82 436.18 286.47 432.40 285.72 C 430.64 284.49 430.61 282.25 430.30 280.35 C 431.36 279.23 432.42 278.12 433.49 277.01 C 430.69 276.35 427.73 275.12 424.87 276.17 C 421.63 277.29 418.48 278.68 415.16 279.58 C 417.29 281.17 418.69 283.45 419.53 285.96 C 418.63 288.31 417.86 291.37 415.07 292.12 C 411.62 293.83 406.41 290.92 407.30 286.78 C 408.70 285.66 410.41 285.07 412.03 284.33 C 409.85 283.41 407.69 282.44 405.61 281.32 C 402.65 281.26 399.70 281.26 396.74 281.27 C 395.31 284.13 394.39 287.20 393.14 290.12 C 392.08 290.73 390.99 291.28 389.88 291.77 C 388.69 288.34 387.59 284.87 385.84 281.68 C 383.57 281.70 381.31 281.71 379.06 281.73 C 380.06 285.89 379.64 290.55 376.05 293.36 C 375.27 293.56 373.71 293.96 372.93 294.16 C 370.50 292.82 368.08 290.47 369.36 287.44 C 370.80 286.52 372.40 285.90 373.96 285.21 C 373.24 284.16 372.51 283.12 371.79 282.08 C 363.67 282.55 355.14 285.33 349.75 291.71 C 345.36 296.78 342.80 303.93 344.59 310.57 C 345.65 314.56 349.42 318.13 353.75 317.69 C 358.37 317.11 361.72 313.44 363.89 309.59 C 363.79 306.58 362.90 303.41 360.13 301.79 C 357.73 300.83 356.70 303.37 355.42 304.83 C 356.43 305.82 357.46 306.82 358.48 307.82 C 357.98 309.07 357.47 310.32 356.97 311.57 C 354.04 311.29 350.38 310.30 349.74 306.94 C 348.57 299.95 357.48 293.83 363.67 297.22 C 367.72 299.11 369.23 303.91 369.57 308.05 C 369.29 314.37 364.56 319.92 358.76 322.10 C 352.39 324.03 343.78 323.00 340.64 316.31 C 335.78 306.46 339.82 294.78 346.33 286.71 C 341.99 286.79 337.26 287.10 333.56 284.38 C 327.63 280.49 326.70 272.49 328.13 266.08 C 329.25 261.91 331.31 257.47 335.30 255.36 C 339.92 252.82 347.15 255.35 348.18 260.79 C 348.59 265.69 343.63 270.27 338.75 269.32 C 337.11 268.44 337.70 266.53 337.82 265.05 C 339.25 264.13 340.84 263.51 342.36 262.76 C 341.55 261.05 340.15 259.73 338.13 260.01 C 334.37 262.70 333.20 267.81 333.14 272.20 C 332.92 276.55 336.36 280.61 340.68 281.14 C 347.04 281.84 353.33 280.09 359.46 278.59 C 366.34 276.29 373.64 275.80 380.86 275.75 C 377.38 270.89 376.94 264.67 378.80 259.09 C 375.88 258.86 372.63 258.91 370.36 256.75 C 367.13 254.42 366.12 250.31 366.31 246.52 C 362.46 245.76 358.01 244.45 356.25 240.56 C 354.47 237.72 355.02 234.29 355.37 231.15 C 353.34 230.18 350.76 229.63 349.67 227.43 C 347.58 223.90 348.91 219.72 349.81 216.04 C 348.38 215.60 346.81 215.50 345.55 214.67 C 342.81 211.95 343.72 207.84 343.74 204.38 C 340.21 204.64 336.18 204.19 334.14 200.90 C 331.27 197.59 331.36 192.99 333.12 189.19 C 332.14 187.20 331.31 185.14 330.57 183.06 C 331.53 180.37 332.32 177.44 334.47 175.41 C 336.28 173.31 339.12 172.78 341.68 172.12 C 341.93 169.41 341.33 165.89 343.85 164.07 C 347.45 161.50 352.16 162.45 356.13 163.50 Z" />
<path fill="#ffffff" d=" M 424.94 157.49 C 426.73 157.47 428.53 157.46 430.33 157.44 C 431.83 164.79 433.02 172.25 432.84 179.77 C 436.80 179.05 441.19 177.90 444.97 179.90 C 448.68 181.86 450.28 186.27 450.20 190.27 C 448.91 191.74 446.96 192.30 445.29 193.20 C 440.03 195.69 435.33 199.66 432.80 204.98 C 429.32 212.31 426.75 220.24 421.55 226.61 C 415.31 234.02 408.24 240.73 400.51 246.56 C 398.40 248.09 396.46 249.97 393.99 250.89 C 390.48 249.41 388.02 246.26 385.04 243.97 C 377.64 236.95 369.57 229.86 365.95 220.01 C 362.89 212.49 363.02 203.67 357.96 197.02 C 355.42 193.35 351.22 191.46 348.15 188.34 C 349.42 185.47 350.75 181.93 354.10 180.97 C 358.81 179.93 363.56 181.44 368.21 182.16 C 372.60 174.36 375.68 165.89 378.45 157.40 C 380.10 157.45 381.75 157.50 383.41 157.56 C 381.49 164.50 378.94 171.24 375.89 177.77 C 374.33 180.99 373.77 185.37 370.20 187.08 C 364.89 187.42 359.36 183.45 354.41 186.76 C 358.13 189.54 361.87 192.55 364.13 196.69 C 367.50 202.69 367.04 209.92 369.82 216.14 C 374.08 226.50 382.27 234.48 390.46 241.82 C 390.00 238.10 390.00 234.35 390.08 230.61 C 383.81 228.27 377.95 223.69 376.13 216.98 C 373.63 207.46 377.25 197.77 381.20 189.18 C 385.81 178.67 392.20 168.84 394.66 157.48 C 397.29 157.47 399.91 157.46 402.54 157.46 C 403.04 157.96 404.04 158.97 404.53 159.48 C 404.54 158.98 404.56 157.98 404.57 157.48 C 406.19 157.47 407.82 157.47 409.45 157.46 C 409.56 158.35 409.78 160.13 409.90 161.03 C 410.21 160.13 410.84 158.35 411.15 157.46 C 412.79 157.46 414.44 157.48 416.10 157.50 C 419.31 170.50 422.55 183.84 421.73 197.32 C 420.17 208.35 416.32 220.01 407.29 227.17 C 403.94 229.95 399.58 230.68 395.42 231.39 C 395.33 235.31 395.67 239.23 396.67 243.04 C 405.76 236.10 414.84 228.63 420.74 218.66 C 425.12 211.38 426.33 202.42 432.07 195.94 C 435.61 192.02 440.38 189.57 445.09 187.36 C 444.03 186.16 443.29 184.55 441.79 183.86 C 437.57 183.57 433.66 186.93 429.44 185.58 C 427.27 184.60 427.90 181.91 427.78 180.02 C 427.90 172.42 426.75 164.86 424.94 157.49 Z" />
<path fill="#ffffff" d=" M 470.29 157.52 C 474.92 157.58 479.74 156.86 484.18 158.55 C 496.16 162.59 509.42 162.61 521.39 158.52 C 526.06 156.72 531.14 157.67 536.01 157.51 C 524.98 164.20 511.93 167.18 499.09 166.58 C 495.92 169.97 491.98 173.54 486.95 172.95 C 481.89 173.55 477.95 169.59 476.30 165.19 C 473.31 165.93 470.09 166.72 467.08 165.63 C 463.06 164.32 460.45 160.77 458.02 157.55 C 460.06 157.50 462.12 157.47 464.18 157.46 C 465.78 158.81 467.35 160.27 469.31 161.11 C 471.00 161.18 472.64 160.64 474.29 160.29 C 472.96 159.36 471.62 158.44 470.29 157.52 Z" />
<path fill="#ffffff" d=" M 581.40 157.53 C 597.10 157.40 612.80 157.49 628.51 157.48 C 627.42 162.33 626.21 168.12 629.55 172.39 C 631.26 174.87 634.25 175.70 637.01 176.43 C 636.53 168.74 644.76 164.36 651.37 163.56 C 658.98 163.01 666.64 165.25 673.43 168.58 C 675.05 166.41 676.96 164.50 679.18 162.94 C 678.11 161.43 677.07 159.90 676.06 158.36 C 667.11 163.06 655.03 164.18 646.74 157.56 C 658.38 157.39 670.03 157.43 681.68 157.55 C 684.65 159.85 688.36 160.73 692.07 160.79 C 692.75 159.68 693.43 158.59 694.13 157.49 C 699.50 157.44 704.88 157.49 710.26 157.45 C 710.84 159.27 711.47 161.09 712.06 162.93 C 715.30 162.47 718.56 161.90 721.56 160.49 C 721.66 159.74 721.85 158.23 721.95 157.47 C 724.51 157.47 727.09 157.47 729.66 157.48 C 734.76 161.22 740.89 164.12 747.35 163.79 C 751.28 163.10 754.43 160.38 756.96 157.44 C 758.87 157.47 760.79 157.51 762.72 157.59 C 760.44 162.67 756.17 167.15 750.58 168.36 C 742.20 170.17 733.62 167.09 726.91 162.13 C 725.46 163.52 723.98 164.87 722.43 166.14 C 723.69 168.47 724.55 170.99 724.93 173.62 C 731.28 172.81 737.63 170.85 744.08 171.77 C 749.57 172.49 754.66 176.34 756.33 181.70 C 756.85 184.20 755.86 186.59 755.05 188.91 C 760.56 191.82 766.43 194.83 772.82 194.78 C 778.78 193.37 784.02 188.46 785.10 182.30 C 782.33 184.58 779.49 187.12 775.81 187.68 C 773.31 188.07 770.01 188.35 768.37 186.02 C 768.20 183.16 769.48 180.53 770.66 178.02 C 768.96 176.40 764.79 174.13 767.25 171.50 C 768.67 170.09 770.61 169.39 772.39 168.54 C 772.02 165.83 771.46 162.67 773.50 160.43 C 779.28 159.28 785.63 162.37 788.33 167.62 C 790.29 171.70 787.82 176.30 789.36 180.53 C 790.78 186.12 787.29 191.15 783.93 195.24 C 789.13 193.61 794.13 190.94 797.51 186.55 C 804.38 177.86 807.00 166.78 812.83 157.46 C 815.01 157.46 817.19 157.46 819.38 157.47 C 816.80 160.78 814.85 164.50 813.11 168.30 C 817.74 168.07 822.82 168.27 826.49 171.52 C 831.49 175.19 835.40 183.20 830.34 188.41 C 830.62 192.61 831.38 197.69 827.96 200.89 C 824.96 204.17 820.06 203.85 816.09 203.11 C 814.19 202.92 814.30 200.73 813.70 199.41 C 811.19 199.13 808.69 198.86 806.20 198.65 C 805.76 197.84 805.34 197.04 804.92 196.24 C 806.13 194.36 807.36 192.49 808.61 190.63 C 808.00 189.45 806.56 188.45 806.93 186.96 C 808.29 182.38 813.26 179.11 818.03 179.71 C 821.84 179.50 825.02 181.92 828.30 183.51 C 827.06 180.40 825.65 177.04 822.62 175.28 C 818.44 172.19 811.30 172.69 808.87 177.72 C 805.11 185.19 800.72 192.98 793.22 197.26 C 786.18 201.54 777.58 201.02 769.71 200.22 C 772.98 205.64 776.16 211.59 775.99 218.10 C 776.32 224.64 770.93 230.17 764.99 231.97 C 757.74 234.05 750.17 231.60 742.83 232.85 C 738.93 233.65 735.57 235.87 732.12 237.71 C 732.39 238.73 732.67 239.75 732.97 240.78 C 734.16 239.54 735.11 237.65 737.07 237.61 C 739.30 237.85 741.23 239.07 743.02 240.36 C 742.60 241.83 742.15 243.29 741.68 244.74 C 738.34 246.16 734.27 247.20 730.99 245.08 C 728.80 244.06 727.81 241.78 726.76 239.77 C 723.63 241.57 719.31 241.91 717.27 238.36 C 717.60 237.75 718.27 236.52 718.60 235.91 C 720.49 235.73 722.40 235.53 724.29 235.25 C 722.95 232.80 720.50 230.10 721.90 227.13 C 723.34 222.73 729.11 218.73 733.46 221.66 C 735.69 223.82 733.89 226.98 733.48 229.51 C 730.78 230.46 728.87 228.99 727.64 226.58 C 727.45 227.92 726.62 229.39 727.61 230.61 C 731.16 231.25 734.50 229.60 737.86 228.74 C 746.92 226.41 756.74 230.81 765.46 226.67 C 769.64 224.96 770.30 220.02 770.91 216.13 C 768.51 218.01 766.23 220.41 763.09 220.92 C 759.35 221.91 755.62 220.09 752.63 218.00 C 752.36 217.15 751.83 215.46 751.56 214.61 C 753.47 211.84 756.54 210.30 759.93 210.47 C 760.26 212.34 760.31 214.25 760.21 216.15 C 762.05 215.51 764.26 215.27 765.58 213.66 C 767.23 211.89 766.90 209.24 767.45 207.03 C 765.62 203.95 763.70 200.93 761.70 197.97 C 758.52 196.66 755.42 195.18 752.55 193.31 C 752.80 196.67 753.34 200.74 750.45 203.19 C 747.53 206.27 743.15 206.42 739.21 206.19 C 737.35 208.35 735.16 210.94 732.02 210.74 C 726.29 211.45 720.58 208.02 717.95 203.01 C 714.92 197.86 713.99 191.87 713.17 186.04 C 710.36 185.37 707.64 184.37 705.09 183.02 C 704.03 185.28 702.82 187.46 701.40 189.51 C 705.37 192.10 709.18 195.38 710.89 199.95 C 713.92 207.38 712.00 216.60 706.30 222.24 C 703.68 224.94 699.82 224.44 696.44 224.20 C 693.93 227.38 690.33 230.26 686.03 229.88 C 683.18 230.16 680.79 228.39 678.39 227.16 C 674.60 228.41 670.71 229.26 666.77 229.83 C 666.54 230.23 666.09 231.02 665.86 231.41 C 668.40 231.21 670.88 231.67 673.07 233.01 C 673.00 236.12 670.60 237.77 667.94 238.73 C 666.01 237.88 663.76 237.33 662.47 235.53 C 660.39 233.08 661.25 229.60 661.79 226.75 C 658.45 224.12 656.80 218.60 660.62 215.62 C 663.17 213.07 667.47 214.82 668.54 217.97 C 669.08 220.45 666.46 221.58 665.03 223.06 C 668.75 223.97 672.62 223.71 676.15 222.20 C 676.39 220.32 676.67 218.46 676.96 216.59 C 674.93 215.15 672.84 213.62 671.64 211.37 C 668.49 206.40 669.70 199.06 674.53 195.60 C 678.62 192.49 683.65 191.03 688.60 189.93 C 686.22 187.55 684.58 184.57 684.17 181.22 C 682.40 181.04 680.65 180.85 678.90 180.65 C 677.47 189.19 672.47 197.72 664.31 201.31 C 659.95 203.35 654.36 203.70 650.27 200.91 C 647.84 199.25 647.75 196.17 647.67 193.53 C 643.65 194.10 639.60 193.08 636.84 189.99 C 635.05 190.24 632.79 191.36 631.34 189.67 C 629.38 188.00 630.94 185.54 631.73 183.72 C 628.18 181.06 623.32 180.75 620.33 177.28 C 615.09 178.75 609.97 176.32 606.13 172.87 C 604.40 175.22 602.03 176.91 599.35 178.02 C 598.56 182.88 596.99 187.55 594.99 192.04 C 593.69 194.52 594.63 197.27 595.62 199.67 C 597.12 198.84 598.62 197.99 600.12 197.16 C 600.86 197.98 601.61 198.80 602.35 199.63 C 602.16 200.36 601.78 201.83 601.59 202.56 C 599.08 203.77 596.11 205.27 593.35 203.90 C 590.74 202.91 590.21 199.89 589.15 197.64 C 585.25 200.02 579.57 200.23 576.38 196.57 C 573.22 192.61 570.95 186.62 574.01 181.97 C 576.37 178.16 582.96 176.78 585.32 181.33 C 587.06 184.06 586.44 190.48 582.17 189.76 C 578.88 189.64 580.98 185.53 580.65 183.55 C 579.06 184.59 576.71 186.00 577.77 188.26 C 578.21 191.64 581.09 193.66 584.04 194.78 C 590.39 191.43 593.17 184.30 594.10 177.56 C 591.16 175.32 588.62 172.55 587.18 169.11 C 583.09 171.32 578.33 171.75 573.97 170.06 C 569.25 175.60 561.49 177.22 557.19 183.18 C 555.82 184.68 555.70 186.75 555.47 188.66 C 556.13 189.42 556.78 190.18 557.45 190.95 C 557.48 189.61 557.52 188.27 557.57 186.94 C 558.19 186.68 559.44 186.18 560.06 185.92 C 560.64 186.22 561.81 186.81 562.39 187.10 C 562.95 189.86 562.89 192.68 562.25 195.42 C 558.49 197.70 553.59 196.25 551.70 192.29 C 548.75 187.56 551.45 182.08 554.51 178.21 C 550.60 176.72 545.92 174.88 544.74 170.39 C 544.22 164.51 550.40 158.08 556.36 159.68 C 559.82 161.00 558.65 165.15 558.05 167.91 C 555.49 168.62 553.39 167.53 551.86 165.46 C 551.10 167.12 549.63 168.77 550.31 170.72 C 553.23 172.88 557.34 174.08 560.81 172.54 C 564.55 171.32 567.61 168.77 570.27 165.96 C 569.47 163.21 568.95 160.38 568.64 157.54 C 570.23 157.49 571.83 157.44 573.44 157.39 C 574.43 160.35 575.15 164.21 578.32 165.63 C 581.49 166.51 584.10 164.15 586.64 162.68 C 584.84 161.02 583.08 159.31 581.40 157.53 Z" />
<path fill="#ffffff" d=" M 101.05 157.47 C 104.64 156.67 107.57 158.51 109.99 160.94 C 112.57 157.58 116.90 156.86 120.87 157.62 C 127.28 158.67 133.52 160.73 140.06 160.90 C 141.30 160.79 142.53 160.68 143.77 160.58 C 144.22 161.23 145.12 162.53 145.57 163.18 C 143.56 166.18 140.97 168.72 138.01 170.78 C 139.35 172.64 140.66 174.52 141.90 176.45 C 145.44 175.46 149.18 175.39 152.72 176.40 C 153.94 169.40 157.00 161.01 164.89 159.45 C 168.63 160.78 172.85 162.64 174.31 166.67 C 175.66 169.94 173.60 173.17 172.19 176.02 C 175.68 176.21 179.78 175.93 182.47 178.63 C 185.23 182.03 184.70 187.03 182.57 190.62 C 181.26 192.87 178.54 193.52 176.31 194.45 C 178.80 196.77 181.65 199.04 182.78 202.39 C 183.26 205.20 183.07 208.77 180.41 210.48 C 177.39 212.78 173.40 211.64 169.92 211.60 C 173.17 215.32 175.58 220.10 174.05 225.14 C 175.43 226.60 176.83 228.04 178.23 229.49 C 183.41 225.60 189.09 221.27 195.94 221.58 C 202.12 221.04 207.87 223.78 212.98 226.96 C 213.14 233.85 206.10 237.16 200.39 238.56 C 204.30 243.46 207.33 249.24 207.40 255.66 C 210.18 255.11 213.64 254.65 215.05 251.81 C 216.73 248.82 215.55 245.31 215.59 242.09 C 217.11 242.17 218.67 242.09 220.17 242.47 C 221.72 246.54 222.08 251.67 219.12 255.22 C 217.14 258.03 213.78 259.20 210.85 260.72 C 215.73 265.93 221.95 272.00 229.75 270.62 C 233.86 268.74 234.75 263.38 233.52 259.46 C 232.71 257.25 230.28 256.89 228.28 256.39 C 227.94 256.83 227.26 257.71 226.92 258.15 C 228.03 258.21 229.13 258.28 230.24 258.36 C 230.58 259.13 231.26 260.67 231.60 261.44 C 229.98 263.34 227.74 265.38 225.04 264.19 C 221.12 261.45 220.91 254.27 225.38 251.91 C 229.12 250.34 233.40 252.25 236.27 254.74 C 242.07 260.67 239.51 271.65 232.19 275.10 C 229.94 276.02 227.43 275.77 225.06 275.95 C 228.65 278.82 231.71 282.48 235.98 284.42 C 238.61 285.66 241.54 285.92 244.38 286.44 C 244.37 287.45 244.35 289.46 244.34 290.46 C 238.26 291.96 232.33 289.29 227.88 285.26 C 229.37 289.99 229.59 294.95 229.41 299.87 C 227.88 300.42 226.28 300.67 224.66 300.74 C 224.63 292.21 223.24 283.15 217.20 276.67 C 217.63 281.96 217.86 288.01 214.34 292.39 C 210.30 297.66 201.09 296.81 197.72 291.25 C 196.52 289.40 196.63 287.14 196.42 285.04 C 197.88 283.40 199.39 281.83 200.96 280.30 C 204.24 281.23 205.85 284.18 205.81 287.45 C 204.74 287.76 202.60 288.37 201.53 288.67 C 203.99 289.92 207.03 291.86 209.62 289.74 C 212.45 286.93 213.11 282.51 212.17 278.75 C 211.26 274.69 209.27 271.02 207.13 267.50 C 204.39 271.75 199.07 274.66 194.02 272.99 C 192.25 272.75 189.45 271.04 191.08 268.99 C 192.35 266.47 195.49 268.23 197.47 268.62 C 200.58 267.79 202.39 265.22 202.86 262.14 C 197.76 258.52 191.49 257.11 186.44 253.40 C 185.90 257.91 183.94 262.65 179.75 264.90 C 178.36 265.62 176.24 266.65 174.95 265.25 C 169.44 259.10 168.41 250.13 169.83 242.28 C 170.41 238.69 172.87 235.94 174.88 233.08 C 173.53 231.41 171.95 229.95 170.43 228.43 C 165.06 230.09 159.80 227.47 156.26 223.49 C 155.85 227.57 155.62 232.29 152.21 235.15 C 149.80 237.80 145.22 237.92 142.74 235.33 C 141.06 233.50 139.97 231.24 138.86 229.05 C 137.67 232.64 136.21 237.24 132.04 238.26 C 128.76 238.89 124.51 238.58 122.45 235.58 C 120.05 232.58 121.30 228.51 121.88 225.10 C 118.84 226.62 115.59 228.39 112.07 227.89 C 105.33 227.13 102.66 217.02 107.73 212.76 C 111.53 209.19 116.90 208.27 121.84 207.41 C 121.95 204.27 122.24 201.14 122.81 198.06 C 120.10 196.80 117.43 195.44 114.82 193.98 C 112.90 196.34 111.11 198.90 108.55 200.62 C 107.36 201.48 105.42 201.74 104.86 200.04 C 104.62 198.35 104.68 196.64 104.63 194.94 C 104.56 187.08 100.72 179.69 101.50 171.76 C 101.42 168.79 104.19 167.06 105.96 165.08 C 103.90 162.84 101.34 160.73 101.05 157.47 Z" />
<path fill="#ffffff" d=" M 185.88 157.52 C 187.67 157.49 189.46 157.47 191.25 157.45 C 193.72 162.82 198.49 168.22 204.95 167.69 C 210.74 167.28 214.34 162.12 216.82 157.45 C 218.49 157.47 220.17 157.49 221.84 157.53 C 221.64 158.15 221.24 159.40 221.04 160.02 C 223.08 161.35 225.87 162.53 226.11 165.34 C 227.47 169.73 225.05 174.34 221.16 176.49 C 220.50 176.10 219.19 175.32 218.53 174.93 C 218.48 173.23 218.45 171.52 218.43 169.82 C 219.51 169.05 220.59 168.28 221.67 167.51 C 220.73 166.64 219.79 165.79 218.84 164.95 C 216.58 167.96 213.78 170.54 210.44 172.32 C 209.53 177.48 207.66 183.10 202.93 185.97 C 200.85 187.46 197.79 186.27 196.89 183.98 C 196.17 181.99 196.18 179.84 195.94 177.77 C 198.30 176.18 200.90 176.88 203.36 177.82 C 203.94 176.34 204.52 174.87 205.11 173.40 C 201.29 172.76 197.48 171.75 194.30 169.43 C 192.58 171.89 190.25 174.53 186.94 174.36 C 182.28 175.03 180.15 169.74 179.40 166.03 C 180.92 165.52 182.49 163.64 184.19 164.62 C 186.16 165.59 186.45 167.98 187.28 169.77 C 188.29 168.33 189.30 166.90 190.29 165.45 C 188.72 162.86 187.27 160.21 185.88 157.52 Z" />
<path fill="#ffffff" d=" M 234.19 157.54 C 235.84 157.51 237.49 157.47 239.15 157.45 C 240.30 161.01 243.95 158.70 246.12 157.59 C 248.03 157.51 249.94 157.47 251.86 157.43 C 247.95 163.12 244.38 170.02 246.16 177.11 C 246.84 180.78 250.25 183.44 253.92 183.56 C 259.56 184.10 264.68 180.15 267.34 175.45 C 269.08 172.58 267.80 168.30 264.43 167.39 C 262.76 166.59 261.12 168.12 259.56 168.57 C 259.37 169.23 258.99 170.54 258.80 171.19 C 260.45 170.81 262.09 170.34 263.78 170.17 C 264.51 171.02 265.12 171.95 265.61 172.96 C 263.98 176.43 258.84 177.31 255.73 175.40 C 252.95 173.60 253.10 169.87 253.88 167.06 C 257.81 161.13 268.21 160.55 272.00 166.95 C 273.11 169.14 273.94 171.73 273.27 174.19 C 271.93 180.67 266.13 185.25 260.15 187.36 C 255.16 189.11 248.78 189.21 244.81 185.23 C 242.05 182.57 241.52 178.64 240.68 175.10 C 238.21 174.67 235.43 174.27 233.82 172.11 C 232.61 168.81 234.10 165.54 235.76 162.73 C 235.21 161.01 234.70 159.27 234.19 157.54 Z" />
<path fill="#ffffff" d=" M 276.67 157.51 C 278.34 157.48 280.02 157.45 281.70 157.42 C 282.03 159.97 282.45 162.51 282.96 165.04 C 286.22 163.61 287.86 160.44 289.34 157.41 C 291.33 157.46 293.32 157.49 295.32 157.53 C 294.10 161.35 294.33 165.40 295.92 169.08 C 299.35 165.99 301.02 161.62 302.78 157.48 C 304.73 157.47 306.67 157.48 308.63 157.48 C 307.32 162.88 305.58 168.63 308.04 173.99 C 313.51 170.33 312.34 163.08 311.63 157.50 C 313.29 157.48 314.94 157.47 316.61 157.46 C 317.14 163.10 318.62 168.74 322.30 173.19 C 325.89 168.83 325.77 162.74 324.91 157.46 C 326.76 157.47 328.61 157.47 330.48 157.49 C 331.19 163.32 331.03 169.73 327.70 174.79 C 326.27 176.83 323.93 178.89 321.26 178.36 C 318.77 177.91 317.56 175.49 316.14 173.68 C 314.36 176.46 311.60 179.05 308.00 178.44 C 303.93 178.77 302.33 174.45 301.49 171.26 C 299.88 173.09 297.89 175.40 295.15 174.69 C 292.02 173.92 290.75 170.60 289.67 167.93 C 287.83 168.89 285.92 169.72 284.01 170.53 C 281.75 169.51 278.83 168.87 277.68 166.41 C 276.12 163.71 276.85 160.47 276.67 157.51 Z" />
<path fill="#ffffff" d=" M 870.67 157.45 C 872.62 157.46 874.57 157.47 876.54 157.49 C 878.15 165.55 878.57 175.13 872.70 181.65 C 869.55 185.57 864.17 185.73 860.09 188.18 C 856.44 190.24 851.68 190.49 848.12 188.11 C 842.89 184.54 840.36 178.15 839.72 172.04 C 839.48 168.09 839.34 163.61 842.14 160.45 C 848.17 162.31 854.64 164.28 859.17 168.93 C 862.46 172.11 862.86 176.91 864.70 180.89 C 873.61 177.01 874.45 165.28 870.67 157.45 Z" />
<path fill="#ffffff" d=" M 512.16 169.83 C 520.95 167.65 531.33 170.97 536.11 178.93 C 544.28 191.97 536.32 212.50 520.78 215.17 C 524.64 208.74 528.68 201.72 527.95 193.91 C 528.15 188.81 525.13 183.40 520.01 182.00 C 515.94 181.02 511.33 181.55 507.80 183.91 C 504.34 186.42 502.51 190.65 502.11 194.82 C 501.36 201.54 503.81 208.04 506.53 214.05 C 501.96 211.72 497.64 208.27 495.74 203.37 C 490.81 190.36 498.65 173.70 512.16 169.83 Z" />
<path fill="#ffffff" d=" M 285.93 181.79 C 287.90 180.04 290.05 182.30 291.33 183.75 C 299.27 192.79 306.68 202.37 315.90 210.19 C 316.31 212.77 314.88 214.50 312.64 215.55 C 315.14 227.90 314.49 240.59 316.14 253.04 C 317.36 263.66 319.64 274.11 321.48 284.62 C 322.08 288.23 323.64 291.55 325.09 294.88 C 323.12 298.11 320.63 301.15 319.82 304.94 C 317.85 312.43 315.85 319.91 313.63 327.33 C 334.45 324.82 355.65 329.10 374.54 337.97 C 375.99 333.30 377.06 328.53 378.61 323.89 C 380.34 324.24 382.08 324.59 383.81 324.96 C 382.32 330.47 380.18 335.83 379.52 341.53 C 383.53 339.58 387.32 337.23 391.19 335.02 C 393.40 327.37 396.63 320.08 400.29 313.03 C 401.75 313.75 403.21 314.48 404.67 315.20 C 402.74 320.85 399.84 326.09 397.74 331.67 C 401.61 329.80 405.58 328.14 409.56 326.50 C 412.06 319.61 413.90 312.52 415.20 305.32 C 416.79 305.84 418.40 306.33 420.01 306.83 C 418.89 312.40 417.56 317.92 416.04 323.39 C 419.29 321.49 422.54 319.59 425.81 317.72 C 427.35 310.51 428.80 303.28 429.86 295.99 C 431.50 296.17 433.14 296.35 434.79 296.56 C 434.17 302.30 432.96 307.96 432.04 313.66 C 435.32 311.44 438.53 309.13 441.76 306.84 C 443.06 299.51 444.05 292.12 444.90 284.72 C 446.54 284.81 448.18 284.89 449.83 284.98 C 449.39 290.74 448.45 296.46 447.78 302.20 C 451.35 299.64 455.11 297.26 458.20 294.11 C 459.69 286.92 459.92 279.47 460.68 272.16 C 462.34 272.17 464.01 272.19 465.69 272.22 C 465.50 278.01 464.62 283.75 464.09 289.52 C 467.71 286.83 471.13 283.89 474.66 281.09 C 475.58 273.57 476.04 266.00 476.61 258.46 C 478.25 258.49 479.90 258.54 481.55 258.59 C 481.55 264.41 480.54 270.18 480.51 276.00 C 483.73 273.33 486.82 270.51 490.07 267.86 C 490.77 261.15 491.63 253.72 487.26 247.97 C 488.77 248.23 490.29 248.48 491.82 248.72 C 494.53 252.93 495.38 257.89 495.85 262.79 C 498.20 260.29 500.36 257.62 502.23 254.74 C 499.49 248.37 495.05 243.03 490.30 238.06 C 491.67 237.24 493.05 236.42 494.43 235.61 C 498.35 239.48 501.55 243.99 504.91 248.34 C 505.65 244.61 506.41 240.88 506.66 237.08 C 501.59 231.16 496.54 225.18 492.63 218.42 C 494.02 217.13 495.45 215.87 496.90 214.64 C 499.93 220.02 503.48 225.07 507.32 229.91 C 507.85 225.74 508.47 221.59 508.96 217.41 C 510.78 217.80 512.62 218.20 514.45 218.62 C 513.92 222.52 513.40 226.43 512.89 230.35 C 517.28 226.72 521.88 223.36 526.87 220.60 C 527.82 221.83 528.77 223.07 529.74 224.30 C 523.43 228.32 517.66 233.09 512.11 238.09 C 511.86 242.15 511.05 246.13 510.15 250.09 C 515.44 246.75 520.10 242.56 524.85 238.52 C 525.79 240.05 526.73 241.58 527.66 243.14 C 521.90 249.18 515.00 254.06 507.44 257.59 C 504.77 260.81 502.47 264.33 499.56 267.36 C 506.27 267.04 512.93 265.42 518.74 261.97 C 518.80 262.66 518.91 264.02 518.96 264.71 C 519.19 263.43 519.43 262.15 519.68 260.87 C 521.34 261.18 523.00 261.48 524.68 261.78 C 523.50 267.27 522.31 272.76 521.36 278.30 C 524.69 276.25 528.22 274.50 531.29 272.06 C 532.37 271.29 532.45 269.86 532.82 268.70 C 534.22 262.52 535.66 256.34 537.16 250.18 C 538.79 250.64 540.41 251.10 542.04 251.57 C 540.68 257.09 539.30 262.60 538.00 268.13 C 541.32 266.13 544.95 264.56 548.04 262.18 C 550.56 255.27 551.80 247.91 554.53 241.04 C 556.08 241.56 557.63 242.10 559.19 242.64 C 557.52 248.09 555.83 253.53 554.26 259.01 C 557.81 256.52 563.94 256.16 564.85 251.15 C 566.60 245.00 568.95 239.07 571.09 233.06 C 572.70 233.66 574.30 234.28 575.92 234.91 C 573.95 240.27 571.94 245.62 570.07 251.02 C 573.48 249.44 576.92 247.93 580.37 246.44 C 583.03 239.51 585.88 232.66 588.91 225.88 C 590.47 226.58 592.03 227.30 593.59 228.04 C 591.26 233.21 588.95 238.40 586.90 243.69 C 590.45 242.41 593.96 241.01 597.52 239.75 C 598.16 241.50 598.83 243.25 599.52 245.00 C 596.01 246.27 592.51 247.57 589.07 249.01 C 594.00 251.55 598.98 254.01 603.96 256.44 C 603.32 257.95 602.68 259.45 602.05 260.96 C 595.62 257.72 589.15 254.53 582.57 251.58 C 579.27 253.07 575.95 254.53 572.68 256.10 C 577.83 258.22 582.92 260.46 588.00 262.76 C 587.38 264.41 586.77 266.07 586.17 267.73 C 586.65 267.92 587.61 268.30 588.08 268.49 C 584.96 273.65 581.78 278.77 578.78 284.00 C 583.28 282.69 587.81 281.51 592.33 280.26 C 596.53 273.64 601.04 267.21 605.83 261.00 C 607.35 261.99 608.88 262.97 610.43 263.95 C 606.75 268.70 603.13 273.50 599.82 278.52 C 603.99 277.57 608.21 276.89 612.43 276.16 C 617.23 269.90 622.51 264.03 627.94 258.32 C 629.35 259.49 630.79 260.65 632.20 261.84 C 627.90 265.95 624.04 270.48 620.18 275.00 C 623.95 274.77 627.71 274.40 631.50 274.38 C 637.08 268.64 642.90 263.13 649.24 258.21 C 650.54 259.45 651.85 260.70 653.15 261.97 C 648.38 265.81 643.83 269.91 639.24 273.96 C 643.33 273.78 647.41 274.38 651.49 274.27 C 657.94 269.64 664.10 264.50 670.99 260.46 C 672.10 261.85 673.19 263.26 674.27 264.68 C 669.36 268.12 664.13 271.11 659.52 274.97 C 663.62 275.50 667.71 276.12 671.80 276.79 C 671.52 278.51 671.27 280.25 671.02 281.98 C 666.91 281.64 662.83 281.04 658.76 280.50 C 661.46 283.89 664.07 287.36 666.60 290.88 C 669.65 290.18 672.77 289.87 675.91 289.79 C 675.19 288.06 674.51 286.30 673.89 284.54 C 680.34 287.59 686.84 291.28 694.21 291.20 C 698.98 290.87 704.42 289.24 706.67 284.59 C 709.43 278.30 707.07 269.47 700.33 266.79 C 691.90 263.26 682.27 266.06 674.73 270.52 C 676.62 265.60 680.13 261.27 685.05 259.14 C 698.56 253.71 716.65 261.63 719.95 276.28 C 721.55 283.11 718.93 290.34 714.47 295.54 C 710.18 300.14 703.72 302.20 697.53 301.81 C 704.18 312.57 699.39 328.83 687.06 332.92 C 676.60 336.80 663.70 332.86 657.25 323.74 C 656.07 321.71 654.16 319.56 654.72 317.06 C 661.07 320.44 667.84 323.91 675.26 323.47 C 679.09 323.09 683.28 322.02 685.76 318.84 C 690.72 312.18 687.40 301.11 679.34 298.69 C 671.10 295.84 662.25 298.76 654.99 302.87 C 656.71 299.27 658.81 295.76 662.00 293.27 C 658.61 288.73 655.18 284.22 651.45 279.96 C 647.39 279.64 643.32 279.34 639.25 279.42 C 642.11 282.32 645.06 285.16 647.68 288.29 C 648.20 288.32 649.24 288.36 649.77 288.39 C 650.61 289.57 651.46 290.76 652.33 291.95 C 647.72 295.43 642.98 298.77 638.82 302.78 C 642.59 303.21 646.37 303.54 650.12 304.14 C 649.87 305.96 649.61 307.79 649.34 309.62 C 645.53 309.08 641.71 308.61 637.89 308.23 C 641.48 312.57 644.72 317.18 647.80 321.88 C 646.54 322.89 645.28 323.92 644.04 324.95 C 640.03 318.93 635.71 313.11 630.95 307.66 C 627.37 307.64 623.79 307.65 620.21 307.65 C 623.87 311.78 627.65 315.81 631.07 320.16 C 629.99 321.33 628.89 322.50 627.81 323.68 C 623.04 318.40 618.58 312.73 613.06 308.21 C 609.49 307.85 605.93 308.39 602.38 308.65 C 606.63 312.27 610.76 316.05 614.70 320.01 C 613.76 321.28 612.82 322.56 611.89 323.83 C 606.43 319.12 601.27 314.05 595.57 309.60 C 591.67 310.15 587.78 310.80 583.91 311.52 C 588.62 314.64 592.96 318.26 597.39 321.76 C 596.50 323.08 595.60 324.40 594.72 325.73 C 588.95 321.41 583.30 316.92 577.30 312.92 C 573.09 313.83 568.93 314.93 564.76 315.98 C 569.63 318.89 574.33 322.08 579.06 325.19 C 579.58 324.90 580.61 324.32 581.12 324.03 C 582.19 325.35 583.23 326.70 584.28 328.05 C 579.62 331.43 575.30 335.24 570.96 339.02 C 575.87 338.98 581.79 341.75 585.82 337.79 C 590.73 334.01 595.85 330.47 601.20 327.32 C 602.14 328.71 603.06 330.11 604.00 331.52 C 599.24 334.82 594.24 337.75 589.59 341.20 C 593.08 341.86 596.55 342.79 600.10 343.07 C 606.70 339.62 612.86 335.29 619.78 332.45 C 620.50 333.97 621.23 335.50 621.95 337.04 C 616.72 339.40 611.79 342.31 606.83 345.17 C 610.39 346.15 613.91 347.29 617.41 348.46 C 624.08 345.00 630.98 341.97 637.99 339.26 C 638.60 340.82 639.22 342.38 639.83 343.94 C 634.56 346.11 629.29 348.30 624.16 350.77 C 627.60 352.27 631.08 353.68 634.59 355.03 C 633.86 356.76 633.11 358.49 632.36 360.22 C 628.95 358.81 625.57 357.38 622.12 356.10 C 623.92 361.31 625.96 366.44 627.63 371.70 C 626.12 372.38 624.62 373.07 623.13 373.77 C 621.03 366.94 618.48 360.25 615.57 353.73 C 612.23 352.66 608.90 351.57 605.51 350.68 C 607.81 355.60 610.01 360.58 612.14 365.58 C 610.73 366.36 609.34 367.15 607.96 367.95 C 605.20 361.42 602.22 354.98 598.80 348.77 C 595.41 348.08 592.03 347.38 588.65 346.68 C 591.56 351.38 594.35 356.16 596.79 361.12 C 595.50 362.01 594.21 362.90 592.93 363.80 C 589.61 357.50 585.94 351.39 581.87 345.55 C 578.10 345.27 574.35 344.94 570.61 344.47 C 574.07 348.78 577.31 353.25 580.38 357.84 C 579.23 358.97 578.10 360.10 576.96 361.24 C 573.12 355.36 568.59 349.98 564.17 344.52 C 559.91 344.50 555.64 344.50 551.37 344.53 C 555.35 348.46 559.42 352.31 562.83 356.76 C 561.84 357.96 560.84 359.15 559.83 360.33 C 555.35 355.36 550.87 350.30 545.61 346.14 C 544.79 345.26 543.58 345.48 542.55 345.62 C 539.41 346.04 536.30 346.63 533.18 347.12 C 537.49 350.51 541.70 354.02 545.83 357.64 C 544.95 358.97 544.08 360.32 543.22 361.67 C 537.98 357.17 532.69 352.57 526.72 349.05 C 523.12 349.16 519.60 350.78 516.11 351.72 C 520.89 354.32 525.41 357.35 529.92 360.39 C 529.29 361.88 528.67 363.38 528.06 364.89 C 522.11 360.91 516.06 357.07 509.60 353.97 C 506.54 355.27 503.45 356.49 500.41 357.82 C 505.19 360.35 510.50 361.98 514.80 365.34 C 514.52 366.79 513.99 368.17 513.54 369.57 C 507.17 366.41 500.79 363.25 494.13 360.75 C 490.82 362.58 487.47 364.33 484.16 366.14 C 489.44 367.76 494.65 369.64 499.74 371.79 C 499.35 373.33 498.96 374.88 498.59 376.44 C 491.99 373.67 485.15 371.56 478.31 369.49 C 474.61 371.70 470.72 373.56 466.87 375.47 C 472.32 377.70 477.99 379.30 483.68 380.81 C 483.10 382.38 482.59 383.99 481.89 385.53 C 474.67 384.10 467.90 381.13 461.02 378.67 C 456.86 379.51 453.11 381.65 449.10 382.96 C 454.21 385.56 459.49 387.83 464.77 390.06 C 464.14 391.61 463.52 393.15 462.90 394.71 C 455.77 392.05 449.04 388.52 442.18 385.28 C 438.76 386.49 435.30 387.60 431.82 388.62 C 436.81 391.43 441.85 394.18 446.99 396.70 C 446.20 398.27 445.41 399.83 444.63 401.40 C 440.95 399.43 437.27 397.48 433.65 395.41 C 442.59 411.38 448.64 429.52 448.31 447.98 C 448.96 465.79 442.55 483.26 433.21 498.21 C 428.03 505.82 422.10 513.14 414.42 518.36 C 402.50 526.79 387.67 531.43 373.03 530.01 C 362.02 528.90 351.07 523.46 344.91 514.05 C 339.46 505.98 339.73 494.93 344.51 486.62 C 347.67 481.27 352.09 476.50 357.59 473.52 C 361.99 471.80 367.05 470.48 371.61 472.43 C 381.27 476.35 384.24 490.68 377.09 498.17 C 372.26 503.26 362.85 503.34 358.80 497.24 C 354.18 491.16 360.69 480.99 368.15 482.94 C 371.19 484.27 371.13 488.09 370.79 490.89 C 369.82 492.72 367.61 491.56 366.02 491.60 C 365.87 490.57 365.59 488.52 365.44 487.50 C 364.40 488.96 362.44 490.51 363.41 492.53 C 364.64 494.59 366.98 495.91 369.23 496.57 C 373.64 496.56 377.17 491.91 376.34 487.65 C 375.51 483.75 373.18 480.24 370.07 477.79 C 368.02 476.07 364.80 475.93 362.63 477.48 C 357.80 480.72 355.20 486.24 353.32 491.56 C 351.93 495.82 351.32 501.07 354.25 504.84 C 357.81 509.79 364.08 511.88 369.93 512.44 C 377.00 512.91 383.73 509.68 388.86 505.01 C 384.34 501.83 382.10 496.20 383.46 490.79 C 383.99 486.32 387.70 483.41 391.08 480.96 C 386.58 475.33 384.92 467.61 387.81 460.86 C 382.39 459.95 377.24 456.59 375.72 451.07 C 373.25 455.05 369.10 457.45 364.61 458.45 C 362.24 457.79 359.89 457.04 357.66 456.00 C 356.58 459.98 354.43 463.59 351.34 466.33 C 341.81 476.54 328.14 483.39 313.99 482.87 C 301.87 483.26 289.99 479.33 279.37 473.73 C 272.04 470.14 265.67 464.95 259.76 459.38 C 256.35 459.89 253.14 461.30 250.53 463.56 C 237.18 475.00 227.87 490.54 221.82 506.91 C 217.19 520.53 214.71 535.95 220.16 549.71 C 223.85 560.67 228.26 572.53 238.40 579.13 C 245.21 571.35 254.92 566.63 265.04 565.01 C 273.45 551.91 282.99 539.43 289.22 525.08 C 291.95 538.90 291.20 553.93 284.60 566.60 C 282.80 570.36 278.98 573.15 278.64 577.53 C 277.25 585.60 275.21 593.65 271.41 600.96 C 273.77 602.03 276.12 603.13 278.49 604.18 C 281.23 602.56 285.17 599.99 287.81 603.23 C 291.32 608.27 287.28 616.42 280.93 616.26 C 277.04 615.51 276.63 611.23 276.50 608.01 C 274.24 606.68 271.98 605.37 269.72 604.06 C 268.26 606.05 266.78 608.03 265.25 609.96 C 266.90 611.87 268.58 613.77 270.31 615.61 C 273.36 615.31 277.62 614.52 279.05 618.12 C 281.06 623.72 274.53 629.76 268.97 627.82 C 266.89 627.30 266.34 625.02 265.56 623.34 C 266.02 621.70 266.69 620.10 266.83 618.40 C 265.55 616.25 263.87 614.40 262.34 612.45 C 260.09 613.68 257.83 614.89 255.53 616.02 C 256.62 618.53 257.64 621.07 258.73 623.58 C 261.08 623.98 263.33 624.77 265.44 625.86 C 268.20 633.07 258.17 639.05 252.83 634.14 C 249.87 631.26 252.36 627.20 254.43 624.64 C 253.67 622.04 252.86 619.47 252.11 616.87 C 249.68 617.17 247.25 617.48 244.82 617.72 C 244.81 620.56 244.81 623.40 244.82 626.25 C 247.57 628.11 251.22 630.74 249.60 634.59 C 246.11 640.44 235.59 638.90 234.35 631.93 C 235.79 629.39 237.96 627.40 240.63 626.23 C 240.81 623.26 241.15 620.32 241.35 617.36 C 239.03 617.04 236.71 616.71 234.39 616.37 C 233.31 618.85 232.22 621.33 231.12 623.80 C 233.36 626.52 234.16 629.99 232.58 633.27 C 229.69 634.33 226.36 635.17 223.56 633.37 C 220.06 631.88 218.08 627.58 219.93 624.11 C 221.57 621.83 224.67 622.25 227.12 621.99 C 228.40 619.83 229.66 617.66 230.95 615.51 C 220.05 612.04 212.02 603.31 205.98 593.97 C 194.49 576.30 188.34 555.91 182.97 535.72 C 178.49 518.91 176.94 501.51 176.03 484.20 C 169.56 484.85 163.18 486.17 156.93 487.91 C 150.91 489.53 144.64 489.37 138.46 489.21 C 142.27 494.12 142.86 500.67 140.56 506.37 C 143.57 506.46 146.88 506.52 149.21 508.72 C 152.37 511.12 153.06 515.22 153.07 518.94 C 157.50 519.63 162.10 521.97 163.62 526.48 C 164.73 529.02 164.15 531.80 163.63 534.41 C 165.74 535.39 168.38 536.04 169.48 538.35 C 171.02 541.83 170.12 545.77 169.17 549.30 C 171.08 550.16 173.50 550.69 174.48 552.77 C 175.96 555.39 175.03 558.51 174.91 561.34 C 178.31 561.11 182.28 561.51 184.33 564.64 C 187.25 568.10 187.12 572.99 185.31 576.94 C 188.08 580.25 188.17 585.02 185.56 588.46 C 183.76 591.72 180.07 592.86 176.72 593.79 C 176.54 596.83 176.79 600.92 173.42 602.35 C 169.83 604.45 165.73 603.05 162.07 602.00 C 161.14 604.67 159.20 606.71 156.81 608.17 C 156.82 610.40 156.96 612.74 156.15 614.88 C 155.16 616.86 153.28 618.16 151.69 619.63 C 152.30 620.75 152.91 621.89 153.52 623.03 C 161.92 622.54 170.61 625.37 176.58 631.42 C 180.27 634.66 182.49 639.09 185.32 643.02 C 187.35 644.92 190.67 645.42 191.90 648.20 C 193.39 650.39 192.67 653.07 192.33 655.48 C 199.63 658.27 198.93 668.90 193.01 672.82 C 195.36 678.20 191.97 683.25 191.41 688.57 C 188.22 706.11 178.86 722.50 165.51 734.31 C 162.55 737.07 158.56 738.89 156.64 742.63 C 153.58 748.11 150.71 754.27 151.68 760.71 C 152.57 763.61 155.49 765.63 158.51 765.46 C 163.74 765.09 167.55 760.37 168.82 755.60 C 167.72 755.64 165.51 755.72 164.40 755.77 C 164.50 757.67 164.88 759.60 164.67 761.54 C 163.79 762.37 162.87 763.17 161.91 763.93 C 160.22 761.96 158.24 759.74 158.68 756.94 C 158.67 752.64 162.90 749.35 167.00 749.53 C 170.26 749.43 173.14 751.85 174.21 754.84 C 175.02 758.71 172.96 762.56 170.31 765.26 C 167.39 768.31 163.48 771.04 159.03 770.56 C 154.49 770.89 149.06 769.26 147.40 764.56 C 145.23 758.51 146.80 751.84 148.91 745.99 C 143.07 749.15 136.76 752.39 129.92 751.87 C 122.33 752.04 116.34 743.42 118.93 736.34 C 121.04 728.73 131.56 726.19 137.60 730.55 C 141.97 734.45 136.74 741.60 131.87 741.40 C 131.12 740.41 130.42 739.41 129.77 738.37 C 131.03 736.79 132.31 735.25 133.58 733.68 C 129.74 733.86 125.10 734.65 123.70 738.85 C 123.88 742.23 126.20 745.66 129.80 745.91 C 134.28 746.13 138.57 744.35 142.56 742.50 C 149.17 739.08 155.55 735.08 161.04 730.02 C 158.42 729.03 154.86 727.44 155.17 724.05 C 154.45 720.80 157.62 717.65 160.86 718.69 C 163.35 719.34 162.64 722.31 163.19 724.22 C 164.70 724.00 166.22 723.78 167.74 723.56 C 169.92 720.93 172.02 718.23 174.06 715.48 C 171.06 715.58 167.57 716.12 165.18 713.84 C 162.46 711.44 162.33 707.27 164.49 704.48 C 165.32 704.49 166.96 704.53 167.78 704.54 C 168.56 705.38 169.35 706.22 170.13 707.08 C 170.22 707.89 170.41 709.51 170.50 710.33 C 173.42 709.61 176.26 708.58 179.05 707.47 C 179.37 706.79 180.00 705.42 180.32 704.74 C 177.70 704.42 174.53 704.55 172.70 702.27 C 170.57 700.18 171.76 695.89 174.87 695.63 C 177.03 694.91 177.83 697.74 178.82 699.06 C 180.57 697.79 182.63 696.82 183.99 695.12 C 185.05 692.69 185.44 690.05 185.96 687.48 C 184.14 687.26 182.32 687.04 180.51 686.79 C 178.63 689.16 176.56 691.89 173.35 692.37 C 169.65 693.47 165.95 691.75 162.89 689.79 C 157.56 694.37 148.52 693.90 144.75 687.57 C 141.75 689.37 138.13 690.26 134.69 689.28 C 132.28 688.79 130.84 686.63 129.25 684.97 C 125.35 685.99 120.86 686.02 117.52 683.47 C 115.27 681.72 114.94 678.69 114.39 676.10 C 112.15 676.41 109.82 677.13 107.58 676.46 C 105.01 675.77 103.27 673.62 101.50 671.80 C 101.50 667.06 101.49 662.33 101.51 657.61 C 102.71 657.34 103.91 657.08 105.11 656.83 C 103.92 655.46 102.72 654.11 101.50 652.78 C 101.50 650.07 101.50 647.37 101.50 644.68 C 106.03 650.06 110.85 655.22 116.44 659.54 C 111.08 653.48 105.89 647.26 101.49 640.45 C 101.50 636.82 101.53 633.19 101.45 629.57 C 112.01 649.87 128.98 666.62 149.19 677.28 C 140.16 667.35 135.17 654.36 133.20 641.22 C 131.02 627.49 132.30 613.20 137.13 600.15 C 139.11 594.55 141.93 589.32 144.05 583.79 C 145.11 581.46 146.43 578.28 149.40 578.16 C 154.36 578.69 159.36 581.66 164.25 579.12 C 159.72 575.18 154.61 571.12 152.92 565.07 C 151.29 559.03 150.90 552.62 148.09 546.93 C 143.64 537.77 136.50 530.17 128.78 523.65 C 129.25 527.35 129.32 531.08 129.30 534.81 C 136.43 537.18 142.37 543.34 143.32 550.95 C 144.60 560.09 140.79 568.85 137.05 576.95 C 131.82 587.73 124.86 598.06 123.17 610.18 C 121.73 621.03 121.13 632.49 125.15 642.89 C 126.34 646.55 130.33 649.20 129.60 653.37 C 128.63 653.42 126.70 653.52 125.74 653.57 C 113.37 640.05 105.68 622.72 101.65 605.00 C 101.26 588.36 101.64 571.69 101.46 555.04 C 100.85 549.74 104.61 545.47 107.64 541.58 C 111.54 536.76 117.54 533.89 123.77 534.09 C 123.90 530.03 123.61 525.96 122.62 522.01 C 114.92 527.68 107.44 533.82 101.51 541.39 C 101.50 538.79 101.49 536.21 101.48 533.63 C 108.91 526.32 116.69 519.12 125.78 513.91 C 135.27 522.13 145.39 530.36 151.35 541.65 C 155.07 548.60 155.36 556.68 158.05 563.99 C 160.16 569.57 165.17 573.28 169.99 576.41 C 169.62 579.41 168.54 582.90 165.54 584.23 C 160.44 585.99 155.19 583.68 150.07 583.63 C 148.21 586.45 146.88 589.56 145.53 592.65 C 142.34 600.24 139.08 607.92 137.84 616.12 C 136.29 625.29 137.28 634.67 138.89 643.77 C 140.16 651.05 142.59 658.10 146.00 664.67 C 143.94 657.26 141.61 649.88 140.73 642.20 C 138.81 624.27 140.89 605.48 149.32 589.32 C 150.01 588.10 150.82 586.90 151.99 586.10 C 155.73 587.01 159.12 589.61 163.08 589.37 C 169.18 588.08 172.47 582.25 175.24 577.22 C 170.08 574.46 165.20 570.73 162.52 565.41 C 157.25 555.85 158.12 544.09 152.19 534.83 C 145.53 524.15 134.89 516.90 126.82 507.43 C 117.67 512.83 108.95 519.10 101.50 526.71 C 101.49 519.17 101.49 511.64 101.52 504.11 C 104.95 502.79 108.61 502.79 112.13 503.76 C 112.51 498.19 115.81 493.58 118.83 489.12 C 112.95 489.36 107.09 490.19 101.50 492.10 C 101.50 490.06 101.50 488.03 101.51 486.00 C 102.61 485.75 103.72 485.50 104.82 485.25 C 103.71 484.29 102.61 483.32 101.51 482.35 C 101.50 479.90 101.49 477.45 101.49 475.01 C 104.44 471.63 109.49 471.61 112.43 475.03 C 112.42 475.90 112.39 477.63 112.38 478.50 C 110.89 479.17 109.37 479.76 107.84 480.36 C 110.78 481.66 113.51 484.02 116.90 483.79 C 118.94 483.82 120.98 483.79 123.02 483.79 C 124.42 480.84 125.46 477.74 126.89 474.82 C 128.00 474.38 129.18 474.16 130.33 473.87 C 131.45 477.16 131.91 480.87 134.25 483.59 C 136.46 483.88 138.71 483.78 140.94 483.85 C 140.17 480.40 139.65 476.13 142.47 473.43 C 144.09 471.54 147.34 470.54 149.25 472.57 C 150.41 473.98 150.53 475.86 150.89 477.58 C 150.36 477.98 149.29 478.78 148.76 479.18 C 147.95 479.25 146.35 479.37 145.54 479.44 C 146.65 480.75 147.04 483.63 149.22 483.35 C 156.20 482.75 163.31 480.37 168.58 475.60 C 173.34 471.10 176.50 464.58 175.71 457.93 C 176.12 452.75 171.85 448.60 167.06 447.53 C 162.65 448.73 158.12 451.25 156.56 455.83 C 155.48 458.47 157.36 460.92 158.57 463.13 C 159.29 463.39 160.74 463.91 161.47 464.17 C 162.57 463.00 163.63 461.79 164.68 460.58 C 163.95 460.09 162.49 459.13 161.76 458.65 C 162.20 457.19 161.90 455.21 163.42 454.35 C 166.20 453.54 168.98 455.66 170.12 458.08 C 171.78 465.25 162.95 471.60 156.55 468.49 C 152.87 466.47 150.76 462.27 150.58 458.17 C 150.16 453.02 153.63 448.51 157.49 445.52 C 162.96 441.69 170.45 442.03 176.26 444.93 C 177.04 436.70 178.65 428.57 180.80 420.60 C 178.41 421.07 175.24 420.28 173.83 422.81 C 171.84 425.55 168.62 427.28 165.23 427.33 C 162.41 427.13 159.86 425.80 157.39 424.55 C 154.43 426.41 150.80 427.76 147.40 426.15 C 140.13 423.00 134.98 414.97 135.57 406.99 C 135.43 402.07 137.98 397.66 140.65 393.73 C 138.55 392.37 136.61 390.82 134.79 389.12 C 132.88 391.30 130.72 393.24 128.26 394.79 C 130.28 402.44 131.66 411.26 127.47 418.44 C 124.27 424.02 116.09 427.03 110.84 422.39 C 108.05 424.17 104.82 424.84 101.54 424.75 C 101.51 422.91 101.48 421.08 101.44 419.26 C 102.96 419.33 104.53 419.77 106.03 419.29 C 108.98 417.42 108.81 413.58 109.47 410.56 C 110.45 410.56 112.42 410.55 113.40 410.54 C 114.09 412.74 114.29 415.02 113.87 417.30 C 114.27 417.85 115.08 418.95 115.48 419.50 C 118.58 418.79 122.04 417.75 123.56 414.67 C 127.05 408.31 124.11 401.01 123.03 394.42 C 122.61 394.79 121.76 395.53 121.33 395.90 C 122.27 399.10 123.79 402.23 123.82 405.62 C 122.95 406.98 121.57 407.74 119.94 407.32 C 118.93 405.87 118.47 404.13 117.87 402.50 C 115.31 405.48 111.88 407.52 108.09 408.50 C 107.38 408.06 105.98 407.19 105.27 406.76 C 105.51 405.71 105.81 404.69 106.17 403.69 C 108.99 402.61 111.72 401.27 113.87 399.10 C 111.22 399.81 108.61 400.69 105.94 401.37 C 105.44 399.93 104.63 398.54 104.66 396.98 C 108.42 394.88 112.69 393.98 116.64 392.29 C 111.49 392.48 106.40 393.31 101.37 394.37 C 101.45 392.68 101.53 391.01 101.62 389.33 C 105.33 388.62 109.05 387.99 112.78 387.40 C 112.54 384.68 112.43 381.96 112.70 379.25 C 110.86 378.53 109.05 377.78 107.25 376.97 C 105.52 379.43 103.61 381.75 101.55 383.94 C 101.44 380.28 101.17 376.50 102.65 373.06 L 101.47 373.59 C 101.50 371.02 101.50 368.46 101.51 365.89 C 102.26 366.14 103.75 366.63 104.50 366.87 C 103.50 365.49 102.50 364.11 101.48 362.75 C 101.49 360.31 101.51 357.86 101.59 355.42 C 103.89 357.54 106.00 359.85 107.91 362.32 C 110.66 361.09 113.67 360.71 116.66 360.86 C 115.65 358.44 114.92 355.91 114.23 353.39 C 109.91 353.26 105.62 352.61 101.53 351.19 C 101.50 349.04 101.49 346.88 101.50 344.74 C 101.97 345.01 102.91 345.56 103.38 345.84 C 103.92 344.60 104.48 343.38 105.04 342.16 C 106.14 342.28 108.35 342.52 109.45 342.64 C 107.43 340.73 105.46 338.77 103.53 336.77 C 104.34 335.08 104.94 332.66 107.37 333.63 C 110.66 336.42 113.67 339.53 117.19 342.06 C 116.63 340.03 116.06 338.02 115.47 336.01 C 115.84 335.39 116.59 334.15 116.97 333.53 C 117.77 333.59 119.38 333.69 120.19 333.74 C 121.53 337.24 122.06 340.95 122.47 344.66 C 123.78 340.53 125.45 336.07 124.01 331.75 C 122.72 326.26 118.08 321.03 112.12 321.07 C 110.44 320.90 109.57 322.37 108.63 323.47 C 109.79 326.22 110.48 329.83 106.81 331.03 C 104.93 328.78 103.37 326.30 101.51 324.04 C 101.50 322.33 101.50 320.62 101.50 318.92 C 102.23 319.24 103.70 319.87 104.43 320.19 C 106.82 317.22 110.36 315.84 114.09 315.60 C 114.25 313.18 114.26 310.64 115.58 308.51 C 117.46 304.82 121.86 303.75 125.33 302.11 C 125.34 301.78 125.37 301.12 125.38 300.79 C 124.67 300.11 123.95 299.43 123.23 298.76 C 122.34 299.70 121.45 300.63 120.56 301.56 C 119.24 301.14 117.92 300.70 116.61 300.27 C 116.56 299.29 116.46 297.34 116.41 296.36 C 118.97 292.76 124.46 292.53 127.62 295.47 C 130.12 297.34 130.59 300.62 130.80 303.52 C 133.21 304.76 136.26 306.03 136.60 309.12 C 138.00 313.15 134.21 316.61 130.35 316.57 C 129.36 315.63 128.38 314.69 127.40 313.74 C 127.29 311.91 128.09 309.85 127.18 308.16 C 124.00 308.26 119.95 309.29 119.54 313.07 C 118.48 317.38 122.88 319.79 125.18 322.65 C 130.80 329.11 130.65 338.65 127.42 346.19 C 129.61 347.44 131.64 348.98 133.37 350.83 C 134.68 349.38 136.03 347.97 137.40 346.59 C 134.74 341.41 133.84 335.36 135.44 329.72 C 136.63 323.45 140.94 317.12 147.63 316.09 C 151.49 315.00 155.09 317.33 157.40 320.24 C 160.89 319.18 164.76 318.03 168.27 319.69 C 172.66 321.24 174.68 326.01 174.52 330.40 C 176.75 331.30 179.63 331.83 180.71 334.28 C 182.89 339.10 181.57 345.14 177.78 348.81 C 171.57 355.20 162.15 356.55 153.65 355.88 C 153.15 357.66 152.62 359.44 152.07 361.21 C 154.65 361.98 157.20 362.92 159.40 364.51 C 165.76 358.11 173.64 352.12 182.96 351.44 C 187.63 351.42 192.57 352.94 195.70 356.59 C 195.71 357.27 195.73 358.62 195.74 359.30 C 199.10 357.60 202.35 354.79 202.52 350.74 C 202.56 344.39 198.48 338.98 194.26 334.62 C 188.93 329.13 191.07 320.80 188.74 314.08 C 188.46 315.11 187.90 317.16 187.62 318.18 C 185.47 319.20 182.97 320.79 180.66 319.22 C 177.16 317.82 176.91 313.72 176.94 310.49 C 177.64 309.47 178.34 308.46 179.04 307.45 C 177.34 304.93 174.81 302.42 175.62 299.10 C 178.29 298.64 180.49 299.81 181.91 302.03 C 185.46 296.63 194.30 297.13 197.67 302.41 C 199.19 304.47 198.06 306.99 197.53 309.17 C 196.33 309.31 195.14 309.45 193.95 309.58 C 193.45 307.87 193.10 306.11 192.77 304.37 C 190.73 303.73 188.61 303.56 186.49 303.61 C 187.69 306.52 189.82 308.81 192.18 310.84 C 195.13 313.39 195.09 317.57 195.36 321.13 C 195.45 324.60 197.14 327.70 198.73 330.69 C 201.74 328.63 205.48 327.54 209.11 328.44 C 213.35 328.97 217.64 332.27 217.51 336.88 C 216.45 337.86 215.23 338.63 214.05 339.46 C 212.76 338.69 211.48 337.90 210.20 337.13 C 210.18 335.99 210.16 334.86 210.15 333.73 C 207.85 333.64 205.55 333.62 203.25 333.68 C 205.68 340.06 210.38 346.54 207.61 353.66 C 211.55 354.44 214.99 356.67 217.36 359.91 C 222.75 355.02 228.48 350.47 234.79 346.82 C 237.02 345.43 239.82 344.41 240.82 341.74 C 247.54 327.80 254.27 313.86 260.79 299.83 C 263.66 294.61 261.09 288.83 259.59 283.62 C 252.74 261.59 246.60 239.34 240.01 217.23 C 230.46 216.21 220.84 215.52 211.47 213.26 C 209.94 212.89 208.52 212.18 207.14 211.45 C 207.66 210.07 208.21 208.70 208.78 207.34 C 217.00 208.27 225.06 210.55 233.37 210.76 C 225.53 205.74 217.08 201.75 209.01 197.12 C 209.20 195.81 209.40 194.51 209.62 193.21 C 211.41 193.23 213.37 192.81 214.98 193.84 C 220.46 196.73 225.84 199.78 231.32 202.68 C 227.03 197.33 222.34 192.30 218.29 186.76 C 218.79 185.78 219.29 184.81 219.79 183.84 C 220.61 183.85 222.23 183.87 223.05 183.88 C 230.12 191.54 236.06 200.16 243.35 207.62 C 245.34 209.68 247.58 211.54 249.29 213.86 C 249.92 215.57 248.35 216.94 247.68 218.35 C 253.20 236.78 259.09 255.11 264.53 273.57 C 266.44 279.44 267.48 285.76 271.15 290.88 C 273.32 294.35 276.30 298.80 273.98 302.91 C 267.47 312.44 265.14 323.98 262.04 334.91 C 272.31 331.76 282.95 330.14 293.55 328.63 C 298.71 320.93 302.67 312.46 307.24 304.39 C 309.59 299.55 312.78 294.66 312.26 289.04 C 311.44 268.85 307.04 248.97 306.58 228.76 C 306.33 223.83 305.57 218.94 304.61 214.10 C 296.51 213.71 288.41 212.90 280.43 211.46 C 278.02 211.08 275.70 210.31 273.52 209.24 C 274.60 207.96 274.96 204.91 277.15 205.26 C 284.71 206.18 292.19 208.16 299.87 207.88 C 291.89 203.05 283.09 199.64 275.28 194.55 C 275.06 192.36 276.67 189.68 279.18 190.77 C 285.42 193.20 291.05 196.94 297.16 199.65 C 293.60 194.96 289.41 190.81 285.72 186.23 C 284.66 185.02 284.15 182.60 285.93 181.79 Z" />
<path fill="#ffffff" d=" M 509.98 200.89 C 510.95 196.39 513.31 190.77 518.75 190.80 C 522.57 194.95 522.67 201.09 521.16 206.24 C 519.79 210.05 516.70 212.91 513.46 215.18 C 510.86 210.94 508.74 205.95 509.98 200.89 Z" />
<path fill="#ffffff" d=" M 602.98 219.02 C 609.39 211.48 620.27 209.29 629.66 211.24 C 635.11 212.61 640.38 215.70 643.23 220.70 C 646.82 226.63 647.34 234.33 644.66 240.72 C 638.13 255.05 616.03 259.19 605.23 247.50 C 613.93 247.67 623.68 246.46 630.16 240.07 C 633.54 236.95 634.65 231.66 632.56 227.53 C 630.23 222.90 625.65 218.73 620.15 219.12 C 610.72 219.66 603.65 227.21 598.89 234.71 C 598.51 229.21 599.17 223.31 602.98 219.02 Z" />
<path fill="#ffffff" d=" M 609.01 232.05 C 613.32 229.71 618.91 228.76 623.47 230.88 C 626.15 234.12 622.88 238.19 619.98 239.91 C 614.75 244.08 607.57 243.59 601.58 241.57 C 603.20 237.86 605.27 234.01 609.01 232.05 Z" />
<path fill="#ffffff" d=" M 101.48 233.06 C 105.52 233.12 109.79 232.57 113.57 234.39 C 120.77 237.37 123.44 246.69 120.97 253.65 C 119.50 258.51 115.05 261.43 110.96 263.95 C 114.92 272.25 121.84 278.95 129.97 283.13 C 134.47 285.37 139.91 286.78 144.72 284.67 C 149.32 282.98 152.50 277.42 150.49 272.71 C 148.81 267.04 142.61 263.98 136.99 264.41 C 134.21 264.45 131.73 267.06 131.94 269.84 C 132.00 272.02 134.50 272.49 135.95 273.54 C 136.36 273.19 137.18 272.49 137.59 272.14 C 138.18 270.63 137.67 267.37 140.14 267.60 C 142.44 267.17 143.21 270.21 143.32 271.97 C 142.94 273.83 142.07 275.54 141.29 277.26 C 139.60 277.68 137.92 278.10 136.25 278.55 C 132.36 277.90 128.16 275.95 126.93 271.88 C 124.99 266.81 129.03 261.40 133.74 259.76 C 137.59 258.87 141.62 259.47 145.39 260.46 C 147.44 257.59 150.08 254.54 153.89 254.36 C 158.47 254.28 162.23 258.23 163.46 262.40 C 164.44 265.20 163.39 268.12 162.53 270.81 C 165.05 272.98 167.50 275.65 167.91 279.10 C 168.20 283.45 165.59 287.69 161.85 289.79 C 159.69 290.81 157.26 290.99 154.95 291.44 C 154.90 293.95 154.23 296.74 151.69 297.85 C 147.40 299.81 141.49 299.62 138.18 295.89 C 136.83 294.22 136.19 292.12 135.37 290.17 C 126.64 288.25 118.96 283.14 112.97 276.61 C 110.99 282.74 107.25 288.40 101.56 291.65 C 101.52 289.51 101.50 287.37 101.51 285.24 C 104.87 281.92 107.74 277.83 108.33 273.03 C 108.20 269.50 105.69 264.86 101.48 265.96 C 101.49 264.36 101.49 262.76 101.50 261.16 C 107.22 260.03 113.94 257.72 116.20 251.78 C 117.80 248.22 116.11 244.17 113.96 241.24 C 110.80 237.84 105.83 237.45 101.48 237.88 C 101.48 236.27 101.48 234.67 101.48 233.06 Z" />
<path fill="#ffffff" d=" M 101.59 241.76 C 106.47 241.75 111.72 245.55 110.78 250.90 C 110.50 255.62 105.41 257.05 101.62 257.98 C 101.54 256.13 101.48 254.30 101.42 252.46 C 102.92 252.00 104.42 251.54 105.91 251.07 C 105.60 248.57 103.66 247.24 101.44 246.42 C 101.49 244.86 101.53 243.31 101.59 241.76 Z" />
<path fill="#ffffff" d=" M 680.46 273.71 C 685.12 272.41 690.31 273.05 694.55 275.40 C 696.54 276.56 698.60 278.61 698.16 281.14 C 696.79 284.34 692.87 284.83 689.84 285.10 C 683.83 285.76 677.22 282.87 674.33 277.50 C 675.22 275.51 678.33 274.56 680.46 273.71 Z" />
<path fill="#ffffff" d=" M 654.05 309.81 C 658.21 306.50 663.63 304.40 668.98 305.67 C 672.93 306.51 678.01 308.31 678.67 312.93 C 676.92 317.46 671.11 317.71 666.99 317.53 C 661.62 317.28 657.31 313.79 654.05 309.81 Z" />
<path fill="#ffffff" d=" M 649.08 341.09 C 661.81 336.07 678.28 342.94 683.01 355.98 C 686.73 366.52 680.61 379.78 669.63 382.85 C 657.13 387.13 640.80 379.90 637.76 366.53 C 644.38 370.07 651.52 373.62 659.25 373.12 C 663.96 372.66 669.25 370.46 670.85 365.60 C 672.39 360.75 671.25 354.99 667.73 351.26 C 663.74 347.53 657.93 346.73 652.70 347.45 C 647.66 347.94 643.06 350.22 638.51 352.29 C 640.70 347.55 644.03 343.01 649.08 341.09 Z" />
<path fill="#ffffff" d=" M 637.60 359.33 C 641.63 356.36 646.60 354.18 651.72 355.24 C 656.29 356.09 662.55 358.29 662.02 364.03 C 654.43 370.11 642.66 367.30 637.60 359.33 Z" />
<path fill="#ffffff" d=" M 122.04 434.51 C 125.15 431.29 130.55 432.85 133.72 435.28 C 136.52 437.39 135.88 441.11 135.26 444.08 C 135.60 444.20 136.28 444.46 136.62 444.59 C 137.92 444.16 139.18 443.46 140.58 443.43 C 141.47 444.22 142.32 445.07 143.12 445.97 C 141.33 449.09 138.02 450.14 134.58 449.86 C 134.29 454.14 131.66 458.62 127.17 459.43 C 124.30 460.36 120.41 459.33 119.57 456.13 C 120.27 453.16 123.13 451.74 125.70 450.72 C 126.61 451.56 127.51 452.42 128.42 453.27 C 128.56 452.11 128.70 450.96 128.84 449.82 C 124.79 449.08 120.64 448.22 116.52 448.96 C 111.25 450.11 106.58 452.97 101.48 454.62 C 101.49 453.11 101.51 451.61 101.53 450.11 C 108.22 447.50 114.58 443.23 122.01 443.26 C 124.97 443.34 127.89 442.72 130.63 441.63 C 130.61 441.15 130.55 440.19 130.52 439.71 C 129.86 439.07 129.20 438.43 128.54 437.80 C 128.48 438.60 128.35 440.21 128.29 441.01 C 127.64 441.48 126.35 442.42 125.71 442.89 C 123.32 440.93 120.05 437.83 122.04 434.51 Z" />
<path fill="#ffffff" d=" M 127.76 757.70 C 130.30 755.70 134.03 755.69 136.82 757.19 C 144.00 761.29 147.77 770.84 144.51 778.61 C 140.08 789.71 126.57 795.56 115.23 792.74 C 111.41 791.60 107.66 788.45 107.80 784.14 C 107.13 778.66 118.30 776.69 117.49 783.13 C 116.18 784.01 114.83 784.80 113.42 785.52 C 115.89 786.81 118.59 787.51 121.33 787.99 C 122.63 787.15 124.73 786.77 124.85 784.88 C 125.27 778.88 122.74 773.07 123.37 767.05 C 123.66 763.56 125.03 759.99 127.76 757.70 Z" />
</svg>
